%TF.GenerationSoftware,KiCad,Pcbnew,9.0.6*%
%TF.CreationDate,2025-12-04T21:19:31-05:00*%
%TF.ProjectId,VoyagerSplitKicad,566f7961-6765-4725-9370-6c69744b6963,rev?*%
%TF.SameCoordinates,Original*%
%TF.FileFunction,Copper,L2,Bot*%
%TF.FilePolarity,Positive*%
%FSLAX46Y46*%
G04 Gerber Fmt 4.6, Leading zero omitted, Abs format (unit mm)*
G04 Created by KiCad (PCBNEW 9.0.6) date 2025-12-04 21:19:31*
%MOMM*%
%LPD*%
G01*
G04 APERTURE LIST*
G04 Aperture macros list*
%AMRoundRect*
0 Rectangle with rounded corners*
0 $1 Rounding radius*
0 $2 $3 $4 $5 $6 $7 $8 $9 X,Y pos of 4 corners*
0 Add a 4 corners polygon primitive as box body*
4,1,4,$2,$3,$4,$5,$6,$7,$8,$9,$2,$3,0*
0 Add four circle primitives for the rounded corners*
1,1,$1+$1,$2,$3*
1,1,$1+$1,$4,$5*
1,1,$1+$1,$6,$7*
1,1,$1+$1,$8,$9*
0 Add four rect primitives between the rounded corners*
20,1,$1+$1,$2,$3,$4,$5,0*
20,1,$1+$1,$4,$5,$6,$7,0*
20,1,$1+$1,$6,$7,$8,$9,0*
20,1,$1+$1,$8,$9,$2,$3,0*%
%AMRotRect*
0 Rectangle, with rotation*
0 The origin of the aperture is its center*
0 $1 length*
0 $2 width*
0 $3 Rotation angle, in degrees counterclockwise*
0 Add horizontal line*
21,1,$1,$2,0,0,$3*%
G04 Aperture macros list end*
%TA.AperFunction,ComponentPad*%
%ADD10C,3.300000*%
%TD*%
%TA.AperFunction,SMDPad,CuDef*%
%ADD11R,1.200000X2.600000*%
%TD*%
%TA.AperFunction,SMDPad,CuDef*%
%ADD12RoundRect,0.260000X-1.065000X-1.040000X1.065000X-1.040000X1.065000X1.040000X-1.065000X1.040000X0*%
%TD*%
%TA.AperFunction,ComponentPad*%
%ADD13RoundRect,0.750000X0.750000X0.750000X-0.750000X0.750000X-0.750000X-0.750000X0.750000X-0.750000X0*%
%TD*%
%TA.AperFunction,SMDPad,CuDef*%
%ADD14RoundRect,0.225000X0.375000X-0.225000X0.375000X0.225000X-0.375000X0.225000X-0.375000X-0.225000X0*%
%TD*%
%TA.AperFunction,SMDPad,CuDef*%
%ADD15C,2.000000*%
%TD*%
%TA.AperFunction,SMDPad,CuDef*%
%ADD16RotRect,1.200000X2.600000X330.000000*%
%TD*%
%TA.AperFunction,SMDPad,CuDef*%
%ADD17RoundRect,0.260000X-1.442317X-0.368166X0.402317X-1.433166X1.442317X0.368166X-0.402317X1.433166X0*%
%TD*%
%TA.AperFunction,SMDPad,CuDef*%
%ADD18RotRect,1.200000X2.600000X150.000000*%
%TD*%
%TA.AperFunction,SMDPad,CuDef*%
%ADD19RotRect,1.200000X2.600000X30.000000*%
%TD*%
%TA.AperFunction,SMDPad,CuDef*%
%ADD20RoundRect,0.260000X-0.402317X-1.433166X1.442317X-0.368166X0.402317X1.433166X-1.442317X0.368166X0*%
%TD*%
%TA.AperFunction,SMDPad,CuDef*%
%ADD21RotRect,1.200000X2.600000X210.000000*%
%TD*%
%TA.AperFunction,SMDPad,CuDef*%
%ADD22RoundRect,0.225000X0.437260X-0.007356X0.212260X0.382356X-0.437260X0.007356X-0.212260X-0.382356X0*%
%TD*%
%TA.AperFunction,SMDPad,CuDef*%
%ADD23RoundRect,0.225000X0.212260X-0.382356X0.437260X0.007356X-0.212260X0.382356X-0.437260X-0.007356X0*%
%TD*%
%TA.AperFunction,ViaPad*%
%ADD24C,0.600000*%
%TD*%
%TA.AperFunction,Conductor*%
%ADD25C,0.200000*%
%TD*%
G04 APERTURE END LIST*
D10*
%TO.P,SW27,1,1*%
%TO.N,/right/COL2*%
X154400000Y-130500000D03*
D11*
X155950000Y-130500000D03*
D12*
X157645000Y-130500000D03*
%TO.P,SW27,2,2*%
%TO.N,Net-(D27-A)*%
X146155000Y-128300000D03*
D11*
X147850000Y-128300000D03*
D10*
X149400000Y-128300000D03*
%TD*%
D13*
%TO.P,U1,15,BAT*%
%TO.N,/left/VBAT*%
X314286500Y-138061300D03*
%TO.P,U1,16,GND*%
%TO.N,GND*%
X314286500Y-134661300D03*
%TD*%
D14*
%TO.P,D57,1,K*%
%TO.N,/right/ROW4*%
X117001002Y-176750000D03*
%TO.P,D57,2,A*%
%TO.N,Net-(D57-A)*%
X117001002Y-173450000D03*
%TD*%
D15*
%TO.P,TP4,1,1*%
%TO.N,GND*%
X84600000Y-152000000D03*
%TD*%
D10*
%TO.P,SW17,1,1*%
%TO.N,/left/COL2*%
X250201000Y-96499500D03*
D11*
X251751000Y-96499500D03*
D12*
X253446000Y-96499500D03*
%TO.P,SW17,2,2*%
%TO.N,Net-(D17-A)*%
X241956000Y-94299500D03*
D11*
X243651000Y-94299500D03*
D10*
X245201000Y-94299500D03*
%TD*%
%TO.P,SW15,1,1*%
%TO.N,/right/COL1*%
X172400000Y-133900000D03*
D11*
X173950000Y-133900000D03*
D12*
X175645000Y-133900000D03*
%TO.P,SW15,2,2*%
%TO.N,Net-(D15-A)*%
X164155000Y-131700000D03*
D11*
X165850000Y-131700000D03*
D10*
X167400000Y-131700000D03*
%TD*%
%TO.P,SW25,1,1*%
%TO.N,/right/COL2*%
X154400000Y-96500000D03*
D11*
X155950000Y-96500000D03*
D12*
X157645000Y-96500000D03*
%TO.P,SW25,2,2*%
%TO.N,Net-(D25-A)*%
X146155000Y-94300000D03*
D11*
X147850000Y-94300000D03*
D10*
X149400000Y-94300000D03*
%TD*%
D14*
%TO.P,D24,1,K*%
%TO.N,/left/ROW3*%
X257901000Y-156299500D03*
%TO.P,D24,2,A*%
%TO.N,Net-(D24-A)*%
X257901000Y-152999500D03*
%TD*%
%TO.P,D41,1,K*%
%TO.N,/right/ROW0*%
X108000000Y-107000000D03*
%TO.P,D41,2,A*%
%TO.N,Net-(D41-A)*%
X108000000Y-103700000D03*
%TD*%
D10*
%TO.P,SW53,1,1*%
%TO.N,/left/COL4*%
X318506127Y-174101905D03*
D16*
X319848466Y-174876905D03*
D17*
X321316379Y-175724405D03*
%TO.P,SW53,2,2*%
%TO.N,Net-(D53-A)*%
X312465748Y-168074149D03*
D18*
X313933661Y-168921649D03*
D10*
X315276000Y-169696649D03*
%TD*%
%TO.P,SW46,1,1*%
%TO.N,/right/COL5*%
X100400002Y-115250000D03*
D11*
X101950002Y-115250000D03*
D12*
X103645002Y-115250000D03*
%TO.P,SW46,2,2*%
%TO.N,Net-(D46-A)*%
X92155002Y-113050000D03*
D11*
X93850002Y-113050000D03*
D10*
X95400002Y-113050000D03*
%TD*%
%TO.P,SW18,1,1*%
%TO.N,/left/COL2*%
X250201000Y-113499500D03*
D11*
X251751000Y-113499500D03*
D12*
X253446000Y-113499500D03*
%TO.P,SW18,2,2*%
%TO.N,Net-(D18-A)*%
X241956000Y-111299500D03*
D11*
X243651000Y-111299500D03*
D10*
X245201000Y-111299500D03*
%TD*%
D14*
%TO.P,D20,1,K*%
%TO.N,/left/ROW3*%
X239901000Y-157999500D03*
%TO.P,D20,2,A*%
%TO.N,Net-(D20-A)*%
X239901000Y-154699500D03*
%TD*%
D10*
%TO.P,SW40,1,1*%
%TO.N,/left/COL5*%
X304201000Y-149249500D03*
D11*
X305751000Y-149249500D03*
D12*
X307446000Y-149249500D03*
%TO.P,SW40,2,2*%
%TO.N,Net-(D40-A)*%
X295956000Y-147049500D03*
D11*
X297651000Y-147049500D03*
D10*
X299201000Y-147049500D03*
%TD*%
D14*
%TO.P,D37,1,K*%
%TO.N,/left/ROW0*%
X293901000Y-108749500D03*
%TO.P,D37,2,A*%
%TO.N,Net-(D37-A)*%
X293901000Y-105449500D03*
%TD*%
%TO.P,D39,1,K*%
%TO.N,/left/ROW2*%
X293901000Y-142749500D03*
%TO.P,D39,2,A*%
%TO.N,Net-(D39-A)*%
X293901000Y-139449500D03*
%TD*%
D10*
%TO.P,SW44,1,1*%
%TO.N,/right/COL4*%
X118400000Y-147500000D03*
D11*
X119950000Y-147500000D03*
D12*
X121645000Y-147500000D03*
%TO.P,SW44,2,2*%
%TO.N,Net-(D44-A)*%
X110155000Y-145300000D03*
D11*
X111850000Y-145300000D03*
D10*
X113400000Y-145300000D03*
%TD*%
%TO.P,SW38,1,1*%
%TO.N,/left/COL5*%
X304201000Y-115249500D03*
D11*
X305751000Y-115249500D03*
D12*
X307446000Y-115249500D03*
%TO.P,SW38,2,2*%
%TO.N,Net-(D38-A)*%
X295956000Y-113049500D03*
D11*
X297651000Y-113049500D03*
D10*
X299201000Y-113049500D03*
%TD*%
D14*
%TO.P,D16,1,K*%
%TO.N,/right/ROW3*%
X162000000Y-161400000D03*
%TO.P,D16,2,A*%
%TO.N,Net-(D16-A)*%
X162000000Y-158100000D03*
%TD*%
%TO.P,D44,1,K*%
%TO.N,/right/ROW3*%
X108000000Y-158000000D03*
%TO.P,D44,2,A*%
%TO.N,Net-(D44-A)*%
X108000000Y-154700000D03*
%TD*%
D10*
%TO.P,SW60,1,1*%
%TO.N,/right/COL5*%
X76254127Y-154378972D03*
D19*
X77596466Y-153603972D03*
D20*
X79064379Y-152756472D03*
%TO.P,SW60,2,2*%
%TO.N,Net-(D60-A)*%
X68013748Y-156596216D03*
D21*
X69481661Y-155748716D03*
D10*
X70824000Y-154973716D03*
%TD*%
D14*
%TO.P,D21,1,K*%
%TO.N,/left/ROW0*%
X257901000Y-105299500D03*
%TO.P,D21,2,A*%
%TO.N,Net-(D21-A)*%
X257901000Y-101999500D03*
%TD*%
D10*
%TO.P,SW58,1,1*%
%TO.N,/right/COL3*%
X109401000Y-167900000D03*
D11*
X110951000Y-167900000D03*
D12*
X112646000Y-167900000D03*
%TO.P,SW58,2,2*%
%TO.N,Net-(D58-A)*%
X101156000Y-165700000D03*
D11*
X102851000Y-165700000D03*
D10*
X104401000Y-165700000D03*
%TD*%
%TO.P,SW11,1,1*%
%TO.N,/left/COL1*%
X232201000Y-133899500D03*
D11*
X233751000Y-133899500D03*
D12*
X235446000Y-133899500D03*
%TO.P,SW11,2,2*%
%TO.N,Net-(D11-A)*%
X223956000Y-131699500D03*
D11*
X225651000Y-131699500D03*
D10*
X227201000Y-131699500D03*
%TD*%
D14*
%TO.P,D4,1,K*%
%TO.N,/right/ROW0*%
X162000000Y-110400000D03*
%TO.P,D4,2,A*%
%TO.N,Net-(D4-A)*%
X162000000Y-107100000D03*
%TD*%
%TO.P,D14,1,K*%
%TO.N,/right/ROW3*%
X180000000Y-161400000D03*
%TO.P,D14,2,A*%
%TO.N,Net-(D14-A)*%
X180000000Y-158100000D03*
%TD*%
D10*
%TO.P,SW42,1,1*%
%TO.N,/right/COL4*%
X118400000Y-113500000D03*
D11*
X119950000Y-113500000D03*
D12*
X121645000Y-113500000D03*
%TO.P,SW42,2,2*%
%TO.N,Net-(D42-A)*%
X110155000Y-111300000D03*
D11*
X111850000Y-111300000D03*
D10*
X113400000Y-111300000D03*
%TD*%
%TO.P,SW41,1,1*%
%TO.N,/right/COL4*%
X118400000Y-96500000D03*
D11*
X119950000Y-96500000D03*
D12*
X121645000Y-96500000D03*
%TO.P,SW41,2,2*%
%TO.N,Net-(D41-A)*%
X110155000Y-94300000D03*
D11*
X111850000Y-94300000D03*
D10*
X113400000Y-94300000D03*
%TD*%
%TO.P,SW51,1,1*%
%TO.N,/left/COL2*%
X277189141Y-166199500D03*
D11*
X278739141Y-166199500D03*
D12*
X280434141Y-166199500D03*
%TO.P,SW51,2,2*%
%TO.N,Net-(D51-A)*%
X268944141Y-163999500D03*
D11*
X270639141Y-163999500D03*
D10*
X272189141Y-163999500D03*
%TD*%
%TO.P,SW43,1,1*%
%TO.N,/right/COL4*%
X118400000Y-130500000D03*
D11*
X119950000Y-130500000D03*
D12*
X121645000Y-130500000D03*
%TO.P,SW43,2,2*%
%TO.N,Net-(D43-A)*%
X110155000Y-128300000D03*
D11*
X111850000Y-128300000D03*
D10*
X113400000Y-128300000D03*
%TD*%
D14*
%TO.P,D32,1,K*%
%TO.N,/right/ROW3*%
X126000002Y-154650000D03*
%TO.P,D32,2,A*%
%TO.N,Net-(D32-A)*%
X126000002Y-151350000D03*
%TD*%
%TO.P,D29,1,K*%
%TO.N,/right/ROW0*%
X126000000Y-105300000D03*
%TO.P,D29,2,A*%
%TO.N,Net-(D29-A)*%
X126000000Y-102000000D03*
%TD*%
%TO.P,D3,1,K*%
%TO.N,/left/ROW0*%
X221901000Y-110399500D03*
%TO.P,D3,2,A*%
%TO.N,Net-(D3-A)*%
X221901000Y-107099500D03*
%TD*%
D10*
%TO.P,SW1,1,1*%
%TO.N,/left/COL0*%
X214201000Y-99899500D03*
D11*
X215751000Y-99899500D03*
D12*
X217446000Y-99899500D03*
%TO.P,SW1,2,2*%
%TO.N,Net-(D1-A)*%
X205956000Y-97699500D03*
D11*
X207651000Y-97699500D03*
D10*
X209201000Y-97699500D03*
%TD*%
%TO.P,SW29,1,1*%
%TO.N,/right/COL3*%
X136400000Y-94800000D03*
D11*
X137950000Y-94800000D03*
D12*
X139645000Y-94800000D03*
%TO.P,SW29,2,2*%
%TO.N,Net-(D29-A)*%
X128155000Y-92600000D03*
D11*
X129850000Y-92600000D03*
D10*
X131400000Y-92600000D03*
%TD*%
D14*
%TO.P,D52,1,K*%
%TO.N,/left/ROW4*%
X284889141Y-178399500D03*
%TO.P,D52,2,A*%
%TO.N,Net-(D52-A)*%
X284889141Y-175099500D03*
%TD*%
D10*
%TO.P,SW19,1,1*%
%TO.N,/left/COL2*%
X250201000Y-130499500D03*
D11*
X251751000Y-130499500D03*
D12*
X253446000Y-130499500D03*
%TO.P,SW19,2,2*%
%TO.N,Net-(D19-A)*%
X241956000Y-128299500D03*
D11*
X243651000Y-128299500D03*
D10*
X245201000Y-128299500D03*
%TD*%
%TO.P,SW21,1,1*%
%TO.N,/left/COL3*%
X268200000Y-94798500D03*
D11*
X269750000Y-94798500D03*
D12*
X271445000Y-94798500D03*
%TO.P,SW21,2,2*%
%TO.N,Net-(D21-A)*%
X259955000Y-92598500D03*
D11*
X261650000Y-92598500D03*
D10*
X263200000Y-92598500D03*
%TD*%
D14*
%TO.P,D35,1,K*%
%TO.N,/left/ROW2*%
X275901000Y-140999500D03*
%TO.P,D35,2,A*%
%TO.N,Net-(D35-A)*%
X275901000Y-137699500D03*
%TD*%
D10*
%TO.P,SW59,1,1*%
%TO.N,/right/COL4*%
X84754127Y-169101405D03*
D19*
X86096466Y-168326405D03*
D20*
X87564379Y-167478905D03*
%TO.P,SW59,2,2*%
%TO.N,Net-(D59-A)*%
X76513748Y-171318649D03*
D21*
X77981661Y-170471149D03*
D10*
X79324000Y-169696149D03*
%TD*%
D14*
%TO.P,D27,1,K*%
%TO.N,/right/ROW2*%
X144000000Y-141000000D03*
%TO.P,D27,2,A*%
%TO.N,Net-(D27-A)*%
X144000000Y-137700000D03*
%TD*%
%TO.P,D47,1,K*%
%TO.N,/right/ROW2*%
X90000002Y-142750000D03*
%TO.P,D47,2,A*%
%TO.N,Net-(D47-A)*%
X90000002Y-139450000D03*
%TD*%
D10*
%TO.P,SW12,1,1*%
%TO.N,/left/COL1*%
X232201000Y-150899500D03*
D11*
X233751000Y-150899500D03*
D12*
X235446000Y-150899500D03*
%TO.P,SW12,2,2*%
%TO.N,Net-(D12-A)*%
X223956000Y-148699500D03*
D11*
X225651000Y-148699500D03*
D10*
X227201000Y-148699500D03*
%TD*%
%TO.P,SW57,1,1*%
%TO.N,/right/COL2*%
X127401000Y-166200000D03*
D11*
X128951000Y-166200000D03*
D12*
X130646000Y-166200000D03*
%TO.P,SW57,2,2*%
%TO.N,Net-(D57-A)*%
X119156000Y-164000000D03*
D11*
X120851000Y-164000000D03*
D10*
X122401000Y-164000000D03*
%TD*%
%TO.P,SW45,1,1*%
%TO.N,/right/COL5*%
X100400002Y-98250000D03*
D11*
X101950002Y-98250000D03*
D12*
X103645002Y-98250000D03*
%TO.P,SW45,2,2*%
%TO.N,Net-(D45-A)*%
X92155002Y-96050000D03*
D11*
X93850002Y-96050000D03*
D10*
X95400002Y-96050000D03*
%TD*%
D14*
%TO.P,D30,1,K*%
%TO.N,/right/ROW1*%
X126000000Y-122300000D03*
%TO.P,D30,2,A*%
%TO.N,Net-(D30-A)*%
X126000000Y-119000000D03*
%TD*%
%TO.P,D31,1,K*%
%TO.N,/right/ROW2*%
X126000000Y-139300000D03*
%TO.P,D31,2,A*%
%TO.N,Net-(D31-A)*%
X126000000Y-136000000D03*
%TD*%
D10*
%TO.P,SW33,1,1*%
%TO.N,/left/COL4*%
X286201000Y-96499500D03*
D11*
X287751000Y-96499500D03*
D12*
X289446000Y-96499500D03*
%TO.P,SW33,2,2*%
%TO.N,Net-(D33-A)*%
X277956000Y-94299500D03*
D11*
X279651000Y-94299500D03*
D10*
X281201000Y-94299500D03*
%TD*%
%TO.P,SW34,1,1*%
%TO.N,/left/COL4*%
X286201000Y-113499500D03*
D11*
X287751000Y-113499500D03*
D12*
X289446000Y-113499500D03*
%TO.P,SW34,2,2*%
%TO.N,Net-(D34-A)*%
X277956000Y-111299500D03*
D11*
X279651000Y-111299500D03*
D10*
X281201000Y-111299500D03*
%TD*%
D14*
%TO.P,D38,1,K*%
%TO.N,/left/ROW1*%
X293901000Y-125749500D03*
%TO.P,D38,2,A*%
%TO.N,Net-(D38-A)*%
X293901000Y-122449500D03*
%TD*%
D10*
%TO.P,SW39,1,1*%
%TO.N,/left/COL5*%
X304201000Y-132249500D03*
D11*
X305751000Y-132249500D03*
D12*
X307446000Y-132249500D03*
%TO.P,SW39,2,2*%
%TO.N,Net-(D39-A)*%
X295956000Y-130049500D03*
D11*
X297651000Y-130049500D03*
D10*
X299201000Y-130049500D03*
%TD*%
D15*
%TO.P,TP2,1,1*%
%TO.N,/right/VBAT*%
X84600000Y-157800000D03*
%TD*%
D14*
%TO.P,D51,1,K*%
%TO.N,/left/ROW4*%
X266889141Y-176699500D03*
%TO.P,D51,2,A*%
%TO.N,Net-(D51-A)*%
X266889141Y-173399500D03*
%TD*%
%TO.P,D23,1,K*%
%TO.N,/left/ROW2*%
X257901000Y-139299500D03*
%TO.P,D23,2,A*%
%TO.N,Net-(D23-A)*%
X257901000Y-135999500D03*
%TD*%
%TO.P,D33,1,K*%
%TO.N,/left/ROW0*%
X275901000Y-106999500D03*
%TO.P,D33,2,A*%
%TO.N,Net-(D33-A)*%
X275901000Y-103699500D03*
%TD*%
D10*
%TO.P,SW37,1,1*%
%TO.N,/left/COL5*%
X304201000Y-98249500D03*
D11*
X305751000Y-98249500D03*
D12*
X307446000Y-98249500D03*
%TO.P,SW37,2,2*%
%TO.N,Net-(D37-A)*%
X295956000Y-96049500D03*
D11*
X297651000Y-96049500D03*
D10*
X299201000Y-96049500D03*
%TD*%
D14*
%TO.P,D7,1,K*%
%TO.N,/right/ROW1*%
X180000000Y-127400000D03*
%TO.P,D7,2,A*%
%TO.N,Net-(D7-A)*%
X180000000Y-124100000D03*
%TD*%
%TO.P,D22,1,K*%
%TO.N,/left/ROW1*%
X257901000Y-122299500D03*
%TO.P,D22,2,A*%
%TO.N,Net-(D22-A)*%
X257901000Y-118999500D03*
%TD*%
D10*
%TO.P,SW16,1,1*%
%TO.N,/right/COL1*%
X172400000Y-150900000D03*
D11*
X173950000Y-150900000D03*
D12*
X175645000Y-150900000D03*
%TO.P,SW16,2,2*%
%TO.N,Net-(D16-A)*%
X164155000Y-148700000D03*
D11*
X165850000Y-148700000D03*
D10*
X167400000Y-148700000D03*
%TD*%
D14*
%TO.P,D46,1,K*%
%TO.N,/right/ROW1*%
X90000002Y-125750000D03*
%TO.P,D46,2,A*%
%TO.N,Net-(D46-A)*%
X90000002Y-122450000D03*
%TD*%
%TO.P,D34,1,K*%
%TO.N,/left/ROW1*%
X275901000Y-123999500D03*
%TO.P,D34,2,A*%
%TO.N,Net-(D34-A)*%
X275901000Y-120699500D03*
%TD*%
D15*
%TO.P,TP1,1,1*%
%TO.N,/left/VBAT*%
X311101000Y-156149500D03*
%TD*%
D14*
%TO.P,D10,1,K*%
%TO.N,/left/ROW3*%
X203901000Y-161399500D03*
%TO.P,D10,2,A*%
%TO.N,Net-(D10-A)*%
X203901000Y-158099500D03*
%TD*%
%TO.P,D8,1,K*%
%TO.N,/right/ROW1*%
X162000000Y-127400000D03*
%TO.P,D8,2,A*%
%TO.N,Net-(D8-A)*%
X162000000Y-124100000D03*
%TD*%
D13*
%TO.P,U2,15,BAT*%
%TO.N,/right/VBAT*%
X71660000Y-138100000D03*
%TO.P,U2,16,GND*%
%TO.N,GND*%
X71660000Y-134700000D03*
%TD*%
D15*
%TO.P,TP3,1,1*%
%TO.N,GND*%
X312601000Y-151349500D03*
%TD*%
D14*
%TO.P,D26,1,K*%
%TO.N,/right/ROW1*%
X144000000Y-124000000D03*
%TO.P,D26,2,A*%
%TO.N,Net-(D26-A)*%
X144000000Y-120700000D03*
%TD*%
%TO.P,D11,1,K*%
%TO.N,/left/ROW2*%
X221901000Y-144399500D03*
%TO.P,D11,2,A*%
%TO.N,Net-(D11-A)*%
X221901000Y-141099500D03*
%TD*%
D10*
%TO.P,SW6,1,1*%
%TO.N,/left/COL1*%
X232201000Y-116899500D03*
D11*
X233751000Y-116899500D03*
D12*
X235446000Y-116899500D03*
%TO.P,SW6,2,2*%
%TO.N,Net-(D6-A)*%
X223956000Y-114699500D03*
D11*
X225651000Y-114699500D03*
D10*
X227201000Y-114699500D03*
%TD*%
%TO.P,SW4,1,1*%
%TO.N,/right/COL1*%
X172400000Y-99900000D03*
D11*
X173950000Y-99900000D03*
D12*
X175645000Y-99900000D03*
%TO.P,SW4,2,2*%
%TO.N,Net-(D4-A)*%
X164155000Y-97700000D03*
D11*
X165850000Y-97700000D03*
D10*
X167400000Y-97700000D03*
%TD*%
D14*
%TO.P,D13,1,K*%
%TO.N,/right/ROW2*%
X180000000Y-144400000D03*
%TO.P,D13,2,A*%
%TO.N,Net-(D13-A)*%
X180000000Y-141100000D03*
%TD*%
D10*
%TO.P,SW8,1,1*%
%TO.N,/right/COL1*%
X172400000Y-116900000D03*
D11*
X173950000Y-116900000D03*
D12*
X175645000Y-116900000D03*
%TO.P,SW8,2,2*%
%TO.N,Net-(D8-A)*%
X164155000Y-114700000D03*
D11*
X165850000Y-114700000D03*
D10*
X167400000Y-114700000D03*
%TD*%
D14*
%TO.P,D28,1,K*%
%TO.N,/right/ROW3*%
X144000000Y-158000000D03*
%TO.P,D28,2,A*%
%TO.N,Net-(D28-A)*%
X144000000Y-154700000D03*
%TD*%
D10*
%TO.P,SW48,1,1*%
%TO.N,/right/COL5*%
X100400002Y-149250000D03*
D11*
X101950002Y-149250000D03*
D12*
X103645002Y-149250000D03*
%TO.P,SW48,2,2*%
%TO.N,Net-(D48-A)*%
X92155002Y-147050000D03*
D11*
X93850002Y-147050000D03*
D10*
X95400002Y-147050000D03*
%TD*%
D14*
%TO.P,D15,1,K*%
%TO.N,/right/ROW2*%
X162000000Y-144400000D03*
%TO.P,D15,2,A*%
%TO.N,Net-(D15-A)*%
X162000000Y-141100000D03*
%TD*%
%TO.P,D25,1,K*%
%TO.N,/right/ROW0*%
X144000000Y-107000000D03*
%TO.P,D25,2,A*%
%TO.N,Net-(D25-A)*%
X144000000Y-103700000D03*
%TD*%
D22*
%TO.P,D59,1,K*%
%TO.N,/right/ROW4*%
X80997463Y-183394672D03*
%TO.P,D59,2,A*%
%TO.N,Net-(D59-A)*%
X79347463Y-180536788D03*
%TD*%
%TO.P,D60,1,K*%
%TO.N,/right/ROW4*%
X72497464Y-168672239D03*
%TO.P,D60,2,A*%
%TO.N,Net-(D60-A)*%
X70847464Y-165814355D03*
%TD*%
D10*
%TO.P,SW9,1,1*%
%TO.N,/left/COL0*%
X214201000Y-133899500D03*
D11*
X215751000Y-133899500D03*
D12*
X217446000Y-133899500D03*
%TO.P,SW9,2,2*%
%TO.N,Net-(D9-A)*%
X205956000Y-131699500D03*
D11*
X207651000Y-131699500D03*
D10*
X209201000Y-131699500D03*
%TD*%
%TO.P,SW47,1,1*%
%TO.N,/right/COL5*%
X100400002Y-132250000D03*
D11*
X101950002Y-132250000D03*
D12*
X103645002Y-132250000D03*
%TO.P,SW47,2,2*%
%TO.N,Net-(D47-A)*%
X92155002Y-130050000D03*
D11*
X93850002Y-130050000D03*
D10*
X95400002Y-130050000D03*
%TD*%
D14*
%TO.P,D17,1,K*%
%TO.N,/left/ROW0*%
X239901000Y-106999500D03*
%TO.P,D17,2,A*%
%TO.N,Net-(D17-A)*%
X239901000Y-103699500D03*
%TD*%
D10*
%TO.P,SW24,1,1*%
%TO.N,/left/COL3*%
X268201000Y-145799500D03*
D11*
X269751000Y-145799500D03*
D12*
X271446000Y-145799500D03*
%TO.P,SW24,2,2*%
%TO.N,Net-(D24-A)*%
X259956000Y-143599500D03*
D11*
X261651000Y-143599500D03*
D10*
X263201000Y-143599500D03*
%TD*%
D14*
%TO.P,D18,1,K*%
%TO.N,/left/ROW1*%
X239901000Y-123999500D03*
%TO.P,D18,2,A*%
%TO.N,Net-(D18-A)*%
X239901000Y-120699500D03*
%TD*%
%TO.P,D48,1,K*%
%TO.N,/right/ROW3*%
X90000002Y-159750000D03*
%TO.P,D48,2,A*%
%TO.N,Net-(D48-A)*%
X90000002Y-156450000D03*
%TD*%
D10*
%TO.P,SW31,1,1*%
%TO.N,/right/COL3*%
X136400000Y-128800000D03*
D11*
X137950000Y-128800000D03*
D12*
X139645000Y-128800000D03*
%TO.P,SW31,2,2*%
%TO.N,Net-(D31-A)*%
X128155000Y-126600000D03*
D11*
X129850000Y-126600000D03*
D10*
X131400000Y-126600000D03*
%TD*%
%TO.P,SW5,1,1*%
%TO.N,/left/COL0*%
X214201000Y-116899500D03*
D11*
X215751000Y-116899500D03*
D12*
X217446000Y-116899500D03*
%TO.P,SW5,2,2*%
%TO.N,Net-(D5-A)*%
X205956000Y-114699500D03*
D11*
X207651000Y-114699500D03*
D10*
X209201000Y-114699500D03*
%TD*%
%TO.P,SW22,1,1*%
%TO.N,/left/COL3*%
X268201000Y-111799500D03*
D11*
X269751000Y-111799500D03*
D12*
X271446000Y-111799500D03*
%TO.P,SW22,2,2*%
%TO.N,Net-(D22-A)*%
X259956000Y-109599500D03*
D11*
X261651000Y-109599500D03*
D10*
X263201000Y-109599500D03*
%TD*%
D14*
%TO.P,D45,1,K*%
%TO.N,/right/ROW0*%
X90000002Y-108750000D03*
%TO.P,D45,2,A*%
%TO.N,Net-(D45-A)*%
X90000002Y-105450000D03*
%TD*%
D10*
%TO.P,SW35,1,1*%
%TO.N,/left/COL4*%
X286201000Y-130499500D03*
D11*
X287751000Y-130499500D03*
D12*
X289446000Y-130499500D03*
%TO.P,SW35,2,2*%
%TO.N,Net-(D35-A)*%
X277956000Y-128299500D03*
D11*
X279651000Y-128299500D03*
D10*
X281201000Y-128299500D03*
%TD*%
%TO.P,SW30,1,1*%
%TO.N,/right/COL3*%
X136400000Y-111800000D03*
D11*
X137950000Y-111800000D03*
D12*
X139645000Y-111800000D03*
%TO.P,SW30,2,2*%
%TO.N,Net-(D30-A)*%
X128155000Y-109600000D03*
D11*
X129850000Y-109600000D03*
D10*
X131400000Y-109600000D03*
%TD*%
%TO.P,SW32,1,1*%
%TO.N,/right/COL3*%
X136400000Y-145800000D03*
D11*
X137950000Y-145800000D03*
D12*
X139645000Y-145800000D03*
%TO.P,SW32,2,2*%
%TO.N,Net-(D32-A)*%
X128155000Y-143600000D03*
D11*
X129850000Y-143600000D03*
D10*
X131400000Y-143600000D03*
%TD*%
%TO.P,SW13,1,1*%
%TO.N,/right/COL0*%
X190400000Y-133900000D03*
D11*
X191950000Y-133900000D03*
D12*
X193645000Y-133900000D03*
%TO.P,SW13,2,2*%
%TO.N,Net-(D13-A)*%
X182155000Y-131700000D03*
D11*
X183850000Y-131700000D03*
D10*
X185400000Y-131700000D03*
%TD*%
D14*
%TO.P,D43,1,K*%
%TO.N,/right/ROW2*%
X108000000Y-141000000D03*
%TO.P,D43,2,A*%
%TO.N,Net-(D43-A)*%
X108000000Y-137700000D03*
%TD*%
D10*
%TO.P,SW26,1,1*%
%TO.N,/right/COL2*%
X154400000Y-113500000D03*
D11*
X155950000Y-113500000D03*
D12*
X157645000Y-113500000D03*
%TO.P,SW26,2,2*%
%TO.N,Net-(D26-A)*%
X146155000Y-111300000D03*
D11*
X147850000Y-111300000D03*
D10*
X149400000Y-111300000D03*
%TD*%
%TO.P,SW54,1,1*%
%TO.N,/left/COL5*%
X327006126Y-159379473D03*
D16*
X328348465Y-160154473D03*
D17*
X329816378Y-161001973D03*
%TO.P,SW54,2,2*%
%TO.N,Net-(D54-A)*%
X320965747Y-153351717D03*
D18*
X322433660Y-154199217D03*
D10*
X323775999Y-154974217D03*
%TD*%
D14*
%TO.P,D1,1,K*%
%TO.N,/left/ROW0*%
X203901000Y-110399500D03*
%TO.P,D1,2,A*%
%TO.N,Net-(D1-A)*%
X203901000Y-107099500D03*
%TD*%
D10*
%TO.P,SW36,1,1*%
%TO.N,/left/COL4*%
X286201000Y-147499500D03*
D11*
X287751000Y-147499500D03*
D12*
X289446000Y-147499500D03*
%TO.P,SW36,2,2*%
%TO.N,Net-(D36-A)*%
X277956000Y-145299500D03*
D11*
X279651000Y-145299500D03*
D10*
X281201000Y-145299500D03*
%TD*%
%TO.P,SW2,1,1*%
%TO.N,/right/COL0*%
X190400000Y-99900000D03*
D11*
X191950000Y-99900000D03*
D12*
X193645000Y-99900000D03*
%TO.P,SW2,2,2*%
%TO.N,Net-(D2-A)*%
X182155000Y-97700000D03*
D11*
X183850000Y-97700000D03*
D10*
X185400000Y-97700000D03*
%TD*%
D14*
%TO.P,D5,1,K*%
%TO.N,/left/ROW1*%
X203901000Y-127399500D03*
%TO.P,D5,2,A*%
%TO.N,Net-(D5-A)*%
X203901000Y-124099500D03*
%TD*%
%TO.P,D40,1,K*%
%TO.N,/left/ROW3*%
X293901000Y-159749500D03*
%TO.P,D40,2,A*%
%TO.N,Net-(D40-A)*%
X293901000Y-156449500D03*
%TD*%
D10*
%TO.P,SW3,1,1*%
%TO.N,/left/COL1*%
X232201000Y-99899500D03*
D11*
X233751000Y-99899500D03*
D12*
X235446000Y-99899500D03*
%TO.P,SW3,2,2*%
%TO.N,Net-(D3-A)*%
X223956000Y-97699500D03*
D11*
X225651000Y-97699500D03*
D10*
X227201000Y-97699500D03*
%TD*%
D14*
%TO.P,D6,1,K*%
%TO.N,/left/ROW1*%
X221901000Y-127399500D03*
%TO.P,D6,2,A*%
%TO.N,Net-(D6-A)*%
X221901000Y-124099500D03*
%TD*%
%TO.P,D36,1,K*%
%TO.N,/left/ROW3*%
X275901000Y-157999500D03*
%TO.P,D36,2,A*%
%TO.N,Net-(D36-A)*%
X275901000Y-154699500D03*
%TD*%
D10*
%TO.P,SW28,1,1*%
%TO.N,/right/COL2*%
X154400000Y-147500000D03*
D11*
X155950000Y-147500000D03*
D12*
X157645000Y-147500000D03*
%TO.P,SW28,2,2*%
%TO.N,Net-(D28-A)*%
X146155000Y-145300000D03*
D11*
X147850000Y-145300000D03*
D10*
X149400000Y-145300000D03*
%TD*%
D14*
%TO.P,D9,1,K*%
%TO.N,/left/ROW2*%
X203901000Y-144399500D03*
%TO.P,D9,2,A*%
%TO.N,Net-(D9-A)*%
X203901000Y-141099500D03*
%TD*%
D10*
%TO.P,SW7,1,1*%
%TO.N,/right/COL0*%
X190400000Y-116900000D03*
D11*
X191950000Y-116900000D03*
D12*
X193645000Y-116900000D03*
%TO.P,SW7,2,2*%
%TO.N,Net-(D7-A)*%
X182155000Y-114700000D03*
D11*
X183850000Y-114700000D03*
D10*
X185400000Y-114700000D03*
%TD*%
D23*
%TO.P,D53,1,K*%
%TO.N,/left/ROW4*%
X304336066Y-178045173D03*
%TO.P,D53,2,A*%
%TO.N,Net-(D53-A)*%
X305986066Y-175187289D03*
%TD*%
D10*
%TO.P,SW52,1,1*%
%TO.N,/left/COL3*%
X295189141Y-167899500D03*
D11*
X296739141Y-167899500D03*
D12*
X298434141Y-167899500D03*
%TO.P,SW52,2,2*%
%TO.N,Net-(D52-A)*%
X286944141Y-165699500D03*
D11*
X288639141Y-165699500D03*
D10*
X290189141Y-165699500D03*
%TD*%
D14*
%TO.P,D12,1,K*%
%TO.N,/left/ROW3*%
X221901000Y-161399500D03*
%TO.P,D12,2,A*%
%TO.N,Net-(D12-A)*%
X221901000Y-158099500D03*
%TD*%
%TO.P,D42,1,K*%
%TO.N,/right/ROW1*%
X108000000Y-124000000D03*
%TO.P,D42,2,A*%
%TO.N,Net-(D42-A)*%
X108000000Y-120700000D03*
%TD*%
%TO.P,D19,1,K*%
%TO.N,/left/ROW2*%
X239901000Y-140999500D03*
%TO.P,D19,2,A*%
%TO.N,Net-(D19-A)*%
X239901000Y-137699500D03*
%TD*%
%TO.P,D2,1,K*%
%TO.N,/right/ROW0*%
X180000000Y-110400000D03*
%TO.P,D2,2,A*%
%TO.N,Net-(D2-A)*%
X180000000Y-107100000D03*
%TD*%
%TO.P,D58,1,K*%
%TO.N,/right/ROW4*%
X99001000Y-178400000D03*
%TO.P,D58,2,A*%
%TO.N,Net-(D58-A)*%
X99001000Y-175100000D03*
%TD*%
D10*
%TO.P,SW10,1,1*%
%TO.N,/left/COL0*%
X214201000Y-150899500D03*
D11*
X215751000Y-150899500D03*
D12*
X217446000Y-150899500D03*
%TO.P,SW10,2,2*%
%TO.N,Net-(D10-A)*%
X205956000Y-148699500D03*
D11*
X207651000Y-148699500D03*
D10*
X209201000Y-148699500D03*
%TD*%
%TO.P,SW14,1,1*%
%TO.N,/right/COL0*%
X190400000Y-150900000D03*
D11*
X191950000Y-150900000D03*
D12*
X193645000Y-150900000D03*
%TO.P,SW14,2,2*%
%TO.N,Net-(D14-A)*%
X182155000Y-148700000D03*
D11*
X183850000Y-148700000D03*
D10*
X185400000Y-148700000D03*
%TD*%
%TO.P,SW20,1,1*%
%TO.N,/left/COL2*%
X250201000Y-147499500D03*
D11*
X251751000Y-147499500D03*
D12*
X253446000Y-147499500D03*
%TO.P,SW20,2,2*%
%TO.N,Net-(D20-A)*%
X241956000Y-145299500D03*
D11*
X243651000Y-145299500D03*
D10*
X245201000Y-145299500D03*
%TD*%
D23*
%TO.P,D54,1,K*%
%TO.N,/left/ROW4*%
X312836066Y-163322740D03*
%TO.P,D54,2,A*%
%TO.N,Net-(D54-A)*%
X314486066Y-160464856D03*
%TD*%
D10*
%TO.P,SW23,1,1*%
%TO.N,/left/COL3*%
X268201000Y-128799500D03*
D11*
X269751000Y-128799500D03*
D12*
X271446000Y-128799500D03*
%TO.P,SW23,2,2*%
%TO.N,Net-(D23-A)*%
X259956000Y-126599500D03*
D11*
X261651000Y-126599500D03*
D10*
X263201000Y-126599500D03*
%TD*%
D24*
%TO.N,/right/ROW0*%
X103948998Y-107000000D03*
X102748998Y-107000000D03*
%TO.N,/right/ROW1*%
X103045002Y-125800000D03*
X104245002Y-125800000D03*
%TO.N,/right/ROW2*%
X176245000Y-144400000D03*
X175045000Y-144400000D03*
X158245000Y-144400000D03*
X157045000Y-144400000D03*
X140245002Y-141000000D03*
X139045002Y-141000000D03*
X122245002Y-139300000D03*
X121045002Y-139300000D03*
X104245004Y-141000000D03*
X103045004Y-141000000D03*
%TO.N,/right/ROW0*%
X86600000Y-137600000D03*
%TO.N,/right/ROW1*%
X86700000Y-140300000D03*
%TO.N,/right/ROW2*%
X86200000Y-142700000D03*
%TO.N,/right/ROW3*%
X86850000Y-147887900D03*
X86800000Y-149087900D03*
X88700000Y-159800000D03*
%TO.N,/right/ROW4*%
X66300000Y-146500000D03*
%TO.N,/left/COL4*%
X289400000Y-157399500D03*
%TO.N,/left/ROW0*%
X306846000Y-126651473D03*
%TO.N,GND*%
X324800000Y-132600000D03*
%TO.N,/left/ROW1*%
X306846000Y-127500000D03*
%TO.N,/left/ROW2*%
X303250000Y-144450000D03*
%TO.N,/left/ROW4*%
X309500000Y-146800000D03*
X308650015Y-155349985D03*
X307801485Y-156198515D03*
%TO.N,/left/ROW3*%
X308582648Y-159917852D03*
%TO.N,/left/COL5*%
X308700000Y-142800000D03*
%TO.N,/left/ROW0*%
X270846000Y-107049500D03*
X252846000Y-105449500D03*
X254046000Y-105449500D03*
X234846000Y-106949500D03*
X291852000Y-107049500D03*
X272046000Y-107049500D03*
X216150000Y-110349500D03*
X217401000Y-110349500D03*
X236046000Y-106949500D03*
X290652000Y-107049500D03*
%TO.N,/right/ROW0*%
X157045002Y-110400000D03*
X122245000Y-105300000D03*
X158245002Y-110400000D03*
X140245000Y-107000000D03*
X175548998Y-109600000D03*
X139045000Y-107000000D03*
X121045000Y-105300000D03*
X174348998Y-109600000D03*
%TO.N,/left/ROW1*%
X218046000Y-127349500D03*
X290046000Y-125749500D03*
X234846000Y-124149500D03*
X270846000Y-123949500D03*
X236046000Y-124149500D03*
X288846000Y-125749500D03*
X216846000Y-127349500D03*
X272046000Y-123949500D03*
X254046000Y-122449500D03*
X252846000Y-122449500D03*
%TO.N,/right/ROW1*%
X176245002Y-127400000D03*
X140245002Y-124000000D03*
X175045002Y-127400000D03*
X157045002Y-127400000D03*
X122245000Y-122300000D03*
X121045000Y-122300000D03*
X139045002Y-124000000D03*
X158245002Y-127400000D03*
%TO.N,/left/ROW2*%
X252846000Y-139349500D03*
X254046000Y-139349500D03*
X290046000Y-142749500D03*
X234846000Y-141049500D03*
X288846000Y-142749500D03*
X216846000Y-144349500D03*
X236046000Y-141049500D03*
X272046000Y-140949500D03*
X270846000Y-140949500D03*
X218046000Y-144349500D03*
%TO.N,/right/ROW3*%
X118048500Y-154648500D03*
X117199970Y-153799970D03*
X146324265Y-158924265D03*
X127975750Y-155775750D03*
X145475735Y-158075735D03*
X128900030Y-156700030D03*
%TO.N,/left/COL2*%
X253501000Y-156899500D03*
X253501000Y-155699500D03*
%TO.N,/left/COL3*%
X277401000Y-158599500D03*
X277301000Y-157399500D03*
%TD*%
D25*
%TO.N,/right/ROW0*%
X103948998Y-107000000D02*
X108000000Y-107000000D01*
X90000002Y-108750000D02*
X91750002Y-107000000D01*
X91750002Y-107000000D02*
X102748998Y-107000000D01*
%TO.N,/right/ROW1*%
X102995002Y-125750000D02*
X90000002Y-125750000D01*
X103045002Y-125800000D02*
X102995002Y-125750000D01*
X106045002Y-124000000D02*
X104245002Y-125800000D01*
X108000000Y-124000000D02*
X106045002Y-124000000D01*
%TO.N,/right/ROW2*%
X162000000Y-144400000D02*
X175045000Y-144400000D01*
X176245000Y-144400000D02*
X180000000Y-144400000D01*
X158245000Y-144400000D02*
X162000000Y-144400000D01*
X153645000Y-141000000D02*
X157045000Y-144400000D01*
X144000000Y-141000000D02*
X153645000Y-141000000D01*
X140245002Y-141000000D02*
X144000000Y-141000000D01*
X125100000Y-139300000D02*
X126000000Y-139300000D01*
X125100000Y-139300000D02*
X137345002Y-139300000D01*
X137345002Y-139300000D02*
X139045002Y-141000000D01*
X122245002Y-139300000D02*
X125100000Y-139300000D01*
X119345002Y-141000000D02*
X121045002Y-139300000D01*
X108000000Y-141000000D02*
X119345002Y-141000000D01*
X104245004Y-141000000D02*
X108000000Y-141000000D01*
X101295004Y-142750000D02*
X103045004Y-141000000D01*
X90000002Y-142750000D02*
X101295004Y-142750000D01*
%TO.N,/right/ROW0*%
X88099000Y-110651002D02*
X88099000Y-136101000D01*
X90000002Y-108750000D02*
X88099000Y-110651002D01*
X88099000Y-136101000D02*
X86600000Y-137600000D01*
%TO.N,/right/ROW1*%
X88500000Y-127250002D02*
X88500000Y-138500000D01*
X88500000Y-138500000D02*
X86700000Y-140300000D01*
X90000002Y-125750000D02*
X88500000Y-127250002D01*
%TO.N,/right/ROW2*%
X86250000Y-142750000D02*
X86200000Y-142700000D01*
X90000002Y-142750000D02*
X86250000Y-142750000D01*
%TO.N,/right/ROW3*%
X86850000Y-147937900D02*
X86800000Y-147987900D01*
X86850000Y-147887900D02*
X86850000Y-147937900D01*
X86800000Y-147987900D02*
X86800000Y-149087900D01*
X88750000Y-159750000D02*
X88700000Y-159800000D01*
X90000002Y-159750000D02*
X88750000Y-159750000D01*
X106250000Y-159750000D02*
X108000000Y-158000000D01*
X90000002Y-159750000D02*
X106250000Y-159750000D01*
%TO.N,/right/ROW4*%
X66007605Y-146792395D02*
X66300000Y-146500000D01*
X66007605Y-162316446D02*
X66007605Y-146792395D01*
X72363398Y-168672239D02*
X66007605Y-162316446D01*
X72497464Y-168672239D02*
X72363398Y-168672239D01*
X80334238Y-183394672D02*
X80997463Y-183394672D01*
X72497464Y-175557898D02*
X80334238Y-183394672D01*
X72497464Y-168672239D02*
X72497464Y-175557898D01*
%TO.N,GND*%
X82300000Y-149700000D02*
X84600000Y-152000000D01*
X82300000Y-145340000D02*
X82300000Y-149700000D01*
X71660000Y-134700000D02*
X82300000Y-145340000D01*
%TO.N,/right/VBAT*%
X81070522Y-147510522D02*
X81070522Y-154270522D01*
X71660000Y-138100000D02*
X81070522Y-147510522D01*
X81070522Y-154270522D02*
X84600000Y-157800000D01*
%TO.N,/left/ROW2*%
X303250000Y-144450000D02*
X301549500Y-142749500D01*
X301549500Y-142749500D02*
X293901000Y-142749500D01*
%TO.N,/left/COL4*%
X289446000Y-157353500D02*
X289400000Y-157399500D01*
X289446000Y-147499500D02*
X289446000Y-157353500D01*
%TO.N,/left/ROW3*%
X294052000Y-159900500D02*
X293901000Y-159749500D01*
X308565296Y-159900500D02*
X294052000Y-159900500D01*
X308582648Y-159917852D02*
X308565296Y-159900500D01*
%TO.N,/left/ROW0*%
X302250000Y-122055473D02*
X306846000Y-126651473D01*
X297660131Y-108749500D02*
X302250000Y-113339369D01*
X302250000Y-113339369D02*
X302250000Y-122055473D01*
X293901000Y-108749500D02*
X297660131Y-108749500D01*
%TO.N,GND*%
X322738700Y-134661300D02*
X324800000Y-132600000D01*
X314286500Y-134661300D02*
X322738700Y-134661300D01*
%TO.N,/left/ROW1*%
X305095500Y-125749500D02*
X306846000Y-127500000D01*
X293901000Y-125749500D02*
X305095500Y-125749500D01*
%TO.N,/left/ROW4*%
X309500000Y-154500000D02*
X309500000Y-146800000D01*
X308650015Y-155349985D02*
X309500000Y-154500000D01*
X307801485Y-158288159D02*
X307801485Y-156198515D01*
X312836066Y-163322740D02*
X307801485Y-158288159D01*
X304336066Y-171822740D02*
X312836066Y-163322740D01*
X304336066Y-178045173D02*
X304336066Y-171822740D01*
X303981739Y-178399500D02*
X304336066Y-178045173D01*
X284889141Y-178399500D02*
X303981739Y-178399500D01*
%TO.N,/left/COL5*%
X307446000Y-144054000D02*
X308700000Y-142800000D01*
X307446000Y-149249500D02*
X307446000Y-144054000D01*
%TO.N,/left/VBAT*%
X311000000Y-156048500D02*
X311101000Y-156149500D01*
X311000000Y-141347800D02*
X311000000Y-156048500D01*
X314286500Y-138061300D02*
X311000000Y-141347800D01*
%TO.N,GND*%
X316100000Y-147850500D02*
X312601000Y-151349500D01*
X316100000Y-136474800D02*
X316100000Y-147850500D01*
X314286500Y-134661300D02*
X316100000Y-136474800D01*
%TO.N,/left/ROW0*%
X275901000Y-106999500D02*
X290602000Y-106999500D01*
X221851000Y-110349500D02*
X221901000Y-110399500D01*
X257901000Y-105299500D02*
X269096000Y-105299500D01*
X236046000Y-106949500D02*
X239851000Y-106949500D01*
X217401000Y-110349500D02*
X221851000Y-110349500D01*
X239851000Y-106949500D02*
X239901000Y-106999500D01*
X292201000Y-107049500D02*
X293901000Y-108749500D01*
X272096000Y-106999500D02*
X275901000Y-106999500D01*
X251296000Y-106999500D02*
X252846000Y-105449500D01*
X223251000Y-110399500D02*
X221901000Y-110399500D01*
X216150000Y-110349500D02*
X203951000Y-110349500D01*
X290602000Y-106999500D02*
X290652000Y-107049500D01*
X291852000Y-107049500D02*
X292201000Y-107049500D01*
X254196000Y-105299500D02*
X257901000Y-105299500D01*
X239901000Y-106999500D02*
X251296000Y-106999500D01*
X269096000Y-105299500D02*
X270846000Y-107049500D01*
X254046000Y-105449500D02*
X254196000Y-105299500D01*
X226701000Y-106949500D02*
X223251000Y-110399500D01*
X203951000Y-110349500D02*
X203901000Y-110399500D01*
X272046000Y-107049500D02*
X272096000Y-106999500D01*
X234846000Y-106949500D02*
X226701000Y-106949500D01*
%TO.N,Net-(D1-A)*%
X205956000Y-105044500D02*
X205956000Y-97699500D01*
X203901000Y-107099500D02*
X205956000Y-105044500D01*
%TO.N,Net-(D2-A)*%
X182155000Y-104945002D02*
X182155000Y-97700003D01*
X180000002Y-107100000D02*
X182155000Y-104945002D01*
%TO.N,/right/ROW0*%
X162000000Y-110400000D02*
X162800000Y-109600000D01*
X108000000Y-107000000D02*
X119345000Y-107000000D01*
X175548998Y-109600000D02*
X179199998Y-109600000D01*
X179199998Y-109600000D02*
X179999998Y-110400000D01*
X158245002Y-110400000D02*
X162000000Y-110400000D01*
X137345000Y-105300000D02*
X139045000Y-107000000D01*
X162800000Y-109600000D02*
X174348998Y-109600000D01*
X153645002Y-107000000D02*
X157045002Y-110400000D01*
X140245000Y-107000000D02*
X143999998Y-107000000D01*
X122245000Y-105300000D02*
X125999998Y-105300000D01*
X143999998Y-107000000D02*
X153645002Y-107000000D01*
X125999998Y-105300000D02*
X137345000Y-105300000D01*
X119345000Y-107000000D02*
X121045000Y-105300000D01*
%TO.N,Net-(D3-A)*%
X223956000Y-105044500D02*
X223956000Y-97699500D01*
X221901000Y-107099500D02*
X223956000Y-105044500D01*
%TO.N,Net-(D4-A)*%
X162000000Y-107100000D02*
X164155000Y-104945000D01*
X164155000Y-104945000D02*
X164155000Y-97700003D01*
%TO.N,/left/ROW1*%
X216796000Y-127399500D02*
X216846000Y-127349500D01*
X221901000Y-127399500D02*
X231596000Y-127399500D01*
X231596000Y-127399500D02*
X234846000Y-124149500D01*
X287096000Y-123999500D02*
X288846000Y-125749500D01*
X272096000Y-123999500D02*
X275901000Y-123999500D01*
X275901000Y-123999500D02*
X287096000Y-123999500D01*
X218501000Y-127349500D02*
X218551000Y-127399500D01*
X254196000Y-122299500D02*
X257901000Y-122299500D01*
X239901000Y-123999500D02*
X251296000Y-123999500D01*
X236501000Y-124149500D02*
X236651000Y-123999500D01*
X203901000Y-127399500D02*
X216796000Y-127399500D01*
X218046000Y-127349500D02*
X218501000Y-127349500D01*
X218551000Y-127399500D02*
X221901000Y-127399500D01*
X272046000Y-123949500D02*
X272096000Y-123999500D01*
X290046000Y-125749500D02*
X293901000Y-125749500D01*
X254046000Y-122449500D02*
X254196000Y-122299500D01*
X269196000Y-122299500D02*
X270846000Y-123949500D01*
X236046000Y-124149500D02*
X236501000Y-124149500D01*
X257901000Y-122299500D02*
X269196000Y-122299500D01*
X251296000Y-123999500D02*
X252846000Y-122449500D01*
X236651000Y-123999500D02*
X239901000Y-123999500D01*
%TO.N,Net-(D5-A)*%
X205956000Y-122044500D02*
X205956000Y-114699500D01*
X203901000Y-124099500D02*
X205956000Y-122044500D01*
%TO.N,Net-(D6-A)*%
X223956000Y-122044500D02*
X223956000Y-114699500D01*
X221901000Y-124099500D02*
X223956000Y-122044500D01*
%TO.N,/right/ROW1*%
X125999998Y-122300000D02*
X137345002Y-122300000D01*
X119345000Y-124000000D02*
X121045000Y-122300000D01*
X155100000Y-124000000D02*
X157045002Y-125945002D01*
X158245002Y-127400000D02*
X161999998Y-127400000D01*
X143999998Y-124000000D02*
X155100000Y-124000000D01*
X140245002Y-124000000D02*
X143999998Y-124000000D01*
X122245000Y-122300000D02*
X125999998Y-122300000D01*
X157045002Y-125945002D02*
X157045002Y-127400000D01*
X179999998Y-127400000D02*
X176245002Y-127400000D01*
X137345002Y-122300000D02*
X139045002Y-124000000D01*
X175045002Y-127400000D02*
X161999998Y-127400000D01*
X108000000Y-124000000D02*
X119345000Y-124000000D01*
%TO.N,Net-(D7-A)*%
X182155000Y-121945002D02*
X182155000Y-114700003D01*
X180000002Y-124100000D02*
X182155000Y-121945002D01*
%TO.N,Net-(D8-A)*%
X162000002Y-124100000D02*
X164155000Y-121945002D01*
X164155000Y-121945002D02*
X164155000Y-114700003D01*
%TO.N,Net-(D9-A)*%
X203901000Y-141099500D02*
X205956000Y-139044500D01*
X205956000Y-139044500D02*
X205956000Y-131699500D01*
%TO.N,/left/ROW2*%
X231496000Y-144399500D02*
X234846000Y-141049500D01*
X257901000Y-139299500D02*
X269196000Y-139299500D01*
X203901000Y-144399500D02*
X216796000Y-144399500D01*
X272046000Y-140949500D02*
X272096000Y-140999500D01*
X221901000Y-144399500D02*
X231496000Y-144399500D01*
X254096000Y-139299500D02*
X257901000Y-139299500D01*
X239901000Y-140999500D02*
X241551000Y-139349500D01*
X272096000Y-140999500D02*
X275901000Y-140999500D01*
X216796000Y-144399500D02*
X216846000Y-144349500D01*
X218046000Y-144349500D02*
X218096000Y-144399500D01*
X269196000Y-139299500D02*
X270846000Y-140949500D01*
X287096000Y-140999500D02*
X288846000Y-142749500D01*
X241551000Y-139349500D02*
X252846000Y-139349500D01*
X290046000Y-142749500D02*
X293901000Y-142749500D01*
X236046000Y-141049500D02*
X236096000Y-140999500D01*
X254046000Y-139349500D02*
X254096000Y-139299500D01*
X275901000Y-140999500D02*
X287096000Y-140999500D01*
X218096000Y-144399500D02*
X221901000Y-144399500D01*
X236096000Y-140999500D02*
X239901000Y-140999500D01*
%TO.N,Net-(D10-A)*%
X205956000Y-156044500D02*
X205956000Y-148699500D01*
X203901000Y-158099500D02*
X205956000Y-156044500D01*
%TO.N,/left/ROW3*%
X203901000Y-161399500D02*
X221901000Y-161399500D01*
X236501000Y-161399500D02*
X239901000Y-157999500D01*
X221901000Y-161399500D02*
X236501000Y-161399500D01*
X241851000Y-156299500D02*
X257901000Y-156299500D01*
X240151000Y-157999500D02*
X241851000Y-156299500D01*
X274201000Y-156299500D02*
X275901000Y-157999500D01*
X239901000Y-157999500D02*
X240151000Y-157999500D01*
X275901000Y-157999500D02*
X292151000Y-157999500D01*
X257901000Y-156299500D02*
X274201000Y-156299500D01*
X292151000Y-157999500D02*
X293901000Y-159749500D01*
%TO.N,Net-(D11-A)*%
X221901000Y-141099500D02*
X223956000Y-139044500D01*
X223956000Y-139044500D02*
X223956000Y-131699500D01*
%TO.N,Net-(D12-A)*%
X221901000Y-158099500D02*
X223956000Y-156044500D01*
X223956000Y-156044500D02*
X223956000Y-148699500D01*
%TO.N,Net-(D13-A)*%
X182155000Y-138945002D02*
X182155000Y-131700003D01*
X180000002Y-141100000D02*
X182155000Y-138945002D01*
%TO.N,/right/ROW3*%
X143999998Y-158000000D02*
X145400000Y-158000000D01*
X160800000Y-160200000D02*
X162000000Y-161400000D01*
X118050000Y-154650000D02*
X126000000Y-154650000D01*
X145400000Y-158000000D02*
X145475735Y-158075735D01*
X128900030Y-156700030D02*
X130200000Y-158000000D01*
X118048500Y-154648500D02*
X118050000Y-154650000D01*
X147600000Y-160200000D02*
X160800000Y-160200000D01*
X108000000Y-158000000D02*
X112999940Y-158000000D01*
X127975750Y-155775750D02*
X126850000Y-154650000D01*
X126850000Y-154650000D02*
X126000000Y-154650000D01*
X146324265Y-158924265D02*
X147600000Y-160200000D01*
X112999940Y-158000000D02*
X117199970Y-153799970D01*
X130200000Y-158000000D02*
X143999998Y-158000000D01*
X180000000Y-161400000D02*
X162000000Y-161400000D01*
%TO.N,Net-(D14-A)*%
X182155000Y-155945000D02*
X182155000Y-148700003D01*
X180000000Y-158100000D02*
X182155000Y-155945000D01*
%TO.N,Net-(D15-A)*%
X162000002Y-141100000D02*
X164155000Y-138945002D01*
X164155000Y-138945002D02*
X164155000Y-131700000D01*
%TO.N,Net-(D16-A)*%
X162000000Y-158100000D02*
X164155000Y-155945000D01*
X164155000Y-155945000D02*
X164155000Y-148700003D01*
%TO.N,Net-(D17-A)*%
X241956000Y-101644500D02*
X241956000Y-94299500D01*
X239901000Y-103699500D02*
X241956000Y-101644500D01*
%TO.N,Net-(D18-A)*%
X241956000Y-118644500D02*
X241956000Y-111299500D01*
X239901000Y-120699500D02*
X241956000Y-118644500D01*
%TO.N,Net-(D19-A)*%
X241956000Y-135644500D02*
X241956000Y-128299500D01*
X239901000Y-137699500D02*
X241956000Y-135644500D01*
%TO.N,Net-(D20-A)*%
X239901000Y-154699500D02*
X241956000Y-152644500D01*
X241956000Y-152644500D02*
X241956000Y-145299500D01*
%TO.N,Net-(D21-A)*%
X259956000Y-99944500D02*
X259956000Y-92599500D01*
X257901000Y-101999500D02*
X259956000Y-99944500D01*
%TO.N,Net-(D22-A)*%
X259956000Y-116944500D02*
X259956000Y-109599500D01*
X257901000Y-118999500D02*
X259956000Y-116944500D01*
%TO.N,Net-(D23-A)*%
X257901000Y-135999500D02*
X259956000Y-133944500D01*
X259956000Y-133944500D02*
X259956000Y-126599500D01*
%TO.N,Net-(D24-A)*%
X259956000Y-150944500D02*
X259956000Y-143599500D01*
X257901000Y-152999500D02*
X259956000Y-150944500D01*
%TO.N,Net-(D25-A)*%
X144000002Y-103700000D02*
X146155000Y-101545002D01*
X146155000Y-101545002D02*
X146155000Y-94300003D01*
%TO.N,Net-(D26-A)*%
X146155000Y-118545002D02*
X146155000Y-111300003D01*
X144000002Y-120700000D02*
X146155000Y-118545002D01*
%TO.N,Net-(D27-A)*%
X144000002Y-137700000D02*
X146155000Y-135545002D01*
X146155000Y-135545002D02*
X146155000Y-128300000D01*
%TO.N,Net-(D28-A)*%
X146155000Y-152545002D02*
X146155000Y-145300003D01*
X144000002Y-154700000D02*
X146155000Y-152545002D01*
%TO.N,Net-(D29-A)*%
X128155000Y-99845002D02*
X128155000Y-92600000D01*
X126000002Y-102000000D02*
X128155000Y-99845002D01*
%TO.N,Net-(D30-A)*%
X126000002Y-119000000D02*
X128155000Y-116845002D01*
X128155000Y-116845002D02*
X128155000Y-109600003D01*
%TO.N,Net-(D31-A)*%
X126000002Y-136000000D02*
X128155000Y-133845002D01*
X128155000Y-133845002D02*
X128155000Y-126600003D01*
%TO.N,Net-(D32-A)*%
X128155000Y-149195004D02*
X128155000Y-143600003D01*
X126000004Y-151350000D02*
X128155000Y-149195004D01*
%TO.N,Net-(D33-A)*%
X277956000Y-101644500D02*
X277956000Y-94299500D01*
X275901000Y-103699500D02*
X277956000Y-101644500D01*
%TO.N,Net-(D34-A)*%
X277956000Y-118644500D02*
X277956000Y-111299500D01*
X275901000Y-120699500D02*
X277956000Y-118644500D01*
%TO.N,Net-(D35-A)*%
X277956000Y-135644500D02*
X277956000Y-128299500D01*
X275901000Y-137699500D02*
X277956000Y-135644500D01*
%TO.N,Net-(D36-A)*%
X275901000Y-154699500D02*
X277956000Y-152644500D01*
X277956000Y-152644500D02*
X277956000Y-145299500D01*
%TO.N,Net-(D37-A)*%
X293901000Y-105449500D02*
X295956000Y-103394500D01*
X295956000Y-103394500D02*
X295956000Y-96049500D01*
%TO.N,Net-(D38-A)*%
X293901000Y-122449500D02*
X295956000Y-120394500D01*
X295956000Y-120394500D02*
X295956000Y-113049500D01*
%TO.N,Net-(D39-A)*%
X295956000Y-137394500D02*
X295956000Y-130049500D01*
X293901000Y-139449500D02*
X295956000Y-137394500D01*
%TO.N,Net-(D40-A)*%
X295956000Y-154394500D02*
X295956000Y-147049500D01*
X293901000Y-156449500D02*
X295956000Y-154394500D01*
%TO.N,Net-(D41-A)*%
X110155000Y-101545000D02*
X110155000Y-94300000D01*
X108000000Y-103700000D02*
X110155000Y-101545000D01*
%TO.N,Net-(D42-A)*%
X110155000Y-118545000D02*
X110155000Y-111300000D01*
X108000000Y-120700000D02*
X110155000Y-118545000D01*
%TO.N,Net-(D43-A)*%
X108000002Y-137700000D02*
X110155000Y-135545002D01*
X110155000Y-135545002D02*
X110155000Y-128300003D01*
%TO.N,Net-(D44-A)*%
X110155000Y-152545000D02*
X110155000Y-145300000D01*
X108000000Y-154700000D02*
X110155000Y-152545000D01*
%TO.N,Net-(D45-A)*%
X92155002Y-103295002D02*
X92155002Y-96050003D01*
X90000004Y-105450000D02*
X92155002Y-103295002D01*
%TO.N,Net-(D46-A)*%
X92155002Y-120295002D02*
X92155002Y-113050000D01*
X90000004Y-122450000D02*
X92155002Y-120295002D01*
%TO.N,Net-(D47-A)*%
X90000004Y-139450000D02*
X92155002Y-137295002D01*
X92155002Y-137295002D02*
X92155002Y-130050003D01*
%TO.N,Net-(D48-A)*%
X90000004Y-156450000D02*
X92155002Y-154295002D01*
X92155002Y-154295002D02*
X92155002Y-147050003D01*
%TO.N,/left/ROW4*%
X283189141Y-176699500D02*
X284889141Y-178399500D01*
X266889141Y-176699500D02*
X283189141Y-176699500D01*
%TO.N,Net-(D51-A)*%
X266889141Y-173399500D02*
X268944141Y-171344500D01*
X268944141Y-171344500D02*
X268944141Y-163999500D01*
%TO.N,Net-(D52-A)*%
X284889141Y-175099500D02*
X286944141Y-173044500D01*
X286944141Y-173044500D02*
X286944141Y-165699500D01*
%TO.N,Net-(D53-A)*%
X306649292Y-175187289D02*
X312465747Y-169370834D01*
X312465747Y-169370834D02*
X312465747Y-168074150D01*
X305986067Y-175187289D02*
X306649292Y-175187289D01*
%TO.N,Net-(D54-A)*%
X320965746Y-154648402D02*
X320965746Y-153351718D01*
X314486067Y-160464856D02*
X315149292Y-160464856D01*
X315149292Y-160464856D02*
X320965746Y-154648402D01*
%TO.N,Net-(D57-A)*%
X119156000Y-171295002D02*
X119156000Y-164000003D01*
X117001002Y-173450000D02*
X119156000Y-171295002D01*
%TO.N,/right/ROW4*%
X100650998Y-176750000D02*
X99000998Y-178400000D01*
X117001002Y-176750000D02*
X100650998Y-176750000D01*
X99000998Y-178400000D02*
X85992132Y-178400000D01*
X85992132Y-178400000D02*
X80997461Y-183394671D01*
%TO.N,Net-(D58-A)*%
X101156000Y-172945002D02*
X101156000Y-165700000D01*
X99001002Y-175100000D02*
X101156000Y-172945002D01*
%TO.N,Net-(D59-A)*%
X79347465Y-174152367D02*
X76513749Y-171318651D01*
X79347465Y-180536789D02*
X79347465Y-174152367D01*
%TO.N,Net-(D60-A)*%
X70847466Y-159429934D02*
X68013748Y-156596216D01*
X70847466Y-165814356D02*
X70847466Y-159429934D01*
%TO.N,/left/COL0*%
X217446000Y-133899500D02*
X217446000Y-150899500D01*
X217446000Y-116899500D02*
X217446000Y-133899500D01*
X216750000Y-116203500D02*
X217446000Y-116899500D01*
X217446000Y-99899500D02*
X216750000Y-100595500D01*
X216750000Y-100595500D02*
X216750000Y-116203500D01*
%TO.N,/right/COL0*%
X193645002Y-133900000D02*
X193645002Y-150900000D01*
X193645002Y-99900000D02*
X193645002Y-116900000D01*
X193645002Y-116900000D02*
X193645002Y-133900000D01*
%TO.N,/left/COL1*%
X235446000Y-116899500D02*
X235446000Y-133899500D01*
X235446000Y-116899500D02*
X235446000Y-150899500D01*
X235446000Y-99899500D02*
X235446000Y-116899500D01*
%TO.N,/right/COL1*%
X175645000Y-150899998D02*
X175645002Y-150900000D01*
X174948998Y-116203996D02*
X175645002Y-116900000D01*
X174948998Y-100596004D02*
X174948998Y-116203996D01*
X175645002Y-116900000D02*
X175645002Y-133899998D01*
X175645000Y-133900000D02*
X175645000Y-150899998D01*
X175645002Y-133899998D02*
X175645000Y-133900000D01*
X175645002Y-99900000D02*
X174948998Y-100596004D01*
%TO.N,/left/COL2*%
X253446000Y-96499500D02*
X253446000Y-113499500D01*
X264902024Y-160250524D02*
X266700000Y-162048500D01*
X266700000Y-162048500D02*
X276283141Y-162048500D01*
X256852024Y-160250524D02*
X264902024Y-160250524D01*
X253446000Y-96499500D02*
X253446000Y-130499500D01*
X276283141Y-162048500D02*
X280434141Y-166199500D01*
X253446000Y-155644500D02*
X253501000Y-155699500D01*
X253501000Y-156899500D02*
X256852024Y-160250524D01*
X253446000Y-147499500D02*
X253446000Y-155644500D01*
X253446000Y-96499500D02*
X253446000Y-147499500D01*
%TO.N,/left/COL3*%
X288451000Y-158599500D02*
X297751000Y-167899500D01*
X271446000Y-151594500D02*
X277251000Y-157399500D01*
X271446000Y-111799500D02*
X271446000Y-128799500D01*
X277401000Y-158599500D02*
X288451000Y-158599500D01*
X297751000Y-167899500D02*
X298434141Y-167899500D01*
X271446000Y-145799500D02*
X271446000Y-151594500D01*
X271446000Y-128799500D02*
X271446000Y-145799500D01*
X277251000Y-157399500D02*
X277301000Y-157399500D01*
X271446000Y-94799500D02*
X271446000Y-111799500D01*
%TO.N,/right/COL2*%
X157645000Y-147499998D02*
X157645002Y-147500000D01*
X157645000Y-130500000D02*
X157645000Y-147499998D01*
X132851000Y-160849000D02*
X130646002Y-163053998D01*
X157645002Y-147500000D02*
X156900000Y-147500000D01*
X130646002Y-163053998D02*
X130646002Y-166200000D01*
X157645002Y-113500000D02*
X157645002Y-130499998D01*
X143551000Y-160849000D02*
X132851000Y-160849000D01*
X157645002Y-96500000D02*
X157645002Y-113500000D01*
X157645002Y-130499998D02*
X157645000Y-130500000D01*
X156900000Y-147500000D02*
X143551000Y-160849000D01*
%TO.N,/right/COL3*%
X139645002Y-128800000D02*
X139645002Y-145800000D01*
X121048001Y-158198000D02*
X112646000Y-166600001D01*
X112646000Y-166600001D02*
X112646000Y-167900000D01*
X139645002Y-111800000D02*
X139645002Y-128800000D01*
X138801443Y-145800000D02*
X126403443Y-158198000D01*
X139645002Y-145800000D02*
X138801443Y-145800000D01*
X126403443Y-158198000D02*
X121048001Y-158198000D01*
X139645000Y-94800000D02*
X139645000Y-111799998D01*
X139645000Y-111799998D02*
X139645002Y-111800000D01*
%TO.N,/left/COL4*%
X291252000Y-111693500D02*
X289446000Y-113499500D01*
X291252000Y-98305500D02*
X291252000Y-111693500D01*
X289446000Y-113499500D02*
X289446000Y-147499500D01*
X289446000Y-113499500D02*
X289446000Y-130499500D01*
X289446000Y-96499500D02*
X291252000Y-98305500D01*
%TO.N,/left/COL5*%
X307446000Y-98249500D02*
X307446000Y-132249500D01*
X324493238Y-162249500D02*
X325740765Y-161001973D01*
X325740765Y-161001973D02*
X329816379Y-161001973D01*
X307446000Y-149249500D02*
X307446000Y-154994500D01*
X307446000Y-154994500D02*
X314701000Y-162249500D01*
X307446000Y-98249500D02*
X307446000Y-115249500D01*
X314701000Y-162249500D02*
X324493238Y-162249500D01*
X307446000Y-98249500D02*
X307446000Y-149249500D01*
%TO.N,/right/COL4*%
X121645000Y-113500000D02*
X121645000Y-130499998D01*
X111697470Y-160151000D02*
X121645000Y-150203470D01*
X121645000Y-96500000D02*
X121645000Y-113500000D01*
X103799422Y-160151000D02*
X111697470Y-160151000D01*
X121645002Y-130500000D02*
X121645002Y-147499998D01*
X121645000Y-150203470D02*
X121645000Y-147500000D01*
X121645002Y-147499998D02*
X121645000Y-147500000D01*
X121645000Y-130499998D02*
X121645002Y-130500000D01*
X96471519Y-167478903D02*
X103799422Y-160151000D01*
X87564381Y-167478903D02*
X96471519Y-167478903D01*
%TO.N,/right/COL5*%
X102050554Y-149250000D02*
X103645004Y-149250000D01*
X103645004Y-132250000D02*
X103645004Y-149250000D01*
X79064379Y-152756472D02*
X79064379Y-154257583D01*
X103645004Y-98250000D02*
X103348998Y-98546006D01*
X103348998Y-98546006D02*
X103348998Y-114953996D01*
X96249554Y-155051000D02*
X102050554Y-149250000D01*
X93348890Y-155051000D02*
X96249554Y-155051000D01*
X103348998Y-114953996D02*
X103645002Y-115250000D01*
X89298890Y-159101000D02*
X93348890Y-155051000D01*
X103645002Y-132249998D02*
X103645004Y-132250000D01*
X103645002Y-115250000D02*
X103645002Y-132249998D01*
X83907796Y-159101000D02*
X89298890Y-159101000D01*
X79064379Y-154257583D02*
X83907796Y-159101000D01*
%TD*%
M02*
