%TF.GenerationSoftware,KiCad,Pcbnew,9.0.6*%
%TF.CreationDate,2025-12-03T21:27:50-05:00*%
%TF.ProjectId,VoyagerSplitKicad,566f7961-6765-4725-9370-6c69744b6963,rev?*%
%TF.SameCoordinates,Original*%
%TF.FileFunction,Paste,Bot*%
%TF.FilePolarity,Positive*%
%FSLAX46Y46*%
G04 Gerber Fmt 4.6, Leading zero omitted, Abs format (unit mm)*
G04 Created by KiCad (PCBNEW 9.0.6) date 2025-12-03 21:27:50*
%MOMM*%
%LPD*%
G01*
G04 APERTURE LIST*
G04 Aperture macros list*
%AMRoundRect*
0 Rectangle with rounded corners*
0 $1 Rounding radius*
0 $2 $3 $4 $5 $6 $7 $8 $9 X,Y pos of 4 corners*
0 Add a 4 corners polygon primitive as box body*
4,1,4,$2,$3,$4,$5,$6,$7,$8,$9,$2,$3,0*
0 Add four circle primitives for the rounded corners*
1,1,$1+$1,$2,$3*
1,1,$1+$1,$4,$5*
1,1,$1+$1,$6,$7*
1,1,$1+$1,$8,$9*
0 Add four rect primitives between the rounded corners*
20,1,$1+$1,$2,$3,$4,$5,0*
20,1,$1+$1,$4,$5,$6,$7,0*
20,1,$1+$1,$6,$7,$8,$9,0*
20,1,$1+$1,$8,$9,$2,$3,0*%
G04 Aperture macros list end*
%ADD10RoundRect,0.260000X-1.065000X-1.040000X1.065000X-1.040000X1.065000X1.040000X-1.065000X1.040000X0*%
%ADD11RoundRect,0.500000X0.875000X0.500000X-0.875000X0.500000X-0.875000X-0.500000X0.875000X-0.500000X0*%
%ADD12RoundRect,0.275000X-0.275000X0.975000X-0.275000X-0.975000X0.275000X-0.975000X0.275000X0.975000X0*%
%ADD13C,1.700000*%
%ADD14RoundRect,0.225000X0.375000X-0.225000X0.375000X0.225000X-0.375000X0.225000X-0.375000X-0.225000X0*%
%ADD15RoundRect,0.260000X-1.442317X-0.368166X0.402317X-1.433166X1.442317X0.368166X-0.402317X1.433166X0*%
%ADD16RoundRect,0.260000X-0.402317X-1.433166X1.442317X-0.368166X0.402317X1.433166X-1.442317X0.368166X0*%
%ADD17RoundRect,0.225000X0.437260X-0.007356X0.212260X0.382356X-0.437260X0.007356X-0.212260X-0.382356X0*%
%ADD18RoundRect,0.225000X0.212260X-0.382356X0.437260X0.007356X-0.212260X0.382356X-0.437260X-0.007356X0*%
G04 APERTURE END LIST*
D10*
%TO.C,SW27*%
X157645000Y-130500000D03*
X146155000Y-128300000D03*
%TD*%
D11*
%TO.C,U1*%
X326896500Y-130041300D03*
X326896500Y-132581300D03*
X326896500Y-135121300D03*
X326896500Y-137661300D03*
X326896500Y-140201300D03*
X326896500Y-142741300D03*
X326896500Y-145281300D03*
X310731500Y-145281300D03*
X310731500Y-142741300D03*
X310731500Y-140201300D03*
X310731500Y-137661300D03*
X310731500Y-135121300D03*
X310731500Y-132581300D03*
X310731500Y-130041300D03*
D12*
X315031500Y-146898200D03*
X313126500Y-146898200D03*
D13*
X320111500Y-129092800D03*
X317571500Y-129092800D03*
X320111500Y-131632800D03*
X317571500Y-131632800D03*
%TD*%
D14*
%TO.C,D57*%
X117001002Y-176750000D03*
X117001002Y-173450000D03*
%TD*%
D10*
%TO.C,SW17*%
X253446000Y-96499500D03*
X241956000Y-94299500D03*
%TD*%
%TO.C,SW15*%
X175645000Y-133900000D03*
X164155000Y-131700000D03*
%TD*%
%TO.C,SW25*%
X157645000Y-96500000D03*
X146155000Y-94300000D03*
%TD*%
D14*
%TO.C,D24*%
X257901000Y-156299500D03*
X257901000Y-152999500D03*
%TD*%
%TO.C,D41*%
X108000000Y-107000000D03*
X108000000Y-103700000D03*
%TD*%
D15*
%TO.C,SW53*%
X321316379Y-175724405D03*
X312465748Y-168074149D03*
%TD*%
D10*
%TO.C,SW46*%
X103645002Y-115250000D03*
X92155002Y-113050000D03*
%TD*%
%TO.C,SW18*%
X253446000Y-113499500D03*
X241956000Y-111299500D03*
%TD*%
D14*
%TO.C,D20*%
X239901000Y-157999500D03*
X239901000Y-154699500D03*
%TD*%
D10*
%TO.C,SW40*%
X307446000Y-149249500D03*
X295956000Y-147049500D03*
%TD*%
D14*
%TO.C,D37*%
X293901000Y-108749500D03*
X293901000Y-105449500D03*
%TD*%
%TO.C,D39*%
X293901000Y-142749500D03*
X293901000Y-139449500D03*
%TD*%
D10*
%TO.C,SW44*%
X121645000Y-147500000D03*
X110155000Y-145300000D03*
%TD*%
%TO.C,SW38*%
X307446000Y-115249500D03*
X295956000Y-113049500D03*
%TD*%
D14*
%TO.C,D16*%
X162000000Y-161400000D03*
X162000000Y-158100000D03*
%TD*%
%TO.C,D44*%
X108000000Y-158000000D03*
X108000000Y-154700000D03*
%TD*%
D16*
%TO.C,SW60*%
X79064379Y-152756472D03*
X68013748Y-156596216D03*
%TD*%
D14*
%TO.C,D21*%
X257901000Y-105299500D03*
X257901000Y-101999500D03*
%TD*%
D10*
%TO.C,SW58*%
X112646000Y-167900000D03*
X101156000Y-165700000D03*
%TD*%
%TO.C,SW11*%
X235446000Y-133899500D03*
X223956000Y-131699500D03*
%TD*%
D14*
%TO.C,D4*%
X162000000Y-110400000D03*
X162000000Y-107100000D03*
%TD*%
%TO.C,D14*%
X180000000Y-161400000D03*
X180000000Y-158100000D03*
%TD*%
D10*
%TO.C,SW42*%
X121645000Y-113500000D03*
X110155000Y-111300000D03*
%TD*%
%TO.C,SW41*%
X121645000Y-96500000D03*
X110155000Y-94300000D03*
%TD*%
%TO.C,SW51*%
X280434141Y-166199500D03*
X268944141Y-163999500D03*
%TD*%
%TO.C,SW43*%
X121645000Y-130500000D03*
X110155000Y-128300000D03*
%TD*%
D14*
%TO.C,D32*%
X126000002Y-154650000D03*
X126000002Y-151350000D03*
%TD*%
%TO.C,D29*%
X126000000Y-105300000D03*
X126000000Y-102000000D03*
%TD*%
%TO.C,D3*%
X221901000Y-110399500D03*
X221901000Y-107099500D03*
%TD*%
D10*
%TO.C,SW1*%
X217446000Y-99899500D03*
X205956000Y-97699500D03*
%TD*%
%TO.C,SW29*%
X139645000Y-94800000D03*
X128155000Y-92600000D03*
%TD*%
D14*
%TO.C,D52*%
X284889141Y-178399500D03*
X284889141Y-175099500D03*
%TD*%
D10*
%TO.C,SW19*%
X253446000Y-130499500D03*
X241956000Y-128299500D03*
%TD*%
%TO.C,SW21*%
X271445000Y-94798500D03*
X259955000Y-92598500D03*
%TD*%
D14*
%TO.C,D35*%
X275901000Y-140999500D03*
X275901000Y-137699500D03*
%TD*%
D16*
%TO.C,SW59*%
X87564379Y-167478905D03*
X76513748Y-171318649D03*
%TD*%
D14*
%TO.C,D27*%
X144000000Y-141000000D03*
X144000000Y-137700000D03*
%TD*%
%TO.C,D47*%
X90000002Y-142750000D03*
X90000002Y-139450000D03*
%TD*%
D10*
%TO.C,SW12*%
X235446000Y-150899500D03*
X223956000Y-148699500D03*
%TD*%
%TO.C,SW57*%
X130646000Y-166200000D03*
X119156000Y-164000000D03*
%TD*%
%TO.C,SW45*%
X103645002Y-98250000D03*
X92155002Y-96050000D03*
%TD*%
D14*
%TO.C,D30*%
X126000000Y-122300000D03*
X126000000Y-119000000D03*
%TD*%
%TO.C,D31*%
X126000000Y-139300000D03*
X126000000Y-136000000D03*
%TD*%
D10*
%TO.C,SW33*%
X289446000Y-96499500D03*
X277956000Y-94299500D03*
%TD*%
%TO.C,SW34*%
X289446000Y-113499500D03*
X277956000Y-111299500D03*
%TD*%
D14*
%TO.C,D38*%
X293901000Y-125749500D03*
X293901000Y-122449500D03*
%TD*%
D10*
%TO.C,SW39*%
X307446000Y-132249500D03*
X295956000Y-130049500D03*
%TD*%
D14*
%TO.C,D51*%
X266889141Y-176699500D03*
X266889141Y-173399500D03*
%TD*%
%TO.C,D23*%
X257901000Y-139299500D03*
X257901000Y-135999500D03*
%TD*%
%TO.C,D33*%
X275901000Y-106999500D03*
X275901000Y-103699500D03*
%TD*%
D10*
%TO.C,SW37*%
X307446000Y-98249500D03*
X295956000Y-96049500D03*
%TD*%
D14*
%TO.C,D7*%
X180000000Y-127400000D03*
X180000000Y-124100000D03*
%TD*%
%TO.C,D22*%
X257901000Y-122299500D03*
X257901000Y-118999500D03*
%TD*%
D10*
%TO.C,SW16*%
X175645000Y-150900000D03*
X164155000Y-148700000D03*
%TD*%
D14*
%TO.C,D46*%
X90000002Y-125750000D03*
X90000002Y-122450000D03*
%TD*%
%TO.C,D34*%
X275901000Y-123999500D03*
X275901000Y-120699500D03*
%TD*%
%TO.C,D10*%
X203901000Y-161399500D03*
X203901000Y-158099500D03*
%TD*%
%TO.C,D8*%
X162000000Y-127400000D03*
X162000000Y-124100000D03*
%TD*%
D11*
%TO.C,U2*%
X84270000Y-130080000D03*
X84270000Y-132620000D03*
X84270000Y-135160000D03*
X84270000Y-137700000D03*
X84270000Y-140240000D03*
X84270000Y-142780000D03*
X84270000Y-145320000D03*
X68105000Y-145320000D03*
X68105000Y-142780000D03*
X68105000Y-140240000D03*
X68105000Y-137700000D03*
X68105000Y-135160000D03*
X68105000Y-132620000D03*
X68105000Y-130080000D03*
D12*
X72405000Y-146936900D03*
X70500000Y-146936900D03*
D13*
X77485000Y-129131500D03*
X74945000Y-129131500D03*
X77485000Y-131671500D03*
X74945000Y-131671500D03*
%TD*%
D14*
%TO.C,D26*%
X144000000Y-124000000D03*
X144000000Y-120700000D03*
%TD*%
%TO.C,D11*%
X221901000Y-144399500D03*
X221901000Y-141099500D03*
%TD*%
D10*
%TO.C,SW6*%
X235446000Y-116899500D03*
X223956000Y-114699500D03*
%TD*%
%TO.C,SW4*%
X175645000Y-99900000D03*
X164155000Y-97700000D03*
%TD*%
D14*
%TO.C,D13*%
X180000000Y-144400000D03*
X180000000Y-141100000D03*
%TD*%
D10*
%TO.C,SW8*%
X175645000Y-116900000D03*
X164155000Y-114700000D03*
%TD*%
D14*
%TO.C,D28*%
X144000000Y-158000000D03*
X144000000Y-154700000D03*
%TD*%
D10*
%TO.C,SW48*%
X103645002Y-149250000D03*
X92155002Y-147050000D03*
%TD*%
D14*
%TO.C,D15*%
X162000000Y-144400000D03*
X162000000Y-141100000D03*
%TD*%
%TO.C,D25*%
X144000000Y-107000000D03*
X144000000Y-103700000D03*
%TD*%
D17*
%TO.C,D59*%
X80997463Y-183394672D03*
X79347463Y-180536788D03*
%TD*%
%TO.C,D60*%
X72497464Y-168672239D03*
X70847464Y-165814355D03*
%TD*%
D10*
%TO.C,SW9*%
X217446000Y-133899500D03*
X205956000Y-131699500D03*
%TD*%
%TO.C,SW47*%
X103645002Y-132250000D03*
X92155002Y-130050000D03*
%TD*%
D14*
%TO.C,D17*%
X239901000Y-106999500D03*
X239901000Y-103699500D03*
%TD*%
D10*
%TO.C,SW24*%
X271446000Y-145799500D03*
X259956000Y-143599500D03*
%TD*%
D14*
%TO.C,D18*%
X239901000Y-123999500D03*
X239901000Y-120699500D03*
%TD*%
%TO.C,D48*%
X90000002Y-159750000D03*
X90000002Y-156450000D03*
%TD*%
D10*
%TO.C,SW31*%
X139645000Y-128800000D03*
X128155000Y-126600000D03*
%TD*%
%TO.C,SW5*%
X217446000Y-116899500D03*
X205956000Y-114699500D03*
%TD*%
%TO.C,SW22*%
X271446000Y-111799500D03*
X259956000Y-109599500D03*
%TD*%
D14*
%TO.C,D45*%
X90000002Y-108750000D03*
X90000002Y-105450000D03*
%TD*%
D10*
%TO.C,SW35*%
X289446000Y-130499500D03*
X277956000Y-128299500D03*
%TD*%
%TO.C,SW30*%
X139645000Y-111800000D03*
X128155000Y-109600000D03*
%TD*%
%TO.C,SW32*%
X139645000Y-145800000D03*
X128155000Y-143600000D03*
%TD*%
%TO.C,SW13*%
X193645000Y-133900000D03*
X182155000Y-131700000D03*
%TD*%
D14*
%TO.C,D43*%
X108000000Y-141000000D03*
X108000000Y-137700000D03*
%TD*%
D10*
%TO.C,SW26*%
X157645000Y-113500000D03*
X146155000Y-111300000D03*
%TD*%
D15*
%TO.C,SW54*%
X329816378Y-161001973D03*
X320965747Y-153351717D03*
%TD*%
D14*
%TO.C,D1*%
X203901000Y-110399500D03*
X203901000Y-107099500D03*
%TD*%
D10*
%TO.C,SW36*%
X289446000Y-147499500D03*
X277956000Y-145299500D03*
%TD*%
%TO.C,SW2*%
X193645000Y-99900000D03*
X182155000Y-97700000D03*
%TD*%
D14*
%TO.C,D5*%
X203901000Y-127399500D03*
X203901000Y-124099500D03*
%TD*%
%TO.C,D40*%
X293901000Y-159749500D03*
X293901000Y-156449500D03*
%TD*%
D10*
%TO.C,SW3*%
X235446000Y-99899500D03*
X223956000Y-97699500D03*
%TD*%
D14*
%TO.C,D6*%
X221901000Y-127399500D03*
X221901000Y-124099500D03*
%TD*%
%TO.C,D36*%
X275901000Y-157999500D03*
X275901000Y-154699500D03*
%TD*%
D10*
%TO.C,SW28*%
X157645000Y-147500000D03*
X146155000Y-145300000D03*
%TD*%
D14*
%TO.C,D9*%
X203901000Y-144399500D03*
X203901000Y-141099500D03*
%TD*%
D10*
%TO.C,SW7*%
X193645000Y-116900000D03*
X182155000Y-114700000D03*
%TD*%
D18*
%TO.C,D53*%
X304336066Y-178045173D03*
X305986066Y-175187289D03*
%TD*%
D10*
%TO.C,SW52*%
X298434141Y-167899500D03*
X286944141Y-165699500D03*
%TD*%
D14*
%TO.C,D12*%
X221901000Y-161399500D03*
X221901000Y-158099500D03*
%TD*%
%TO.C,D42*%
X108000000Y-124000000D03*
X108000000Y-120700000D03*
%TD*%
%TO.C,D19*%
X239901000Y-140999500D03*
X239901000Y-137699500D03*
%TD*%
%TO.C,D2*%
X180000000Y-110400000D03*
X180000000Y-107100000D03*
%TD*%
%TO.C,D58*%
X99001000Y-178400000D03*
X99001000Y-175100000D03*
%TD*%
D10*
%TO.C,SW10*%
X217446000Y-150899500D03*
X205956000Y-148699500D03*
%TD*%
%TO.C,SW14*%
X193645000Y-150900000D03*
X182155000Y-148700000D03*
%TD*%
%TO.C,SW20*%
X253446000Y-147499500D03*
X241956000Y-145299500D03*
%TD*%
D18*
%TO.C,D54*%
X312836066Y-163322740D03*
X314486066Y-160464856D03*
%TD*%
D10*
%TO.C,SW23*%
X271446000Y-128799500D03*
X259956000Y-126599500D03*
%TD*%
M02*
