%TF.GenerationSoftware,KiCad,Pcbnew,9.0.6*%
%TF.CreationDate,2025-12-05T23:49:30-05:00*%
%TF.ProjectId,VoyagerSplitKicad,566f7961-6765-4725-9370-6c69744b6963,rev?*%
%TF.SameCoordinates,Original*%
%TF.FileFunction,Paste,Top*%
%TF.FilePolarity,Positive*%
%FSLAX46Y46*%
G04 Gerber Fmt 4.6, Leading zero omitted, Abs format (unit mm)*
G04 Created by KiCad (PCBNEW 9.0.6) date 2025-12-05 23:49:30*
%MOMM*%
%LPD*%
G01*
G04 APERTURE LIST*
G04 Aperture macros list*
%AMRoundRect*
0 Rectangle with rounded corners*
0 $1 Rounding radius*
0 $2 $3 $4 $5 $6 $7 $8 $9 X,Y pos of 4 corners*
0 Add a 4 corners polygon primitive as box body*
4,1,4,$2,$3,$4,$5,$6,$7,$8,$9,$2,$3,0*
0 Add four circle primitives for the rounded corners*
1,1,$1+$1,$2,$3*
1,1,$1+$1,$4,$5*
1,1,$1+$1,$6,$7*
1,1,$1+$1,$8,$9*
0 Add four rect primitives between the rounded corners*
20,1,$1+$1,$2,$3,$4,$5,0*
20,1,$1+$1,$4,$5,$6,$7,0*
20,1,$1+$1,$6,$7,$8,$9,0*
20,1,$1+$1,$8,$9,$2,$3,0*%
G04 Aperture macros list end*
%ADD10RoundRect,0.500000X-0.875000X-0.500000X0.875000X-0.500000X0.875000X0.500000X-0.875000X0.500000X0*%
%ADD11RoundRect,0.275000X-0.275000X0.975000X-0.275000X-0.975000X0.275000X-0.975000X0.275000X0.975000X0*%
%ADD12C,1.700000*%
G04 APERTURE END LIST*
D10*
%TO.C,U1*%
X310676500Y-130041300D03*
X310676500Y-132581300D03*
X310676500Y-135121300D03*
X310676500Y-137661300D03*
X310676500Y-140201300D03*
X310676500Y-142741300D03*
X310676500Y-145281300D03*
X326841500Y-145281300D03*
X326841500Y-142741300D03*
X326841500Y-140201300D03*
X326841500Y-137661300D03*
X326841500Y-135121300D03*
X326841500Y-132581300D03*
X326841500Y-130041300D03*
D11*
X322541500Y-146898200D03*
X324446500Y-146898200D03*
D12*
X317461500Y-129092800D03*
X320001500Y-129092800D03*
X317461500Y-131632800D03*
X320001500Y-131632800D03*
%TD*%
D10*
%TO.C,U2*%
X68050000Y-130080000D03*
X68050000Y-132620000D03*
X68050000Y-135160000D03*
X68050000Y-137700000D03*
X68050000Y-140240000D03*
X68050000Y-142780000D03*
X68050000Y-145320000D03*
X84215000Y-145320000D03*
X84215000Y-142780000D03*
X84215000Y-140240000D03*
X84215000Y-137700000D03*
X84215000Y-135160000D03*
X84215000Y-132620000D03*
X84215000Y-130080000D03*
D11*
X79915000Y-146936900D03*
X81820000Y-146936900D03*
D12*
X74835000Y-129131500D03*
X77375000Y-129131500D03*
X74835000Y-131671500D03*
X77375000Y-131671500D03*
%TD*%
M02*
