%TF.GenerationSoftware,KiCad,Pcbnew,9.0.6*%
%TF.CreationDate,2025-12-04T21:19:31-05:00*%
%TF.ProjectId,VoyagerSplitKicad,566f7961-6765-4725-9370-6c69744b6963,rev?*%
%TF.SameCoordinates,Original*%
%TF.FileFunction,Copper,L1,Top*%
%TF.FilePolarity,Positive*%
%FSLAX46Y46*%
G04 Gerber Fmt 4.6, Leading zero omitted, Abs format (unit mm)*
G04 Created by KiCad (PCBNEW 9.0.6) date 2025-12-04 21:19:31*
%MOMM*%
%LPD*%
G01*
G04 APERTURE LIST*
G04 Aperture macros list*
%AMRoundRect*
0 Rectangle with rounded corners*
0 $1 Rounding radius*
0 $2 $3 $4 $5 $6 $7 $8 $9 X,Y pos of 4 corners*
0 Add a 4 corners polygon primitive as box body*
4,1,4,$2,$3,$4,$5,$6,$7,$8,$9,$2,$3,0*
0 Add four circle primitives for the rounded corners*
1,1,$1+$1,$2,$3*
1,1,$1+$1,$4,$5*
1,1,$1+$1,$6,$7*
1,1,$1+$1,$8,$9*
0 Add four rect primitives between the rounded corners*
20,1,$1+$1,$2,$3,$4,$5,0*
20,1,$1+$1,$4,$5,$6,$7,0*
20,1,$1+$1,$6,$7,$8,$9,0*
20,1,$1+$1,$8,$9,$2,$3,0*%
G04 Aperture macros list end*
%TA.AperFunction,ComponentPad*%
%ADD10C,3.300000*%
%TD*%
%TA.AperFunction,SMDPad,CuDef*%
%ADD11RoundRect,0.500000X-0.875000X-0.500000X0.875000X-0.500000X0.875000X0.500000X-0.875000X0.500000X0*%
%TD*%
%TA.AperFunction,ComponentPad*%
%ADD12RoundRect,0.750000X0.750000X0.750000X-0.750000X0.750000X-0.750000X-0.750000X0.750000X-0.750000X0*%
%TD*%
%TA.AperFunction,SMDPad,CuDef*%
%ADD13RoundRect,0.275000X-0.275000X0.975000X-0.275000X-0.975000X0.275000X-0.975000X0.275000X0.975000X0*%
%TD*%
%TA.AperFunction,SMDPad,CuDef*%
%ADD14C,1.700000*%
%TD*%
%TA.AperFunction,ViaPad*%
%ADD15C,0.600000*%
%TD*%
%TA.AperFunction,Conductor*%
%ADD16C,0.200000*%
%TD*%
G04 APERTURE END LIST*
D10*
%TO.P,SW27,1,1*%
%TO.N,/right/COL2*%
X154400000Y-130500000D03*
%TO.P,SW27,2,2*%
%TO.N,Net-(D27-A)*%
X149400000Y-128300000D03*
%TD*%
D11*
%TO.P,U1,1,P0.02_A0_D0*%
%TO.N,/left/COL0*%
X310676500Y-130041300D03*
%TO.P,U1,2,P0.03_A1_D1*%
%TO.N,/left/COL1*%
X310676500Y-132581300D03*
%TO.P,U1,3,P0.28_A2_D2*%
%TO.N,/left/COL2*%
X310676500Y-135121300D03*
%TO.P,U1,4,P0.29_A3_D3*%
%TO.N,/left/COL3*%
X310676500Y-137661300D03*
%TO.P,U1,5,P0.04_A4_D4_SDA*%
%TO.N,/left/COL4*%
X310676500Y-140201300D03*
%TO.P,U1,6,P0.05_A5_D5_SCL*%
%TO.N,/left/COL5*%
X310676500Y-142741300D03*
%TO.P,U1,7,P1.11_D6_TX*%
%TO.N,/left/ROW4*%
X310676500Y-145281300D03*
%TO.P,U1,8,P1.12_D7_RX*%
%TO.N,/left/ROW3*%
X326841500Y-145281300D03*
%TO.P,U1,9,P1.13_D8_SCK*%
%TO.N,/left/ROW2*%
X326841500Y-142741300D03*
%TO.P,U1,10,P1.14_D9_MISO*%
%TO.N,/left/ROW1*%
X326841500Y-140201300D03*
%TO.P,U1,11,P1.15_D10_MOSI*%
%TO.N,/left/ROW0*%
X326841500Y-137661300D03*
%TO.P,U1,12,3V3*%
%TO.N,unconnected-(U1-3V3-Pad12)*%
X326841500Y-135121300D03*
%TO.P,U1,13,GND*%
%TO.N,GND*%
X326841500Y-132581300D03*
%TO.P,U1,14,5V*%
%TO.N,unconnected-(U1-5V-Pad14)*%
X326841500Y-130041300D03*
D12*
%TO.P,U1,15,BAT*%
%TO.N,/left/VBAT*%
X314286500Y-138061300D03*
%TO.P,U1,16,GND*%
%TO.N,GND*%
X314286500Y-134661300D03*
D13*
%TO.P,U1,17,NFC1*%
%TO.N,unconnected-(U1-NFC1-Pad17)*%
X322541500Y-146898200D03*
%TO.P,U1,18,NFC2*%
%TO.N,unconnected-(U1-NFC2-Pad18)*%
X324446500Y-146898200D03*
D14*
%TO.P,U1,19,PA31_SWDIO*%
%TO.N,unconnected-(U1-PA31_SWDIO-Pad19)*%
X317461500Y-129092800D03*
%TO.P,U1,20,PA30_SWCLK*%
%TO.N,unconnected-(U1-PA30_SWCLK-Pad20)*%
X320001500Y-129092800D03*
%TO.P,U1,21,RESET*%
%TO.N,unconnected-(U1-RESET-Pad21)*%
X317461500Y-131632800D03*
%TO.P,U1,22,GND*%
%TO.N,unconnected-(U1-GND-Pad22)*%
X320001500Y-131632800D03*
%TD*%
D10*
%TO.P,SW17,1,1*%
%TO.N,/left/COL2*%
X250201000Y-96499500D03*
%TO.P,SW17,2,2*%
%TO.N,Net-(D17-A)*%
X245201000Y-94299500D03*
%TD*%
%TO.P,SW15,1,1*%
%TO.N,/right/COL1*%
X172400000Y-133900000D03*
%TO.P,SW15,2,2*%
%TO.N,Net-(D15-A)*%
X167400000Y-131700000D03*
%TD*%
%TO.P,SW25,1,1*%
%TO.N,/right/COL2*%
X154400000Y-96500000D03*
%TO.P,SW25,2,2*%
%TO.N,Net-(D25-A)*%
X149400000Y-94300000D03*
%TD*%
%TO.P,SW53,1,1*%
%TO.N,/left/COL4*%
X318506127Y-174101905D03*
%TO.P,SW53,2,2*%
%TO.N,Net-(D53-A)*%
X315276000Y-169696649D03*
%TD*%
%TO.P,SW46,1,1*%
%TO.N,/right/COL5*%
X100400002Y-115250000D03*
%TO.P,SW46,2,2*%
%TO.N,Net-(D46-A)*%
X95400002Y-113050000D03*
%TD*%
%TO.P,SW18,1,1*%
%TO.N,/left/COL2*%
X250201000Y-113499500D03*
%TO.P,SW18,2,2*%
%TO.N,Net-(D18-A)*%
X245201000Y-111299500D03*
%TD*%
%TO.P,SW40,1,1*%
%TO.N,/left/COL5*%
X304201000Y-149249500D03*
%TO.P,SW40,2,2*%
%TO.N,Net-(D40-A)*%
X299201000Y-147049500D03*
%TD*%
%TO.P,SW44,1,1*%
%TO.N,/right/COL4*%
X118400000Y-147500000D03*
%TO.P,SW44,2,2*%
%TO.N,Net-(D44-A)*%
X113400000Y-145300000D03*
%TD*%
%TO.P,SW38,1,1*%
%TO.N,/left/COL5*%
X304201000Y-115249500D03*
%TO.P,SW38,2,2*%
%TO.N,Net-(D38-A)*%
X299201000Y-113049500D03*
%TD*%
%TO.P,SW60,1,1*%
%TO.N,/right/COL5*%
X76254127Y-154378972D03*
%TO.P,SW60,2,2*%
%TO.N,Net-(D60-A)*%
X70824000Y-154973716D03*
%TD*%
%TO.P,SW58,1,1*%
%TO.N,/right/COL3*%
X109401000Y-167900000D03*
%TO.P,SW58,2,2*%
%TO.N,Net-(D58-A)*%
X104401000Y-165700000D03*
%TD*%
%TO.P,SW11,1,1*%
%TO.N,/left/COL1*%
X232201000Y-133899500D03*
%TO.P,SW11,2,2*%
%TO.N,Net-(D11-A)*%
X227201000Y-131699500D03*
%TD*%
%TO.P,SW42,1,1*%
%TO.N,/right/COL4*%
X118400000Y-113500000D03*
%TO.P,SW42,2,2*%
%TO.N,Net-(D42-A)*%
X113400000Y-111300000D03*
%TD*%
%TO.P,SW41,1,1*%
%TO.N,/right/COL4*%
X118400000Y-96500000D03*
%TO.P,SW41,2,2*%
%TO.N,Net-(D41-A)*%
X113400000Y-94300000D03*
%TD*%
%TO.P,SW51,1,1*%
%TO.N,/left/COL2*%
X277189141Y-166199500D03*
%TO.P,SW51,2,2*%
%TO.N,Net-(D51-A)*%
X272189141Y-163999500D03*
%TD*%
%TO.P,SW43,1,1*%
%TO.N,/right/COL4*%
X118400000Y-130500000D03*
%TO.P,SW43,2,2*%
%TO.N,Net-(D43-A)*%
X113400000Y-128300000D03*
%TD*%
%TO.P,SW1,1,1*%
%TO.N,/left/COL0*%
X214201000Y-99899500D03*
%TO.P,SW1,2,2*%
%TO.N,Net-(D1-A)*%
X209201000Y-97699500D03*
%TD*%
%TO.P,SW29,1,1*%
%TO.N,/right/COL3*%
X136400000Y-94800000D03*
%TO.P,SW29,2,2*%
%TO.N,Net-(D29-A)*%
X131400000Y-92600000D03*
%TD*%
%TO.P,SW19,1,1*%
%TO.N,/left/COL2*%
X250201000Y-130499500D03*
%TO.P,SW19,2,2*%
%TO.N,Net-(D19-A)*%
X245201000Y-128299500D03*
%TD*%
%TO.P,SW21,1,1*%
%TO.N,/left/COL3*%
X268200000Y-94798500D03*
%TO.P,SW21,2,2*%
%TO.N,Net-(D21-A)*%
X263200000Y-92598500D03*
%TD*%
%TO.P,SW59,1,1*%
%TO.N,/right/COL4*%
X84754127Y-169101405D03*
%TO.P,SW59,2,2*%
%TO.N,Net-(D59-A)*%
X79324000Y-169696149D03*
%TD*%
%TO.P,SW12,1,1*%
%TO.N,/left/COL1*%
X232201000Y-150899500D03*
%TO.P,SW12,2,2*%
%TO.N,Net-(D12-A)*%
X227201000Y-148699500D03*
%TD*%
%TO.P,SW57,1,1*%
%TO.N,/right/COL2*%
X127401000Y-166200000D03*
%TO.P,SW57,2,2*%
%TO.N,Net-(D57-A)*%
X122401000Y-164000000D03*
%TD*%
%TO.P,SW45,1,1*%
%TO.N,/right/COL5*%
X100400002Y-98250000D03*
%TO.P,SW45,2,2*%
%TO.N,Net-(D45-A)*%
X95400002Y-96050000D03*
%TD*%
%TO.P,SW33,1,1*%
%TO.N,/left/COL4*%
X286201000Y-96499500D03*
%TO.P,SW33,2,2*%
%TO.N,Net-(D33-A)*%
X281201000Y-94299500D03*
%TD*%
%TO.P,SW34,1,1*%
%TO.N,/left/COL4*%
X286201000Y-113499500D03*
%TO.P,SW34,2,2*%
%TO.N,Net-(D34-A)*%
X281201000Y-111299500D03*
%TD*%
%TO.P,SW39,1,1*%
%TO.N,/left/COL5*%
X304201000Y-132249500D03*
%TO.P,SW39,2,2*%
%TO.N,Net-(D39-A)*%
X299201000Y-130049500D03*
%TD*%
%TO.P,SW37,1,1*%
%TO.N,/left/COL5*%
X304201000Y-98249500D03*
%TO.P,SW37,2,2*%
%TO.N,Net-(D37-A)*%
X299201000Y-96049500D03*
%TD*%
%TO.P,SW16,1,1*%
%TO.N,/right/COL1*%
X172400000Y-150900000D03*
%TO.P,SW16,2,2*%
%TO.N,Net-(D16-A)*%
X167400000Y-148700000D03*
%TD*%
D11*
%TO.P,U2,1,P0.02_A0_D0*%
%TO.N,/right/COL0*%
X68050000Y-130080000D03*
%TO.P,U2,2,P0.03_A1_D1*%
%TO.N,/right/COL1*%
X68050000Y-132620000D03*
%TO.P,U2,3,P0.28_A2_D2*%
%TO.N,/right/COL2*%
X68050000Y-135160000D03*
%TO.P,U2,4,P0.29_A3_D3*%
%TO.N,/right/COL3*%
X68050000Y-137700000D03*
%TO.P,U2,5,P0.04_A4_D4_SDA*%
%TO.N,/right/COL4*%
X68050000Y-140240000D03*
%TO.P,U2,6,P0.05_A5_D5_SCL*%
%TO.N,/right/COL5*%
X68050000Y-142780000D03*
%TO.P,U2,7,P1.11_D6_TX*%
%TO.N,/right/ROW4*%
X68050000Y-145320000D03*
%TO.P,U2,8,P1.12_D7_RX*%
%TO.N,/right/ROW3*%
X84215000Y-145320000D03*
%TO.P,U2,9,P1.13_D8_SCK*%
%TO.N,/right/ROW2*%
X84215000Y-142780000D03*
%TO.P,U2,10,P1.14_D9_MISO*%
%TO.N,/right/ROW1*%
X84215000Y-140240000D03*
%TO.P,U2,11,P1.15_D10_MOSI*%
%TO.N,/right/ROW0*%
X84215000Y-137700000D03*
%TO.P,U2,12,3V3*%
%TO.N,unconnected-(U2-3V3-Pad12)*%
X84215000Y-135160000D03*
%TO.P,U2,13,GND*%
%TO.N,GND*%
X84215000Y-132620000D03*
%TO.P,U2,14,5V*%
%TO.N,unconnected-(U2-5V-Pad14)*%
X84215000Y-130080000D03*
D12*
%TO.P,U2,15,BAT*%
%TO.N,/right/VBAT*%
X71660000Y-138100000D03*
%TO.P,U2,16,GND*%
%TO.N,GND*%
X71660000Y-134700000D03*
D13*
%TO.P,U2,17,NFC1*%
%TO.N,unconnected-(U2-NFC1-Pad17)*%
X79915000Y-146936900D03*
%TO.P,U2,18,NFC2*%
%TO.N,unconnected-(U2-NFC2-Pad18)*%
X81820000Y-146936900D03*
D14*
%TO.P,U2,19,PA31_SWDIO*%
%TO.N,unconnected-(U2-PA31_SWDIO-Pad19)*%
X74835000Y-129131500D03*
%TO.P,U2,20,PA30_SWCLK*%
%TO.N,unconnected-(U2-PA30_SWCLK-Pad20)*%
X77375000Y-129131500D03*
%TO.P,U2,21,RESET*%
%TO.N,unconnected-(U2-RESET-Pad21)*%
X74835000Y-131671500D03*
%TO.P,U2,22,GND*%
%TO.N,unconnected-(U2-GND-Pad22)*%
X77375000Y-131671500D03*
%TD*%
D10*
%TO.P,SW6,1,1*%
%TO.N,/left/COL1*%
X232201000Y-116899500D03*
%TO.P,SW6,2,2*%
%TO.N,Net-(D6-A)*%
X227201000Y-114699500D03*
%TD*%
%TO.P,SW4,1,1*%
%TO.N,/right/COL1*%
X172400000Y-99900000D03*
%TO.P,SW4,2,2*%
%TO.N,Net-(D4-A)*%
X167400000Y-97700000D03*
%TD*%
%TO.P,SW8,1,1*%
%TO.N,/right/COL1*%
X172400000Y-116900000D03*
%TO.P,SW8,2,2*%
%TO.N,Net-(D8-A)*%
X167400000Y-114700000D03*
%TD*%
%TO.P,SW48,1,1*%
%TO.N,/right/COL5*%
X100400002Y-149250000D03*
%TO.P,SW48,2,2*%
%TO.N,Net-(D48-A)*%
X95400002Y-147050000D03*
%TD*%
%TO.P,SW9,1,1*%
%TO.N,/left/COL0*%
X214201000Y-133899500D03*
%TO.P,SW9,2,2*%
%TO.N,Net-(D9-A)*%
X209201000Y-131699500D03*
%TD*%
%TO.P,SW47,1,1*%
%TO.N,/right/COL5*%
X100400002Y-132250000D03*
%TO.P,SW47,2,2*%
%TO.N,Net-(D47-A)*%
X95400002Y-130050000D03*
%TD*%
%TO.P,SW24,1,1*%
%TO.N,/left/COL3*%
X268201000Y-145799500D03*
%TO.P,SW24,2,2*%
%TO.N,Net-(D24-A)*%
X263201000Y-143599500D03*
%TD*%
%TO.P,SW31,1,1*%
%TO.N,/right/COL3*%
X136400000Y-128800000D03*
%TO.P,SW31,2,2*%
%TO.N,Net-(D31-A)*%
X131400000Y-126600000D03*
%TD*%
%TO.P,SW5,1,1*%
%TO.N,/left/COL0*%
X214201000Y-116899500D03*
%TO.P,SW5,2,2*%
%TO.N,Net-(D5-A)*%
X209201000Y-114699500D03*
%TD*%
%TO.P,SW22,1,1*%
%TO.N,/left/COL3*%
X268201000Y-111799500D03*
%TO.P,SW22,2,2*%
%TO.N,Net-(D22-A)*%
X263201000Y-109599500D03*
%TD*%
%TO.P,SW35,1,1*%
%TO.N,/left/COL4*%
X286201000Y-130499500D03*
%TO.P,SW35,2,2*%
%TO.N,Net-(D35-A)*%
X281201000Y-128299500D03*
%TD*%
%TO.P,SW30,1,1*%
%TO.N,/right/COL3*%
X136400000Y-111800000D03*
%TO.P,SW30,2,2*%
%TO.N,Net-(D30-A)*%
X131400000Y-109600000D03*
%TD*%
%TO.P,SW32,1,1*%
%TO.N,/right/COL3*%
X136400000Y-145800000D03*
%TO.P,SW32,2,2*%
%TO.N,Net-(D32-A)*%
X131400000Y-143600000D03*
%TD*%
%TO.P,SW13,1,1*%
%TO.N,/right/COL0*%
X190400000Y-133900000D03*
%TO.P,SW13,2,2*%
%TO.N,Net-(D13-A)*%
X185400000Y-131700000D03*
%TD*%
%TO.P,SW26,1,1*%
%TO.N,/right/COL2*%
X154400000Y-113500000D03*
%TO.P,SW26,2,2*%
%TO.N,Net-(D26-A)*%
X149400000Y-111300000D03*
%TD*%
%TO.P,SW54,1,1*%
%TO.N,/left/COL5*%
X327006126Y-159379473D03*
%TO.P,SW54,2,2*%
%TO.N,Net-(D54-A)*%
X323775999Y-154974217D03*
%TD*%
%TO.P,SW36,1,1*%
%TO.N,/left/COL4*%
X286201000Y-147499500D03*
%TO.P,SW36,2,2*%
%TO.N,Net-(D36-A)*%
X281201000Y-145299500D03*
%TD*%
%TO.P,SW2,1,1*%
%TO.N,/right/COL0*%
X190400000Y-99900000D03*
%TO.P,SW2,2,2*%
%TO.N,Net-(D2-A)*%
X185400000Y-97700000D03*
%TD*%
%TO.P,SW3,1,1*%
%TO.N,/left/COL1*%
X232201000Y-99899500D03*
%TO.P,SW3,2,2*%
%TO.N,Net-(D3-A)*%
X227201000Y-97699500D03*
%TD*%
%TO.P,SW28,1,1*%
%TO.N,/right/COL2*%
X154400000Y-147500000D03*
%TO.P,SW28,2,2*%
%TO.N,Net-(D28-A)*%
X149400000Y-145300000D03*
%TD*%
%TO.P,SW7,1,1*%
%TO.N,/right/COL0*%
X190400000Y-116900000D03*
%TO.P,SW7,2,2*%
%TO.N,Net-(D7-A)*%
X185400000Y-114700000D03*
%TD*%
%TO.P,SW52,1,1*%
%TO.N,/left/COL3*%
X295189141Y-167899500D03*
%TO.P,SW52,2,2*%
%TO.N,Net-(D52-A)*%
X290189141Y-165699500D03*
%TD*%
%TO.P,SW10,1,1*%
%TO.N,/left/COL0*%
X214201000Y-150899500D03*
%TO.P,SW10,2,2*%
%TO.N,Net-(D10-A)*%
X209201000Y-148699500D03*
%TD*%
%TO.P,SW14,1,1*%
%TO.N,/right/COL0*%
X190400000Y-150900000D03*
%TO.P,SW14,2,2*%
%TO.N,Net-(D14-A)*%
X185400000Y-148700000D03*
%TD*%
%TO.P,SW20,1,1*%
%TO.N,/left/COL2*%
X250201000Y-147499500D03*
%TO.P,SW20,2,2*%
%TO.N,Net-(D20-A)*%
X245201000Y-145299500D03*
%TD*%
%TO.P,SW23,1,1*%
%TO.N,/left/COL3*%
X268201000Y-128799500D03*
%TO.P,SW23,2,2*%
%TO.N,Net-(D23-A)*%
X263201000Y-126599500D03*
%TD*%
D15*
%TO.N,/right/ROW0*%
X103948998Y-107000000D03*
X102748998Y-107000000D03*
%TO.N,/right/ROW1*%
X103045002Y-125800000D03*
X104245002Y-125800000D03*
%TO.N,/right/ROW2*%
X176245000Y-144400000D03*
X175045000Y-144400000D03*
X158245000Y-144400000D03*
X157045000Y-144400000D03*
X140245002Y-141000000D03*
X139045002Y-141000000D03*
X122245002Y-139300000D03*
X121045002Y-139300000D03*
X104245004Y-141000000D03*
X103045004Y-141000000D03*
%TO.N,/right/ROW0*%
X86600000Y-137600000D03*
%TO.N,/right/ROW1*%
X86700000Y-140300000D03*
%TO.N,/right/ROW2*%
X86200000Y-142700000D03*
%TO.N,/right/ROW3*%
X86850000Y-147887900D03*
X86800000Y-149087900D03*
X88700000Y-159800000D03*
%TO.N,/right/ROW4*%
X66300000Y-146500000D03*
%TO.N,/left/COL4*%
X289400000Y-157399500D03*
%TO.N,/left/ROW0*%
X306846000Y-126651473D03*
%TO.N,GND*%
X324800000Y-132600000D03*
%TO.N,/left/ROW1*%
X306846000Y-127500000D03*
%TO.N,/left/ROW2*%
X303250000Y-144450000D03*
%TO.N,/left/ROW4*%
X309500000Y-146800000D03*
X308650015Y-155349985D03*
X307801485Y-156198515D03*
%TO.N,/left/ROW3*%
X308582648Y-159917852D03*
%TO.N,/left/COL5*%
X308700000Y-142800000D03*
%TO.N,/left/ROW0*%
X270846000Y-107049500D03*
X252846000Y-105449500D03*
X254046000Y-105449500D03*
X234846000Y-106949500D03*
X291852000Y-107049500D03*
X272046000Y-107049500D03*
X216150000Y-110349500D03*
X217401000Y-110349500D03*
X236046000Y-106949500D03*
X290652000Y-107049500D03*
%TO.N,/right/ROW0*%
X157045002Y-110400000D03*
X122245000Y-105300000D03*
X158245002Y-110400000D03*
X140245000Y-107000000D03*
X175548998Y-109600000D03*
X139045000Y-107000000D03*
X121045000Y-105300000D03*
X174348998Y-109600000D03*
%TO.N,/left/ROW1*%
X218046000Y-127349500D03*
X290046000Y-125749500D03*
X234846000Y-124149500D03*
X270846000Y-123949500D03*
X236046000Y-124149500D03*
X288846000Y-125749500D03*
X216846000Y-127349500D03*
X272046000Y-123949500D03*
X254046000Y-122449500D03*
X252846000Y-122449500D03*
%TO.N,/right/ROW1*%
X176245002Y-127400000D03*
X140245002Y-124000000D03*
X175045002Y-127400000D03*
X157045002Y-127400000D03*
X122245000Y-122300000D03*
X121045000Y-122300000D03*
X139045002Y-124000000D03*
X158245002Y-127400000D03*
%TO.N,/left/ROW2*%
X252846000Y-139349500D03*
X254046000Y-139349500D03*
X290046000Y-142749500D03*
X234846000Y-141049500D03*
X288846000Y-142749500D03*
X216846000Y-144349500D03*
X236046000Y-141049500D03*
X272046000Y-140949500D03*
X270846000Y-140949500D03*
X218046000Y-144349500D03*
%TO.N,/right/ROW3*%
X118048500Y-154648500D03*
X117199970Y-153799970D03*
X146324265Y-158924265D03*
X127975750Y-155775750D03*
X145475735Y-158075735D03*
X128900030Y-156700030D03*
%TO.N,/left/COL2*%
X253501000Y-156899500D03*
X253501000Y-155699500D03*
%TO.N,/left/COL3*%
X277401000Y-158599500D03*
X277301000Y-157399500D03*
%TD*%
D16*
%TO.N,/right/ROW0*%
X102748998Y-107000000D02*
X103948998Y-107000000D01*
%TO.N,/right/ROW1*%
X104245002Y-125800000D02*
X103045002Y-125800000D01*
%TO.N,/right/ROW2*%
X175045000Y-144400000D02*
X176245000Y-144400000D01*
X157045000Y-144400000D02*
X158245000Y-144400000D01*
X139045002Y-141000000D02*
X140245002Y-141000000D01*
X121045002Y-139300000D02*
X122245002Y-139300000D01*
X103045004Y-141000000D02*
X104245004Y-141000000D01*
%TO.N,GND*%
X82135000Y-134700000D02*
X84215000Y-132620000D01*
X71660000Y-134700000D02*
X82135000Y-134700000D01*
%TO.N,/right/COL3*%
X103841869Y-167900000D02*
X109401000Y-167900000D01*
X86399000Y-158348943D02*
X91949057Y-163899000D01*
X91949057Y-163899000D02*
X99840869Y-163899000D01*
X86399000Y-156049000D02*
X86399000Y-158348943D01*
X99840869Y-163899000D02*
X103841869Y-167900000D01*
X68050000Y-137700000D02*
X86399000Y-156049000D01*
%TO.N,/right/COL2*%
X150249448Y-130500000D02*
X154400000Y-130500000D01*
X144448448Y-136301000D02*
X150249448Y-130500000D01*
X108252530Y-136301000D02*
X144448448Y-136301000D01*
X106750530Y-134799000D02*
X108252530Y-136301000D01*
X98000532Y-134799000D02*
X106750530Y-134799000D01*
X97150532Y-133949000D02*
X98000532Y-134799000D01*
X95749000Y-133949000D02*
X97150532Y-133949000D01*
X90579000Y-128779000D02*
X95749000Y-133949000D01*
X83000942Y-128779000D02*
X90579000Y-128779000D01*
X78478942Y-133301000D02*
X83000942Y-128779000D01*
X74269640Y-133301000D02*
X78478942Y-133301000D01*
X73469640Y-132501000D02*
X74269640Y-133301000D01*
X70709000Y-132501000D02*
X73469640Y-132501000D01*
X68050000Y-135160000D02*
X70709000Y-132501000D01*
%TO.N,/right/COL1*%
X168249448Y-116900000D02*
X172400000Y-116900000D01*
X165848448Y-119301000D02*
X168249448Y-116900000D01*
X142894059Y-119301000D02*
X165848448Y-119301000D01*
X133644059Y-128551000D02*
X142894059Y-119301000D01*
X128200530Y-128551000D02*
X133644059Y-128551000D01*
X117591869Y-132451000D02*
X124300530Y-132451000D01*
X124300530Y-132451000D02*
X128200530Y-128551000D01*
X103199002Y-131308131D02*
X116449000Y-131308131D01*
X100890871Y-129000000D02*
X103199002Y-131308131D01*
X97889871Y-132001000D02*
X100890871Y-129000000D01*
X90691871Y-128101000D02*
X94591871Y-132001000D01*
X82599000Y-128101000D02*
X90691871Y-128101000D01*
X77800000Y-132900000D02*
X82599000Y-128101000D01*
X116449000Y-131308131D02*
X117591869Y-132451000D01*
X74435740Y-132900000D02*
X77800000Y-132900000D01*
X94591871Y-132001000D02*
X97889871Y-132001000D01*
X68570000Y-132100000D02*
X73635740Y-132100000D01*
X73635740Y-132100000D02*
X74435740Y-132900000D01*
X68050000Y-132620000D02*
X68570000Y-132100000D01*
%TO.N,/right/ROW0*%
X86500000Y-137700000D02*
X84215000Y-137700000D01*
X86600000Y-137600000D02*
X86500000Y-137700000D01*
%TO.N,/right/ROW1*%
X86640000Y-140240000D02*
X84215000Y-140240000D01*
X86700000Y-140300000D02*
X86640000Y-140240000D01*
%TO.N,/right/ROW2*%
X86200000Y-142700000D02*
X86120000Y-142780000D01*
X86120000Y-142780000D02*
X84215000Y-142780000D01*
%TO.N,/right/ROW3*%
X86701000Y-147887900D02*
X84215000Y-145401900D01*
X86850000Y-147887900D02*
X86701000Y-147887900D01*
X84215000Y-145401900D02*
X84215000Y-145320000D01*
X86800000Y-157900000D02*
X86800000Y-149087900D01*
X88700000Y-159800000D02*
X86800000Y-157900000D01*
%TO.N,/right/ROW4*%
X66300000Y-146500000D02*
X66870000Y-146500000D01*
X66870000Y-146500000D02*
X68050000Y-145320000D01*
%TO.N,/right/COL5*%
X76254127Y-150984127D02*
X76254127Y-154378972D01*
X68050000Y-142780000D02*
X76254127Y-150984127D01*
%TO.N,/right/COL4*%
X84754127Y-156944127D02*
X84754127Y-169101405D01*
X68050000Y-140240000D02*
X84754127Y-156944127D01*
%TO.N,/right/COL0*%
X186249448Y-99900000D02*
X190400000Y-99900000D01*
X180448448Y-105701000D02*
X186249448Y-99900000D01*
X159439869Y-105701000D02*
X180448448Y-105701000D01*
X151889869Y-113251000D02*
X159439869Y-105701000D01*
X141850530Y-117601000D02*
X146200530Y-113251000D01*
X121339869Y-117601000D02*
X141850530Y-117601000D01*
X80800000Y-127700000D02*
X111240869Y-127700000D01*
X78217500Y-130282500D02*
X80800000Y-127700000D01*
X146200530Y-113251000D02*
X151889869Y-113251000D01*
X68252500Y-130282500D02*
X78217500Y-130282500D01*
X68050000Y-130080000D02*
X68252500Y-130282500D01*
X111240869Y-127700000D02*
X121339869Y-117601000D01*
%TO.N,/left/COL4*%
X301750000Y-158929780D02*
X316922125Y-174101905D01*
X301750000Y-145100057D02*
X301750000Y-158929780D01*
X306648757Y-140201300D02*
X301750000Y-145100057D01*
X316922125Y-174101905D02*
X318506127Y-174101905D01*
X310676500Y-140201300D02*
X306648757Y-140201300D01*
%TO.N,/left/ROW2*%
X306201000Y-147401000D02*
X319966494Y-147401000D01*
X324626194Y-142741300D02*
X326841500Y-142741300D01*
X303250000Y-144450000D02*
X306201000Y-147401000D01*
X319966494Y-147401000D02*
X324626194Y-142741300D01*
%TO.N,/left/COL4*%
X313268720Y-170448500D02*
X316922125Y-174101905D01*
X294979010Y-170448500D02*
X313268720Y-170448500D01*
X293238141Y-168707631D02*
X294979010Y-170448500D01*
X293238141Y-161237641D02*
X293238141Y-168707631D01*
X289400000Y-157399500D02*
X293238141Y-161237641D01*
%TO.N,/left/ROW3*%
X323595500Y-147916406D02*
X323595500Y-145676994D01*
X323595500Y-145676994D02*
X323991194Y-145281300D01*
X323991194Y-145281300D02*
X326841500Y-145281300D01*
X308600000Y-159900500D02*
X311611406Y-159900500D01*
X308582648Y-159917852D02*
X308600000Y-159900500D01*
X311611406Y-159900500D02*
X323595500Y-147916406D01*
%TO.N,/left/COL0*%
X221149470Y-150899500D02*
X214201000Y-150899500D01*
X306594557Y-128098500D02*
X284161131Y-128098500D01*
X284161131Y-128098500D02*
X273511131Y-138748500D01*
X273511131Y-138748500D02*
X233300470Y-138748500D01*
X308537357Y-130041300D02*
X306594557Y-128098500D01*
X233300470Y-138748500D02*
X221149470Y-150899500D01*
X310676500Y-130041300D02*
X308537357Y-130041300D01*
%TO.N,/left/COL1*%
X242752000Y-140348500D02*
X232201000Y-150899500D01*
X282300470Y-140348500D02*
X242752000Y-140348500D01*
X288700470Y-133948500D02*
X282300470Y-140348500D01*
X300302552Y-134200500D02*
X300050552Y-133948500D01*
X309057300Y-134200500D02*
X300302552Y-134200500D01*
X300050552Y-133948500D02*
X288700470Y-133948500D01*
X310676500Y-132581300D02*
X309057300Y-134200500D01*
%TO.N,/left/COL2*%
X310676500Y-135121300D02*
X308267341Y-135121300D01*
X308267341Y-135121300D02*
X277189141Y-166199500D01*
%TO.N,/left/COL3*%
X301252000Y-161836641D02*
X295189141Y-167899500D01*
X301252000Y-144095527D02*
X301252000Y-161836641D01*
X307686227Y-137661300D02*
X301252000Y-144095527D01*
X310676500Y-137661300D02*
X307686227Y-137661300D01*
%TO.N,/left/ROW0*%
X325165500Y-135169040D02*
X325165500Y-135985300D01*
X320478260Y-130481800D02*
X325165500Y-135169040D01*
X317222740Y-130481800D02*
X320478260Y-130481800D01*
X315080240Y-128339300D02*
X317222740Y-130481800D01*
X308533827Y-128339300D02*
X315080240Y-128339300D01*
X306846000Y-126651473D02*
X308533827Y-128339300D01*
X325165500Y-135985300D02*
X326841500Y-137661300D01*
%TO.N,GND*%
X324818700Y-132581300D02*
X326841500Y-132581300D01*
X324800000Y-132600000D02*
X324818700Y-132581300D01*
%TO.N,/left/ROW1*%
X313440160Y-140201300D02*
X326841500Y-140201300D01*
X312485500Y-139246640D02*
X313440160Y-140201300D01*
X312485500Y-129196040D02*
X312485500Y-139246640D01*
X308086300Y-128740300D02*
X312029760Y-128740300D01*
X306846000Y-127500000D02*
X308086300Y-128740300D01*
X312029760Y-128740300D02*
X312485500Y-129196040D01*
%TO.N,/left/ROW4*%
X309500000Y-146457800D02*
X310676500Y-145281300D01*
X309500000Y-146800000D02*
X309500000Y-146457800D01*
X307801485Y-156198515D02*
X308650015Y-155349985D01*
%TO.N,/left/COL5*%
X308758700Y-142741300D02*
X310676500Y-142741300D01*
X308700000Y-142800000D02*
X308758700Y-142741300D01*
%TO.N,/left/ROW0*%
X234846000Y-106949500D02*
X236046000Y-106949500D01*
X290652000Y-107049500D02*
X291852000Y-107049500D01*
X270846000Y-107049500D02*
X272046000Y-107049500D01*
X217401000Y-110349500D02*
X216150000Y-110349500D01*
X252846000Y-105449500D02*
X254046000Y-105449500D01*
%TO.N,/right/ROW0*%
X157045002Y-110400000D02*
X158245002Y-110400000D01*
X139045000Y-107000000D02*
X140245000Y-107000000D01*
X121045000Y-105300000D02*
X122245000Y-105300000D01*
X174348998Y-109600000D02*
X175548998Y-109600000D01*
%TO.N,/left/ROW1*%
X252846000Y-122449500D02*
X254046000Y-122449500D01*
X234846000Y-124149500D02*
X236046000Y-124149500D01*
X216846000Y-127349500D02*
X218046000Y-127349500D01*
X288846000Y-125749500D02*
X290046000Y-125749500D01*
X270846000Y-123949500D02*
X272046000Y-123949500D01*
%TO.N,/right/ROW1*%
X139045002Y-124000000D02*
X140245002Y-124000000D01*
X176245002Y-127400000D02*
X175045002Y-127400000D01*
X121045000Y-122300000D02*
X122245000Y-122300000D01*
X157045002Y-127400000D02*
X158245002Y-127400000D01*
%TO.N,/left/ROW2*%
X288846000Y-142749500D02*
X290046000Y-142749500D01*
X252846000Y-139349500D02*
X254046000Y-139349500D01*
X216846000Y-144349500D02*
X218046000Y-144349500D01*
X270846000Y-140949500D02*
X272046000Y-140949500D01*
X234846000Y-141049500D02*
X236046000Y-141049500D01*
%TO.N,/right/ROW3*%
X127975750Y-155775750D02*
X128900030Y-156700030D01*
X145475735Y-158075735D02*
X146324265Y-158924265D01*
X117199970Y-153799970D02*
X118048500Y-154648500D01*
%TO.N,/left/COL2*%
X253501000Y-155699500D02*
X253501000Y-156899500D01*
%TO.N,/left/COL3*%
X277301000Y-157399500D02*
X277301000Y-158499500D01*
X277301000Y-158499500D02*
X277401000Y-158599500D01*
%TD*%
M02*
