M48
; DRILL file {KiCad 9.0.6} date 2025-12-04T21:19:36-0500
; FORMAT={-:-/ absolute / metric / decimal}
; #@! TF.CreationDate,2025-12-04T21:19:36-05:00
; #@! TF.GenerationSoftware,Kicad,Pcbnew,9.0.6
; #@! TF.FileFunction,NonPlated,1,2,NPTH
FMAT,2
METRIC
; #@! TA.AperFunction,NonPlated,NPTH,ComponentDrill
T1C0.500
; #@! TA.AperFunction,NonPlated,NPTH,ComponentDrill
T2C1.700
; #@! TA.AperFunction,NonPlated,NPTH,ComponentDrill
T3C2.200
; #@! TA.AperFunction,NonPlated,NPTH,ComponentDrill
T4C3.400
%
G90
G05
T1
X196.55Y-106.1
X196.55Y-106.95
X196.55Y-107.8
X196.55Y-108.65
X196.55Y-109.5
X196.55Y-110.35
X196.55Y-111.2
X196.55Y-128.2
X196.55Y-129.05
X196.55Y-129.9
X196.55Y-130.75
X196.55Y-131.6
X196.55Y-132.45
X196.55Y-133.3
X196.55Y-147.2
X196.55Y-148.05
X196.55Y-148.9
X196.55Y-149.75
X196.55Y-150.6
X196.55Y-151.45
X196.55Y-152.3
X198.05Y-106.1
X198.05Y-106.95
X198.05Y-107.8
X198.05Y-108.65
X198.05Y-109.5
X198.05Y-110.35
X198.05Y-111.2
X198.05Y-128.2
X198.05Y-129.05
X198.05Y-129.9
X198.05Y-130.75
X198.05Y-131.6
X198.05Y-132.45
X198.05Y-133.3
X198.05Y-147.2
X198.05Y-148.05
X198.05Y-148.9
X198.05Y-149.75
X198.05Y-150.6
X198.05Y-151.45
X198.05Y-152.3
T2
X69.036Y-162.877
X77.536Y-177.599
X78.562Y-157.377
X87.062Y-172.099
X89.9Y-102.0
X89.9Y-119.0
X89.9Y-136.0
X89.9Y-153.0
X98.901Y-171.65
X100.9Y-102.0
X100.9Y-119.0
X100.9Y-136.0
X100.9Y-153.0
X107.9Y-100.25
X107.9Y-117.25
X107.9Y-134.25
X107.9Y-151.25
X109.901Y-171.65
X116.901Y-169.95
X118.9Y-100.25
X118.9Y-117.25
X118.9Y-134.25
X118.9Y-151.25
X125.9Y-98.55
X125.9Y-115.55
X125.9Y-132.55
X125.9Y-149.55
X127.901Y-169.95
X136.9Y-98.55
X136.9Y-115.55
X136.9Y-132.55
X136.9Y-149.55
X143.9Y-100.25
X143.9Y-117.25
X143.9Y-134.25
X143.9Y-151.25
X154.9Y-100.25
X154.9Y-117.25
X154.9Y-134.25
X154.9Y-151.25
X161.9Y-103.65
X161.9Y-120.65
X161.9Y-137.65
X161.9Y-154.65
X172.9Y-103.65
X172.9Y-120.65
X172.9Y-137.65
X172.9Y-154.65
X179.9Y-103.65
X179.9Y-120.65
X179.9Y-137.65
X179.9Y-154.65
X190.9Y-103.65
X190.9Y-120.65
X190.9Y-137.65
X190.9Y-154.65
X203.701Y-103.649
X203.701Y-120.649
X203.701Y-137.649
X203.701Y-154.649
X214.701Y-103.649
X214.701Y-120.649
X214.701Y-137.649
X214.701Y-154.649
X221.701Y-103.649
X221.701Y-120.649
X221.701Y-137.649
X221.701Y-154.649
X232.701Y-103.649
X232.701Y-120.649
X232.701Y-137.649
X232.701Y-154.649
X239.701Y-100.249
X239.701Y-117.249
X239.701Y-134.249
X239.701Y-151.249
X250.701Y-100.249
X250.701Y-117.249
X250.701Y-134.249
X250.701Y-151.249
X257.7Y-98.548
X257.701Y-115.549
X257.701Y-132.549
X257.701Y-149.549
X266.689Y-169.95
X268.7Y-98.548
X268.701Y-115.549
X268.701Y-132.549
X268.701Y-149.549
X275.701Y-100.249
X275.701Y-117.249
X275.701Y-134.249
X275.701Y-151.249
X277.689Y-169.95
X284.689Y-171.649
X286.701Y-100.249
X286.701Y-117.249
X286.701Y-134.249
X286.701Y-151.249
X293.701Y-101.999
X293.701Y-118.999
X293.701Y-135.999
X293.701Y-152.999
X295.689Y-171.649
X304.701Y-101.999
X304.701Y-118.999
X304.701Y-135.999
X304.701Y-152.999
X307.538Y-172.1
X316.038Y-157.377
X317.064Y-177.6
X325.564Y-162.877
T3
X67.599Y-150.95
X91.399Y-165.35
X104.8Y-108.75
X126.399Y-159.649
X176.4Y-112.15
X218.201Y-112.149
X268.201Y-159.649
X289.801Y-108.749
X303.201Y-165.35
X327.001Y-150.95
T4
X73.799Y-160.127
X82.299Y-174.849
X95.4Y-102.0
X95.4Y-119.0
X95.4Y-136.0
X95.4Y-153.0
X104.401Y-171.65
X113.4Y-100.25
X113.4Y-117.25
X113.4Y-134.25
X113.4Y-151.25
X122.401Y-169.95
X131.4Y-98.55
X131.4Y-115.55
X131.4Y-132.55
X131.4Y-149.55
X149.4Y-100.25
X149.4Y-117.25
X149.4Y-134.25
X149.4Y-151.25
X167.4Y-103.65
X167.4Y-120.65
X167.4Y-137.65
X167.4Y-154.65
X185.4Y-103.65
X185.4Y-120.65
X185.4Y-137.65
X185.4Y-154.65
X209.201Y-103.649
X209.201Y-120.649
X209.201Y-137.649
X209.201Y-154.649
X227.201Y-103.649
X227.201Y-120.649
X227.201Y-137.649
X227.201Y-154.649
X245.201Y-100.249
X245.201Y-117.249
X245.201Y-134.249
X245.201Y-151.249
X263.2Y-98.548
X263.201Y-115.549
X263.201Y-132.549
X263.201Y-149.549
X272.189Y-169.95
X281.201Y-100.249
X281.201Y-117.249
X281.201Y-134.249
X281.201Y-151.249
X290.189Y-171.649
X299.201Y-101.999
X299.201Y-118.999
X299.201Y-135.999
X299.201Y-152.999
X312.301Y-174.85
X320.801Y-160.127
M30
