%TF.GenerationSoftware,KiCad,Pcbnew,9.0.6*%
%TF.CreationDate,2025-12-03T21:27:50-05:00*%
%TF.ProjectId,VoyagerSplitKicad,566f7961-6765-4725-9370-6c69744b6963,rev?*%
%TF.SameCoordinates,Original*%
%TF.FileFunction,Soldermask,Bot*%
%TF.FilePolarity,Negative*%
%FSLAX46Y46*%
G04 Gerber Fmt 4.6, Leading zero omitted, Abs format (unit mm)*
G04 Created by KiCad (PCBNEW 9.0.6) date 2025-12-03 21:27:50*
%MOMM*%
%LPD*%
G01*
G04 APERTURE LIST*
G04 Aperture macros list*
%AMRoundRect*
0 Rectangle with rounded corners*
0 $1 Rounding radius*
0 $2 $3 $4 $5 $6 $7 $8 $9 X,Y pos of 4 corners*
0 Add a 4 corners polygon primitive as box body*
4,1,4,$2,$3,$4,$5,$6,$7,$8,$9,$2,$3,0*
0 Add four circle primitives for the rounded corners*
1,1,$1+$1,$2,$3*
1,1,$1+$1,$4,$5*
1,1,$1+$1,$6,$7*
1,1,$1+$1,$8,$9*
0 Add four rect primitives between the rounded corners*
20,1,$1+$1,$2,$3,$4,$5,0*
20,1,$1+$1,$4,$5,$6,$7,0*
20,1,$1+$1,$6,$7,$8,$9,0*
20,1,$1+$1,$8,$9,$2,$3,0*%
G04 Aperture macros list end*
%ADD10C,2.200000*%
%ADD11C,0.500000*%
%ADD12C,1.700000*%
%ADD13C,3.400000*%
%ADD14C,3.300000*%
%ADD15RoundRect,0.260000X-1.065000X-1.040000X1.065000X-1.040000X1.065000X1.040000X-1.065000X1.040000X0*%
%ADD16RoundRect,0.525400X0.900400X0.525400X-0.900400X0.525400X-0.900400X-0.525400X0.900400X-0.525400X0*%
%ADD17RoundRect,0.775400X-0.775400X-0.775400X0.775400X-0.775400X0.775400X0.775400X-0.775400X0.775400X0*%
%ADD18RoundRect,0.300400X-0.300400X1.000400X-0.300400X-1.000400X0.300400X-1.000400X0.300400X1.000400X0*%
%ADD19RoundRect,0.225000X0.375000X-0.225000X0.375000X0.225000X-0.375000X0.225000X-0.375000X-0.225000X0*%
%ADD20C,2.000000*%
%ADD21RoundRect,0.260000X-1.442317X-0.368166X0.402317X-1.433166X1.442317X0.368166X-0.402317X1.433166X0*%
%ADD22RoundRect,0.260000X-0.402317X-1.433166X1.442317X-0.368166X0.402317X1.433166X-1.442317X0.368166X0*%
%ADD23RoundRect,0.225000X0.437260X-0.007356X0.212260X0.382356X-0.437260X0.007356X-0.212260X-0.382356X0*%
%ADD24RoundRect,0.225000X0.212260X-0.382356X0.437260X0.007356X-0.212260X0.382356X-0.437260X-0.007356X0*%
G04 APERTURE END LIST*
D10*
%TO.C,H8*%
X67599000Y-150950000D03*
%TD*%
%TO.C,H4*%
X176400000Y-112149998D03*
%TD*%
%TO.C,H6*%
X126398998Y-159649000D03*
%TD*%
%TO.C,H10*%
X91399000Y-165350000D03*
%TD*%
%TO.C,H2*%
X104799998Y-108750000D03*
%TD*%
%TO.C,H7*%
X327001000Y-150949500D03*
%TD*%
%TO.C,H1*%
X303201000Y-165349500D03*
%TD*%
%TO.C,H5*%
X289801000Y-108749500D03*
%TD*%
%TO.C,H9*%
X218201000Y-112149500D03*
%TD*%
%TO.C,H3*%
X268201000Y-159649500D03*
%TD*%
D11*
%TO.C,H12*%
X196550000Y-152300001D03*
X198050000Y-152300001D03*
X196550000Y-151450001D03*
X198050000Y-151450001D03*
X196550000Y-150600001D03*
X198050000Y-150600001D03*
X196550000Y-149750001D03*
X198050000Y-149750001D03*
X196550000Y-148900001D03*
X198050000Y-148900001D03*
X196550000Y-148050001D03*
X198050000Y-148050001D03*
X196550000Y-147200001D03*
X198050000Y-147200001D03*
%TD*%
%TO.C,H11*%
X196550000Y-133300002D03*
X198050000Y-133300002D03*
X196550000Y-132450002D03*
X198050000Y-132450002D03*
X196550000Y-131600002D03*
X198050000Y-131600002D03*
X196550000Y-130750002D03*
X198050000Y-130750002D03*
X196550000Y-129900002D03*
X198050000Y-129900002D03*
X196550000Y-129050002D03*
X198050000Y-129050002D03*
X196550000Y-128200002D03*
X198050000Y-128200002D03*
%TD*%
%TO.C,H13*%
X196549999Y-111199997D03*
X198049999Y-111199997D03*
X196549999Y-110349997D03*
X198049999Y-110349997D03*
X196549999Y-109499997D03*
X198049999Y-109499997D03*
X196549999Y-108649997D03*
X198049999Y-108649997D03*
X196549999Y-107799997D03*
X198049999Y-107799997D03*
X196549999Y-106949997D03*
X198049999Y-106949997D03*
X196549999Y-106099997D03*
X198049999Y-106099997D03*
%TD*%
D12*
%TO.C,SW27*%
X143900000Y-134250000D03*
D13*
X149400000Y-134250000D03*
D12*
X154900000Y-134250000D03*
D14*
X154400000Y-130500000D03*
D15*
X157645000Y-130500000D03*
X146155000Y-128300000D03*
D14*
X149400000Y-128300000D03*
%TD*%
D16*
%TO.C,U1*%
X326896500Y-130041300D03*
X326896500Y-132581300D03*
X326896500Y-135121300D03*
X326896500Y-137661300D03*
X326896500Y-140201300D03*
X326896500Y-142741300D03*
X326896500Y-145281300D03*
X310731500Y-145281300D03*
X310731500Y-142741300D03*
X310731500Y-140201300D03*
X310731500Y-137661300D03*
X310731500Y-135121300D03*
X310731500Y-132581300D03*
X310731500Y-130041300D03*
D17*
X323286500Y-138061300D03*
X323286500Y-134661300D03*
D18*
X315031500Y-146898200D03*
X313126500Y-146898200D03*
D12*
X320111500Y-129092800D03*
X317571500Y-129092800D03*
X320111500Y-131632800D03*
X317571500Y-131632800D03*
%TD*%
D19*
%TO.C,D57*%
X117001002Y-176750000D03*
X117001002Y-173450000D03*
%TD*%
D20*
%TO.C,TP4*%
X84600000Y-152000000D03*
%TD*%
D12*
%TO.C,SW17*%
X239701000Y-100249500D03*
D13*
X245201000Y-100249500D03*
D12*
X250701000Y-100249500D03*
D14*
X250201000Y-96499500D03*
D15*
X253446000Y-96499500D03*
X241956000Y-94299500D03*
D14*
X245201000Y-94299500D03*
%TD*%
D12*
%TO.C,SW15*%
X161900000Y-137650000D03*
D13*
X167400000Y-137650000D03*
D12*
X172900000Y-137650000D03*
D14*
X172400000Y-133900000D03*
D15*
X175645000Y-133900000D03*
X164155000Y-131700000D03*
D14*
X167400000Y-131700000D03*
%TD*%
D12*
%TO.C,SW25*%
X143900000Y-100250000D03*
D13*
X149400000Y-100250000D03*
D12*
X154900000Y-100250000D03*
D14*
X154400000Y-96500000D03*
D15*
X157645000Y-96500000D03*
X146155000Y-94300000D03*
D14*
X149400000Y-94300000D03*
%TD*%
D19*
%TO.C,D24*%
X257901000Y-156299500D03*
X257901000Y-152999500D03*
%TD*%
%TO.C,D41*%
X108000000Y-107000000D03*
X108000000Y-103700000D03*
%TD*%
D12*
%TO.C,SW53*%
X307537860Y-172099500D03*
D13*
X312301000Y-174849500D03*
D12*
X317064140Y-177599500D03*
D14*
X318506127Y-174101905D03*
D21*
X321316379Y-175724405D03*
X312465748Y-168074149D03*
D14*
X315276000Y-169696649D03*
%TD*%
D12*
%TO.C,SW46*%
X89900002Y-119000000D03*
D13*
X95400002Y-119000000D03*
D12*
X100900002Y-119000000D03*
D14*
X100400002Y-115250000D03*
D15*
X103645002Y-115250000D03*
X92155002Y-113050000D03*
D14*
X95400002Y-113050000D03*
%TD*%
D12*
%TO.C,SW18*%
X239701000Y-117249500D03*
D13*
X245201000Y-117249500D03*
D12*
X250701000Y-117249500D03*
D14*
X250201000Y-113499500D03*
D15*
X253446000Y-113499500D03*
X241956000Y-111299500D03*
D14*
X245201000Y-111299500D03*
%TD*%
D19*
%TO.C,D20*%
X239901000Y-157999500D03*
X239901000Y-154699500D03*
%TD*%
D12*
%TO.C,SW40*%
X293701000Y-152999500D03*
D13*
X299201000Y-152999500D03*
D12*
X304701000Y-152999500D03*
D14*
X304201000Y-149249500D03*
D15*
X307446000Y-149249500D03*
X295956000Y-147049500D03*
D14*
X299201000Y-147049500D03*
%TD*%
D19*
%TO.C,D37*%
X293901000Y-108749500D03*
X293901000Y-105449500D03*
%TD*%
%TO.C,D39*%
X293901000Y-142749500D03*
X293901000Y-139449500D03*
%TD*%
D12*
%TO.C,SW44*%
X107900000Y-151250000D03*
D13*
X113400000Y-151250000D03*
D12*
X118900000Y-151250000D03*
D14*
X118400000Y-147500000D03*
D15*
X121645000Y-147500000D03*
X110155000Y-145300000D03*
D14*
X113400000Y-145300000D03*
%TD*%
D12*
%TO.C,SW38*%
X293701000Y-118999500D03*
D13*
X299201000Y-118999500D03*
D12*
X304701000Y-118999500D03*
D14*
X304201000Y-115249500D03*
D15*
X307446000Y-115249500D03*
X295956000Y-113049500D03*
D14*
X299201000Y-113049500D03*
%TD*%
D19*
%TO.C,D16*%
X162000000Y-161400000D03*
X162000000Y-158100000D03*
%TD*%
%TO.C,D44*%
X108000000Y-158000000D03*
X108000000Y-154700000D03*
%TD*%
D12*
%TO.C,SW60*%
X69035860Y-162876567D03*
D13*
X73799000Y-160126567D03*
D12*
X78562140Y-157376567D03*
D14*
X76254127Y-154378972D03*
D22*
X79064379Y-152756472D03*
X68013748Y-156596216D03*
D14*
X70824000Y-154973716D03*
%TD*%
D19*
%TO.C,D21*%
X257901000Y-105299500D03*
X257901000Y-101999500D03*
%TD*%
D12*
%TO.C,SW58*%
X98901000Y-171650000D03*
D13*
X104401000Y-171650000D03*
D12*
X109901000Y-171650000D03*
D14*
X109401000Y-167900000D03*
D15*
X112646000Y-167900000D03*
X101156000Y-165700000D03*
D14*
X104401000Y-165700000D03*
%TD*%
D12*
%TO.C,SW11*%
X221701000Y-137649500D03*
D13*
X227201000Y-137649500D03*
D12*
X232701000Y-137649500D03*
D14*
X232201000Y-133899500D03*
D15*
X235446000Y-133899500D03*
X223956000Y-131699500D03*
D14*
X227201000Y-131699500D03*
%TD*%
D19*
%TO.C,D4*%
X162000000Y-110400000D03*
X162000000Y-107100000D03*
%TD*%
%TO.C,D14*%
X180000000Y-161400000D03*
X180000000Y-158100000D03*
%TD*%
D12*
%TO.C,SW42*%
X107900000Y-117250000D03*
D13*
X113400000Y-117250000D03*
D12*
X118900000Y-117250000D03*
D14*
X118400000Y-113500000D03*
D15*
X121645000Y-113500000D03*
X110155000Y-111300000D03*
D14*
X113400000Y-111300000D03*
%TD*%
D12*
%TO.C,SW41*%
X107900000Y-100250000D03*
D13*
X113400000Y-100250000D03*
D12*
X118900000Y-100250000D03*
D14*
X118400000Y-96500000D03*
D15*
X121645000Y-96500000D03*
X110155000Y-94300000D03*
D14*
X113400000Y-94300000D03*
%TD*%
D12*
%TO.C,SW51*%
X266689141Y-169949500D03*
D13*
X272189141Y-169949500D03*
D12*
X277689141Y-169949500D03*
D14*
X277189141Y-166199500D03*
D15*
X280434141Y-166199500D03*
X268944141Y-163999500D03*
D14*
X272189141Y-163999500D03*
%TD*%
D12*
%TO.C,SW43*%
X107900000Y-134250000D03*
D13*
X113400000Y-134250000D03*
D12*
X118900000Y-134250000D03*
D14*
X118400000Y-130500000D03*
D15*
X121645000Y-130500000D03*
X110155000Y-128300000D03*
D14*
X113400000Y-128300000D03*
%TD*%
D19*
%TO.C,D32*%
X126000002Y-154650000D03*
X126000002Y-151350000D03*
%TD*%
%TO.C,D29*%
X126000000Y-105300000D03*
X126000000Y-102000000D03*
%TD*%
%TO.C,D3*%
X221901000Y-110399500D03*
X221901000Y-107099500D03*
%TD*%
D12*
%TO.C,SW1*%
X203701000Y-103649500D03*
D13*
X209201000Y-103649500D03*
D12*
X214701000Y-103649500D03*
D14*
X214201000Y-99899500D03*
D15*
X217446000Y-99899500D03*
X205956000Y-97699500D03*
D14*
X209201000Y-97699500D03*
%TD*%
D12*
%TO.C,SW29*%
X125900000Y-98550000D03*
D13*
X131400000Y-98550000D03*
D12*
X136900000Y-98550000D03*
D14*
X136400000Y-94800000D03*
D15*
X139645000Y-94800000D03*
X128155000Y-92600000D03*
D14*
X131400000Y-92600000D03*
%TD*%
D19*
%TO.C,D52*%
X284889141Y-178399500D03*
X284889141Y-175099500D03*
%TD*%
D12*
%TO.C,SW19*%
X239701000Y-134249500D03*
D13*
X245201000Y-134249500D03*
D12*
X250701000Y-134249500D03*
D14*
X250201000Y-130499500D03*
D15*
X253446000Y-130499500D03*
X241956000Y-128299500D03*
D14*
X245201000Y-128299500D03*
%TD*%
D12*
%TO.C,SW21*%
X257700000Y-98548500D03*
D13*
X263200000Y-98548500D03*
D12*
X268700000Y-98548500D03*
D14*
X268200000Y-94798500D03*
D15*
X271445000Y-94798500D03*
X259955000Y-92598500D03*
D14*
X263200000Y-92598500D03*
%TD*%
D19*
%TO.C,D35*%
X275901000Y-140999500D03*
X275901000Y-137699500D03*
%TD*%
D12*
%TO.C,SW59*%
X77535860Y-177599000D03*
D13*
X82299000Y-174849000D03*
D12*
X87062140Y-172099000D03*
D14*
X84754127Y-169101405D03*
D22*
X87564379Y-167478905D03*
X76513748Y-171318649D03*
D14*
X79324000Y-169696149D03*
%TD*%
D19*
%TO.C,D27*%
X144000000Y-141000000D03*
X144000000Y-137700000D03*
%TD*%
%TO.C,D47*%
X90000002Y-142750000D03*
X90000002Y-139450000D03*
%TD*%
D12*
%TO.C,SW12*%
X221701000Y-154649500D03*
D13*
X227201000Y-154649500D03*
D12*
X232701000Y-154649500D03*
D14*
X232201000Y-150899500D03*
D15*
X235446000Y-150899500D03*
X223956000Y-148699500D03*
D14*
X227201000Y-148699500D03*
%TD*%
D12*
%TO.C,SW57*%
X116901000Y-169950000D03*
D13*
X122401000Y-169950000D03*
D12*
X127901000Y-169950000D03*
D14*
X127401000Y-166200000D03*
D15*
X130646000Y-166200000D03*
X119156000Y-164000000D03*
D14*
X122401000Y-164000000D03*
%TD*%
D12*
%TO.C,SW45*%
X89900002Y-102000000D03*
D13*
X95400002Y-102000000D03*
D12*
X100900002Y-102000000D03*
D14*
X100400002Y-98250000D03*
D15*
X103645002Y-98250000D03*
X92155002Y-96050000D03*
D14*
X95400002Y-96050000D03*
%TD*%
D19*
%TO.C,D30*%
X126000000Y-122300000D03*
X126000000Y-119000000D03*
%TD*%
%TO.C,D31*%
X126000000Y-139300000D03*
X126000000Y-136000000D03*
%TD*%
D12*
%TO.C,SW33*%
X275701000Y-100249500D03*
D13*
X281201000Y-100249500D03*
D12*
X286701000Y-100249500D03*
D14*
X286201000Y-96499500D03*
D15*
X289446000Y-96499500D03*
X277956000Y-94299500D03*
D14*
X281201000Y-94299500D03*
%TD*%
D12*
%TO.C,SW34*%
X275701000Y-117249500D03*
D13*
X281201000Y-117249500D03*
D12*
X286701000Y-117249500D03*
D14*
X286201000Y-113499500D03*
D15*
X289446000Y-113499500D03*
X277956000Y-111299500D03*
D14*
X281201000Y-111299500D03*
%TD*%
D19*
%TO.C,D38*%
X293901000Y-125749500D03*
X293901000Y-122449500D03*
%TD*%
D12*
%TO.C,SW39*%
X293701000Y-135999500D03*
D13*
X299201000Y-135999500D03*
D12*
X304701000Y-135999500D03*
D14*
X304201000Y-132249500D03*
D15*
X307446000Y-132249500D03*
X295956000Y-130049500D03*
D14*
X299201000Y-130049500D03*
%TD*%
D20*
%TO.C,TP2*%
X84600000Y-157800000D03*
%TD*%
D19*
%TO.C,D51*%
X266889141Y-176699500D03*
X266889141Y-173399500D03*
%TD*%
%TO.C,D23*%
X257901000Y-139299500D03*
X257901000Y-135999500D03*
%TD*%
%TO.C,D33*%
X275901000Y-106999500D03*
X275901000Y-103699500D03*
%TD*%
D12*
%TO.C,SW37*%
X293701000Y-101999500D03*
D13*
X299201000Y-101999500D03*
D12*
X304701000Y-101999500D03*
D14*
X304201000Y-98249500D03*
D15*
X307446000Y-98249500D03*
X295956000Y-96049500D03*
D14*
X299201000Y-96049500D03*
%TD*%
D19*
%TO.C,D7*%
X180000000Y-127400000D03*
X180000000Y-124100000D03*
%TD*%
%TO.C,D22*%
X257901000Y-122299500D03*
X257901000Y-118999500D03*
%TD*%
D12*
%TO.C,SW16*%
X161900000Y-154650000D03*
D13*
X167400000Y-154650000D03*
D12*
X172900000Y-154650000D03*
D14*
X172400000Y-150900000D03*
D15*
X175645000Y-150900000D03*
X164155000Y-148700000D03*
D14*
X167400000Y-148700000D03*
%TD*%
D19*
%TO.C,D46*%
X90000002Y-125750000D03*
X90000002Y-122450000D03*
%TD*%
%TO.C,D34*%
X275901000Y-123999500D03*
X275901000Y-120699500D03*
%TD*%
D20*
%TO.C,TP1*%
X311101000Y-156149500D03*
%TD*%
D19*
%TO.C,D10*%
X203901000Y-161399500D03*
X203901000Y-158099500D03*
%TD*%
%TO.C,D8*%
X162000000Y-127400000D03*
X162000000Y-124100000D03*
%TD*%
D16*
%TO.C,U2*%
X84270000Y-130080000D03*
X84270000Y-132620000D03*
X84270000Y-135160000D03*
X84270000Y-137700000D03*
X84270000Y-140240000D03*
X84270000Y-142780000D03*
X84270000Y-145320000D03*
X68105000Y-145320000D03*
X68105000Y-142780000D03*
X68105000Y-140240000D03*
X68105000Y-137700000D03*
X68105000Y-135160000D03*
X68105000Y-132620000D03*
X68105000Y-130080000D03*
D17*
X80660000Y-138100000D03*
X80660000Y-134700000D03*
D18*
X72405000Y-146936900D03*
X70500000Y-146936900D03*
D12*
X77485000Y-129131500D03*
X74945000Y-129131500D03*
X77485000Y-131671500D03*
X74945000Y-131671500D03*
%TD*%
D20*
%TO.C,TP3*%
X312601000Y-151349500D03*
%TD*%
D19*
%TO.C,D26*%
X144000000Y-124000000D03*
X144000000Y-120700000D03*
%TD*%
%TO.C,D11*%
X221901000Y-144399500D03*
X221901000Y-141099500D03*
%TD*%
D12*
%TO.C,SW6*%
X221701000Y-120649500D03*
D13*
X227201000Y-120649500D03*
D12*
X232701000Y-120649500D03*
D14*
X232201000Y-116899500D03*
D15*
X235446000Y-116899500D03*
X223956000Y-114699500D03*
D14*
X227201000Y-114699500D03*
%TD*%
D12*
%TO.C,SW4*%
X161900000Y-103650000D03*
D13*
X167400000Y-103650000D03*
D12*
X172900000Y-103650000D03*
D14*
X172400000Y-99900000D03*
D15*
X175645000Y-99900000D03*
X164155000Y-97700000D03*
D14*
X167400000Y-97700000D03*
%TD*%
D19*
%TO.C,D13*%
X180000000Y-144400000D03*
X180000000Y-141100000D03*
%TD*%
D12*
%TO.C,SW8*%
X161900000Y-120650000D03*
D13*
X167400000Y-120650000D03*
D12*
X172900000Y-120650000D03*
D14*
X172400000Y-116900000D03*
D15*
X175645000Y-116900000D03*
X164155000Y-114700000D03*
D14*
X167400000Y-114700000D03*
%TD*%
D19*
%TO.C,D28*%
X144000000Y-158000000D03*
X144000000Y-154700000D03*
%TD*%
D12*
%TO.C,SW48*%
X89900002Y-153000000D03*
D13*
X95400002Y-153000000D03*
D12*
X100900002Y-153000000D03*
D14*
X100400002Y-149250000D03*
D15*
X103645002Y-149250000D03*
X92155002Y-147050000D03*
D14*
X95400002Y-147050000D03*
%TD*%
D19*
%TO.C,D15*%
X162000000Y-144400000D03*
X162000000Y-141100000D03*
%TD*%
%TO.C,D25*%
X144000000Y-107000000D03*
X144000000Y-103700000D03*
%TD*%
D23*
%TO.C,D59*%
X80997463Y-183394672D03*
X79347463Y-180536788D03*
%TD*%
%TO.C,D60*%
X72497464Y-168672239D03*
X70847464Y-165814355D03*
%TD*%
D12*
%TO.C,SW9*%
X203701000Y-137649500D03*
D13*
X209201000Y-137649500D03*
D12*
X214701000Y-137649500D03*
D14*
X214201000Y-133899500D03*
D15*
X217446000Y-133899500D03*
X205956000Y-131699500D03*
D14*
X209201000Y-131699500D03*
%TD*%
D12*
%TO.C,SW47*%
X89900002Y-136000000D03*
D13*
X95400002Y-136000000D03*
D12*
X100900002Y-136000000D03*
D14*
X100400002Y-132250000D03*
D15*
X103645002Y-132250000D03*
X92155002Y-130050000D03*
D14*
X95400002Y-130050000D03*
%TD*%
D19*
%TO.C,D17*%
X239901000Y-106999500D03*
X239901000Y-103699500D03*
%TD*%
D12*
%TO.C,SW24*%
X257701000Y-149549500D03*
D13*
X263201000Y-149549500D03*
D12*
X268701000Y-149549500D03*
D14*
X268201000Y-145799500D03*
D15*
X271446000Y-145799500D03*
X259956000Y-143599500D03*
D14*
X263201000Y-143599500D03*
%TD*%
D19*
%TO.C,D18*%
X239901000Y-123999500D03*
X239901000Y-120699500D03*
%TD*%
%TO.C,D48*%
X90000002Y-159750000D03*
X90000002Y-156450000D03*
%TD*%
D12*
%TO.C,SW31*%
X125900000Y-132550000D03*
D13*
X131400000Y-132550000D03*
D12*
X136900000Y-132550000D03*
D14*
X136400000Y-128800000D03*
D15*
X139645000Y-128800000D03*
X128155000Y-126600000D03*
D14*
X131400000Y-126600000D03*
%TD*%
D12*
%TO.C,SW5*%
X203701000Y-120649500D03*
D13*
X209201000Y-120649500D03*
D12*
X214701000Y-120649500D03*
D14*
X214201000Y-116899500D03*
D15*
X217446000Y-116899500D03*
X205956000Y-114699500D03*
D14*
X209201000Y-114699500D03*
%TD*%
D12*
%TO.C,SW22*%
X257701000Y-115549500D03*
D13*
X263201000Y-115549500D03*
D12*
X268701000Y-115549500D03*
D14*
X268201000Y-111799500D03*
D15*
X271446000Y-111799500D03*
X259956000Y-109599500D03*
D14*
X263201000Y-109599500D03*
%TD*%
D19*
%TO.C,D45*%
X90000002Y-108750000D03*
X90000002Y-105450000D03*
%TD*%
D12*
%TO.C,SW35*%
X275701000Y-134249500D03*
D13*
X281201000Y-134249500D03*
D12*
X286701000Y-134249500D03*
D14*
X286201000Y-130499500D03*
D15*
X289446000Y-130499500D03*
X277956000Y-128299500D03*
D14*
X281201000Y-128299500D03*
%TD*%
D12*
%TO.C,SW30*%
X125900000Y-115550000D03*
D13*
X131400000Y-115550000D03*
D12*
X136900000Y-115550000D03*
D14*
X136400000Y-111800000D03*
D15*
X139645000Y-111800000D03*
X128155000Y-109600000D03*
D14*
X131400000Y-109600000D03*
%TD*%
D12*
%TO.C,SW32*%
X125900000Y-149550000D03*
D13*
X131400000Y-149550000D03*
D12*
X136900000Y-149550000D03*
D14*
X136400000Y-145800000D03*
D15*
X139645000Y-145800000D03*
X128155000Y-143600000D03*
D14*
X131400000Y-143600000D03*
%TD*%
D12*
%TO.C,SW13*%
X179900000Y-137650000D03*
D13*
X185400000Y-137650000D03*
D12*
X190900000Y-137650000D03*
D14*
X190400000Y-133900000D03*
D15*
X193645000Y-133900000D03*
X182155000Y-131700000D03*
D14*
X185400000Y-131700000D03*
%TD*%
D19*
%TO.C,D43*%
X108000000Y-141000000D03*
X108000000Y-137700000D03*
%TD*%
D12*
%TO.C,SW26*%
X143900000Y-117250000D03*
D13*
X149400000Y-117250000D03*
D12*
X154900000Y-117250000D03*
D14*
X154400000Y-113500000D03*
D15*
X157645000Y-113500000D03*
X146155000Y-111300000D03*
D14*
X149400000Y-111300000D03*
%TD*%
D12*
%TO.C,SW54*%
X316037859Y-157377068D03*
D13*
X320800999Y-160127068D03*
D12*
X325564139Y-162877068D03*
D14*
X327006126Y-159379473D03*
D21*
X329816378Y-161001973D03*
X320965747Y-153351717D03*
D14*
X323775999Y-154974217D03*
%TD*%
D19*
%TO.C,D1*%
X203901000Y-110399500D03*
X203901000Y-107099500D03*
%TD*%
D12*
%TO.C,SW36*%
X275701000Y-151249500D03*
D13*
X281201000Y-151249500D03*
D12*
X286701000Y-151249500D03*
D14*
X286201000Y-147499500D03*
D15*
X289446000Y-147499500D03*
X277956000Y-145299500D03*
D14*
X281201000Y-145299500D03*
%TD*%
D12*
%TO.C,SW2*%
X179900000Y-103650000D03*
D13*
X185400000Y-103650000D03*
D12*
X190900000Y-103650000D03*
D14*
X190400000Y-99900000D03*
D15*
X193645000Y-99900000D03*
X182155000Y-97700000D03*
D14*
X185400000Y-97700000D03*
%TD*%
D19*
%TO.C,D5*%
X203901000Y-127399500D03*
X203901000Y-124099500D03*
%TD*%
%TO.C,D40*%
X293901000Y-159749500D03*
X293901000Y-156449500D03*
%TD*%
D12*
%TO.C,SW3*%
X221701000Y-103649500D03*
D13*
X227201000Y-103649500D03*
D12*
X232701000Y-103649500D03*
D14*
X232201000Y-99899500D03*
D15*
X235446000Y-99899500D03*
X223956000Y-97699500D03*
D14*
X227201000Y-97699500D03*
%TD*%
D19*
%TO.C,D6*%
X221901000Y-127399500D03*
X221901000Y-124099500D03*
%TD*%
%TO.C,D36*%
X275901000Y-157999500D03*
X275901000Y-154699500D03*
%TD*%
D12*
%TO.C,SW28*%
X143900000Y-151250000D03*
D13*
X149400000Y-151250000D03*
D12*
X154900000Y-151250000D03*
D14*
X154400000Y-147500000D03*
D15*
X157645000Y-147500000D03*
X146155000Y-145300000D03*
D14*
X149400000Y-145300000D03*
%TD*%
D19*
%TO.C,D9*%
X203901000Y-144399500D03*
X203901000Y-141099500D03*
%TD*%
D12*
%TO.C,SW7*%
X179900000Y-120650000D03*
D13*
X185400000Y-120650000D03*
D12*
X190900000Y-120650000D03*
D14*
X190400000Y-116900000D03*
D15*
X193645000Y-116900000D03*
X182155000Y-114700000D03*
D14*
X185400000Y-114700000D03*
%TD*%
D24*
%TO.C,D53*%
X304336066Y-178045173D03*
X305986066Y-175187289D03*
%TD*%
D12*
%TO.C,SW52*%
X284689141Y-171649500D03*
D13*
X290189141Y-171649500D03*
D12*
X295689141Y-171649500D03*
D14*
X295189141Y-167899500D03*
D15*
X298434141Y-167899500D03*
X286944141Y-165699500D03*
D14*
X290189141Y-165699500D03*
%TD*%
D19*
%TO.C,D12*%
X221901000Y-161399500D03*
X221901000Y-158099500D03*
%TD*%
%TO.C,D42*%
X108000000Y-124000000D03*
X108000000Y-120700000D03*
%TD*%
%TO.C,D19*%
X239901000Y-140999500D03*
X239901000Y-137699500D03*
%TD*%
%TO.C,D2*%
X180000000Y-110400000D03*
X180000000Y-107100000D03*
%TD*%
%TO.C,D58*%
X99001000Y-178400000D03*
X99001000Y-175100000D03*
%TD*%
D12*
%TO.C,SW10*%
X203701000Y-154649500D03*
D13*
X209201000Y-154649500D03*
D12*
X214701000Y-154649500D03*
D14*
X214201000Y-150899500D03*
D15*
X217446000Y-150899500D03*
X205956000Y-148699500D03*
D14*
X209201000Y-148699500D03*
%TD*%
D12*
%TO.C,SW14*%
X179900000Y-154650000D03*
D13*
X185400000Y-154650000D03*
D12*
X190900000Y-154650000D03*
D14*
X190400000Y-150900000D03*
D15*
X193645000Y-150900000D03*
X182155000Y-148700000D03*
D14*
X185400000Y-148700000D03*
%TD*%
D12*
%TO.C,SW20*%
X239701000Y-151249500D03*
D13*
X245201000Y-151249500D03*
D12*
X250701000Y-151249500D03*
D14*
X250201000Y-147499500D03*
D15*
X253446000Y-147499500D03*
X241956000Y-145299500D03*
D14*
X245201000Y-145299500D03*
%TD*%
D24*
%TO.C,D54*%
X312836066Y-163322740D03*
X314486066Y-160464856D03*
%TD*%
D12*
%TO.C,SW23*%
X257701000Y-132549500D03*
D13*
X263201000Y-132549500D03*
D12*
X268701000Y-132549500D03*
D14*
X268201000Y-128799500D03*
D15*
X271446000Y-128799500D03*
X259956000Y-126599500D03*
D14*
X263201000Y-126599500D03*
%TD*%
M02*
