M48
; DRILL file {KiCad 9.0.6} date 2025-12-03T21:28:14-0500
; FORMAT={-:-/ absolute / metric / decimal}
; #@! TF.CreationDate,2025-12-03T21:28:14-05:00
; #@! TF.GenerationSoftware,Kicad,Pcbnew,9.0.6
; #@! TF.FileFunction,Plated,1,2,PTH
FMAT,2
METRIC
; #@! TA.AperFunction,Plated,PTH,ViaDrill
T1C0.300
; #@! TA.AperFunction,Plated,PTH,ComponentDrill
T2C2.500
; #@! TA.AperFunction,Plated,PTH,ComponentDrill
T3C3.000
%
G90
G05
T1
X77.151Y-135.3
X77.2Y-134.1
X78.0Y-134.1
X78.0Y-135.3
X78.259Y-142.8
X82.6Y-144.1
X85.301Y-155.8
X86.3Y-130.1
X86.3Y-132.62
X86.3Y-140.3
X86.4Y-135.2
X86.4Y-137.7
X86.6Y-158.501
X86.6Y-159.701
X87.689Y-142.811
X87.7Y-159.701
X102.749Y-107.0
X103.045Y-124.0
X103.045Y-141.0
X103.949Y-107.0
X104.245Y-124.0
X104.245Y-141.0
X108.0Y-158.0
X117.2Y-153.8
X118.048Y-154.648
X121.045Y-105.3
X121.045Y-122.3
X121.045Y-139.3
X122.245Y-105.3
X122.245Y-122.3
X122.245Y-139.3
X127.976Y-155.776
X128.9Y-156.7
X139.045Y-107.0
X139.045Y-124.0
X139.045Y-141.0
X140.245Y-107.0
X140.245Y-124.0
X140.245Y-141.0
X145.476Y-158.076
X146.324Y-158.924
X157.045Y-144.4
X157.045Y-110.4
X157.045Y-127.4
X158.245Y-144.4
X158.245Y-110.4
X158.245Y-127.4
X174.349Y-109.6
X175.045Y-144.4
X175.045Y-127.4
X175.549Y-109.6
X176.245Y-144.4
X176.245Y-127.4
X216.15Y-110.349
X216.846Y-127.349
X216.846Y-144.35
X217.401Y-110.349
X218.046Y-127.349
X218.046Y-144.35
X234.846Y-106.95
X234.846Y-124.149
X234.846Y-141.049
X236.046Y-106.95
X236.046Y-124.149
X236.046Y-141.049
X252.846Y-105.45
X252.846Y-122.45
X252.846Y-139.35
X253.501Y-155.7
X253.501Y-156.899
X254.046Y-105.45
X254.046Y-122.45
X254.046Y-139.35
X270.846Y-107.049
X270.846Y-123.95
X270.846Y-140.95
X272.046Y-107.049
X272.046Y-123.95
X272.046Y-140.95
X277.301Y-157.399
X277.401Y-158.6
X288.846Y-125.749
X288.846Y-142.749
X289.501Y-157.399
X289.501Y-158.6
X290.046Y-125.749
X290.046Y-142.749
X290.652Y-107.049
X291.852Y-107.049
X306.846Y-137.649
X306.846Y-140.149
X306.846Y-142.749
X306.846Y-145.249
X308.046Y-137.649
X308.046Y-140.149
X308.046Y-142.749
X308.046Y-145.249
X310.781Y-164.529
X311.629Y-165.378
X311.827Y-160.224
X312.675Y-159.375
X324.639Y-139.908
X324.701Y-132.649
X325.001Y-131.35
X325.032Y-140.605
X325.201Y-130.049
T2
X80.66Y-134.7
X80.66Y-138.1
X323.286Y-134.661
X323.286Y-138.061
T3
X70.824Y-154.974
X76.254Y-154.379
X79.324Y-169.696
X84.754Y-169.101
X95.4Y-96.05
X95.4Y-113.05
X95.4Y-130.05
X95.4Y-147.05
X100.4Y-98.25
X100.4Y-115.25
X100.4Y-132.25
X100.4Y-149.25
X104.401Y-165.7
X109.401Y-167.9
X113.4Y-94.3
X113.4Y-111.3
X113.4Y-128.3
X113.4Y-145.3
X118.4Y-96.5
X118.4Y-113.5
X118.4Y-130.5
X118.4Y-147.5
X122.401Y-164.0
X127.401Y-166.2
X131.4Y-92.6
X131.4Y-109.6
X131.4Y-126.6
X131.4Y-143.6
X136.4Y-94.8
X136.4Y-111.8
X136.4Y-128.8
X136.4Y-145.8
X149.4Y-94.3
X149.4Y-111.3
X149.4Y-128.3
X149.4Y-145.3
X154.4Y-96.5
X154.4Y-113.5
X154.4Y-130.5
X154.4Y-147.5
X167.4Y-97.7
X167.4Y-114.7
X167.4Y-131.7
X167.4Y-148.7
X172.4Y-99.9
X172.4Y-116.9
X172.4Y-133.9
X172.4Y-150.9
X185.4Y-97.7
X185.4Y-114.7
X185.4Y-131.7
X185.4Y-148.7
X190.4Y-99.9
X190.4Y-116.9
X190.4Y-133.9
X190.4Y-150.9
X209.201Y-97.7
X209.201Y-114.7
X209.201Y-131.7
X209.201Y-148.7
X214.201Y-99.899
X214.201Y-116.899
X214.201Y-133.899
X214.201Y-150.899
X227.201Y-97.7
X227.201Y-114.7
X227.201Y-131.7
X227.201Y-148.7
X232.201Y-99.899
X232.201Y-116.899
X232.201Y-133.899
X232.201Y-150.899
X245.201Y-94.299
X245.201Y-111.299
X245.201Y-128.299
X245.201Y-145.299
X250.201Y-96.499
X250.201Y-113.499
X250.201Y-130.499
X250.201Y-147.499
X263.2Y-92.599
X263.201Y-109.599
X263.201Y-126.599
X263.201Y-143.6
X268.2Y-94.798
X268.201Y-111.799
X268.201Y-128.799
X268.201Y-145.799
X272.189Y-163.999
X277.189Y-166.2
X281.201Y-94.299
X281.201Y-111.299
X281.201Y-128.299
X281.201Y-145.299
X286.201Y-96.499
X286.201Y-113.499
X286.201Y-130.499
X286.201Y-147.499
X290.189Y-165.7
X295.189Y-167.899
X299.201Y-96.049
X299.201Y-113.049
X299.201Y-130.049
X299.201Y-147.049
X304.201Y-98.249
X304.201Y-115.249
X304.201Y-132.249
X304.201Y-149.249
X315.276Y-169.697
X318.506Y-174.102
X323.776Y-154.974
X327.006Y-159.379
M30
