%TF.GenerationSoftware,KiCad,Pcbnew,9.0.6*%
%TF.CreationDate,2025-12-03T21:27:50-05:00*%
%TF.ProjectId,VoyagerSplitKicad,566f7961-6765-4725-9370-6c69744b6963,rev?*%
%TF.SameCoordinates,Original*%
%TF.FileFunction,Copper,L1,Top*%
%TF.FilePolarity,Positive*%
%FSLAX46Y46*%
G04 Gerber Fmt 4.6, Leading zero omitted, Abs format (unit mm)*
G04 Created by KiCad (PCBNEW 9.0.6) date 2025-12-03 21:27:50*
%MOMM*%
%LPD*%
G01*
G04 APERTURE LIST*
G04 Aperture macros list*
%AMRoundRect*
0 Rectangle with rounded corners*
0 $1 Rounding radius*
0 $2 $3 $4 $5 $6 $7 $8 $9 X,Y pos of 4 corners*
0 Add a 4 corners polygon primitive as box body*
4,1,4,$2,$3,$4,$5,$6,$7,$8,$9,$2,$3,0*
0 Add four circle primitives for the rounded corners*
1,1,$1+$1,$2,$3*
1,1,$1+$1,$4,$5*
1,1,$1+$1,$6,$7*
1,1,$1+$1,$8,$9*
0 Add four rect primitives between the rounded corners*
20,1,$1+$1,$2,$3,$4,$5,0*
20,1,$1+$1,$4,$5,$6,$7,0*
20,1,$1+$1,$6,$7,$8,$9,0*
20,1,$1+$1,$8,$9,$2,$3,0*%
G04 Aperture macros list end*
%TA.AperFunction,ComponentPad*%
%ADD10C,3.300000*%
%TD*%
%TA.AperFunction,ComponentPad*%
%ADD11RoundRect,0.750000X-0.750000X-0.750000X0.750000X-0.750000X0.750000X0.750000X-0.750000X0.750000X0*%
%TD*%
%TA.AperFunction,ViaPad*%
%ADD12C,0.600000*%
%TD*%
%TA.AperFunction,Conductor*%
%ADD13C,0.200000*%
%TD*%
G04 APERTURE END LIST*
D10*
%TO.P,SW27,1,1*%
%TO.N,/right/COL2*%
X154400000Y-130500000D03*
%TO.P,SW27,2,2*%
%TO.N,Net-(D27-A)*%
X149400000Y-128300000D03*
%TD*%
D11*
%TO.P,U1,15,BAT*%
%TO.N,/left/VBAT*%
X323286500Y-138061300D03*
%TO.P,U1,16,GND*%
%TO.N,GND*%
X323286500Y-134661300D03*
%TD*%
D10*
%TO.P,SW17,1,1*%
%TO.N,/left/COL2*%
X250201000Y-96499500D03*
%TO.P,SW17,2,2*%
%TO.N,Net-(D17-A)*%
X245201000Y-94299500D03*
%TD*%
%TO.P,SW15,1,1*%
%TO.N,/right/COL1*%
X172400000Y-133900000D03*
%TO.P,SW15,2,2*%
%TO.N,Net-(D15-A)*%
X167400000Y-131700000D03*
%TD*%
%TO.P,SW25,1,1*%
%TO.N,/right/COL2*%
X154400000Y-96500000D03*
%TO.P,SW25,2,2*%
%TO.N,Net-(D25-A)*%
X149400000Y-94300000D03*
%TD*%
%TO.P,SW53,1,1*%
%TO.N,/left/COL4*%
X318506127Y-174101905D03*
%TO.P,SW53,2,2*%
%TO.N,Net-(D53-A)*%
X315276000Y-169696649D03*
%TD*%
%TO.P,SW46,1,1*%
%TO.N,/right/COL5*%
X100400002Y-115250000D03*
%TO.P,SW46,2,2*%
%TO.N,Net-(D46-A)*%
X95400002Y-113050000D03*
%TD*%
%TO.P,SW18,1,1*%
%TO.N,/left/COL2*%
X250201000Y-113499500D03*
%TO.P,SW18,2,2*%
%TO.N,Net-(D18-A)*%
X245201000Y-111299500D03*
%TD*%
%TO.P,SW40,1,1*%
%TO.N,/left/COL5*%
X304201000Y-149249500D03*
%TO.P,SW40,2,2*%
%TO.N,Net-(D40-A)*%
X299201000Y-147049500D03*
%TD*%
%TO.P,SW44,1,1*%
%TO.N,/right/COL4*%
X118400000Y-147500000D03*
%TO.P,SW44,2,2*%
%TO.N,Net-(D44-A)*%
X113400000Y-145300000D03*
%TD*%
%TO.P,SW38,1,1*%
%TO.N,/left/COL5*%
X304201000Y-115249500D03*
%TO.P,SW38,2,2*%
%TO.N,Net-(D38-A)*%
X299201000Y-113049500D03*
%TD*%
%TO.P,SW60,1,1*%
%TO.N,/right/COL5*%
X76254127Y-154378972D03*
%TO.P,SW60,2,2*%
%TO.N,Net-(D60-A)*%
X70824000Y-154973716D03*
%TD*%
%TO.P,SW58,1,1*%
%TO.N,/right/COL3*%
X109401000Y-167900000D03*
%TO.P,SW58,2,2*%
%TO.N,Net-(D58-A)*%
X104401000Y-165700000D03*
%TD*%
%TO.P,SW11,1,1*%
%TO.N,/left/COL1*%
X232201000Y-133899500D03*
%TO.P,SW11,2,2*%
%TO.N,Net-(D11-A)*%
X227201000Y-131699500D03*
%TD*%
%TO.P,SW42,1,1*%
%TO.N,/right/COL4*%
X118400000Y-113500000D03*
%TO.P,SW42,2,2*%
%TO.N,Net-(D42-A)*%
X113400000Y-111300000D03*
%TD*%
%TO.P,SW41,1,1*%
%TO.N,/right/COL4*%
X118400000Y-96500000D03*
%TO.P,SW41,2,2*%
%TO.N,Net-(D41-A)*%
X113400000Y-94300000D03*
%TD*%
%TO.P,SW51,1,1*%
%TO.N,/left/COL2*%
X277189141Y-166199500D03*
%TO.P,SW51,2,2*%
%TO.N,Net-(D51-A)*%
X272189141Y-163999500D03*
%TD*%
%TO.P,SW43,1,1*%
%TO.N,/right/COL4*%
X118400000Y-130500000D03*
%TO.P,SW43,2,2*%
%TO.N,Net-(D43-A)*%
X113400000Y-128300000D03*
%TD*%
%TO.P,SW1,1,1*%
%TO.N,/left/COL0*%
X214201000Y-99899500D03*
%TO.P,SW1,2,2*%
%TO.N,Net-(D1-A)*%
X209201000Y-97699500D03*
%TD*%
%TO.P,SW29,1,1*%
%TO.N,/right/COL3*%
X136400000Y-94800000D03*
%TO.P,SW29,2,2*%
%TO.N,Net-(D29-A)*%
X131400000Y-92600000D03*
%TD*%
%TO.P,SW19,1,1*%
%TO.N,/left/COL2*%
X250201000Y-130499500D03*
%TO.P,SW19,2,2*%
%TO.N,Net-(D19-A)*%
X245201000Y-128299500D03*
%TD*%
%TO.P,SW21,1,1*%
%TO.N,/left/COL3*%
X268200000Y-94798500D03*
%TO.P,SW21,2,2*%
%TO.N,Net-(D21-A)*%
X263200000Y-92598500D03*
%TD*%
%TO.P,SW59,1,1*%
%TO.N,/right/COL4*%
X84754127Y-169101405D03*
%TO.P,SW59,2,2*%
%TO.N,Net-(D59-A)*%
X79324000Y-169696149D03*
%TD*%
%TO.P,SW12,1,1*%
%TO.N,/left/COL1*%
X232201000Y-150899500D03*
%TO.P,SW12,2,2*%
%TO.N,Net-(D12-A)*%
X227201000Y-148699500D03*
%TD*%
%TO.P,SW57,1,1*%
%TO.N,/right/COL2*%
X127401000Y-166200000D03*
%TO.P,SW57,2,2*%
%TO.N,Net-(D57-A)*%
X122401000Y-164000000D03*
%TD*%
%TO.P,SW45,1,1*%
%TO.N,/right/COL5*%
X100400002Y-98250000D03*
%TO.P,SW45,2,2*%
%TO.N,Net-(D45-A)*%
X95400002Y-96050000D03*
%TD*%
%TO.P,SW33,1,1*%
%TO.N,/left/COL4*%
X286201000Y-96499500D03*
%TO.P,SW33,2,2*%
%TO.N,Net-(D33-A)*%
X281201000Y-94299500D03*
%TD*%
%TO.P,SW34,1,1*%
%TO.N,/left/COL4*%
X286201000Y-113499500D03*
%TO.P,SW34,2,2*%
%TO.N,Net-(D34-A)*%
X281201000Y-111299500D03*
%TD*%
%TO.P,SW39,1,1*%
%TO.N,/left/COL5*%
X304201000Y-132249500D03*
%TO.P,SW39,2,2*%
%TO.N,Net-(D39-A)*%
X299201000Y-130049500D03*
%TD*%
%TO.P,SW37,1,1*%
%TO.N,/left/COL5*%
X304201000Y-98249500D03*
%TO.P,SW37,2,2*%
%TO.N,Net-(D37-A)*%
X299201000Y-96049500D03*
%TD*%
%TO.P,SW16,1,1*%
%TO.N,/right/COL1*%
X172400000Y-150900000D03*
%TO.P,SW16,2,2*%
%TO.N,Net-(D16-A)*%
X167400000Y-148700000D03*
%TD*%
D11*
%TO.P,U2,15,BAT*%
%TO.N,/right/VBAT*%
X80660000Y-138100000D03*
%TO.P,U2,16,GND*%
%TO.N,GND*%
X80660000Y-134700000D03*
%TD*%
D10*
%TO.P,SW6,1,1*%
%TO.N,/left/COL1*%
X232201000Y-116899500D03*
%TO.P,SW6,2,2*%
%TO.N,Net-(D6-A)*%
X227201000Y-114699500D03*
%TD*%
%TO.P,SW4,1,1*%
%TO.N,/right/COL1*%
X172400000Y-99900000D03*
%TO.P,SW4,2,2*%
%TO.N,Net-(D4-A)*%
X167400000Y-97700000D03*
%TD*%
%TO.P,SW8,1,1*%
%TO.N,/right/COL1*%
X172400000Y-116900000D03*
%TO.P,SW8,2,2*%
%TO.N,Net-(D8-A)*%
X167400000Y-114700000D03*
%TD*%
%TO.P,SW48,1,1*%
%TO.N,/right/COL5*%
X100400002Y-149250000D03*
%TO.P,SW48,2,2*%
%TO.N,Net-(D48-A)*%
X95400002Y-147050000D03*
%TD*%
%TO.P,SW9,1,1*%
%TO.N,/left/COL0*%
X214201000Y-133899500D03*
%TO.P,SW9,2,2*%
%TO.N,Net-(D9-A)*%
X209201000Y-131699500D03*
%TD*%
%TO.P,SW47,1,1*%
%TO.N,/right/COL5*%
X100400002Y-132250000D03*
%TO.P,SW47,2,2*%
%TO.N,Net-(D47-A)*%
X95400002Y-130050000D03*
%TD*%
%TO.P,SW24,1,1*%
%TO.N,/left/COL3*%
X268201000Y-145799500D03*
%TO.P,SW24,2,2*%
%TO.N,Net-(D24-A)*%
X263201000Y-143599500D03*
%TD*%
%TO.P,SW31,1,1*%
%TO.N,/right/COL3*%
X136400000Y-128800000D03*
%TO.P,SW31,2,2*%
%TO.N,Net-(D31-A)*%
X131400000Y-126600000D03*
%TD*%
%TO.P,SW5,1,1*%
%TO.N,/left/COL0*%
X214201000Y-116899500D03*
%TO.P,SW5,2,2*%
%TO.N,Net-(D5-A)*%
X209201000Y-114699500D03*
%TD*%
%TO.P,SW22,1,1*%
%TO.N,/left/COL3*%
X268201000Y-111799500D03*
%TO.P,SW22,2,2*%
%TO.N,Net-(D22-A)*%
X263201000Y-109599500D03*
%TD*%
%TO.P,SW35,1,1*%
%TO.N,/left/COL4*%
X286201000Y-130499500D03*
%TO.P,SW35,2,2*%
%TO.N,Net-(D35-A)*%
X281201000Y-128299500D03*
%TD*%
%TO.P,SW30,1,1*%
%TO.N,/right/COL3*%
X136400000Y-111800000D03*
%TO.P,SW30,2,2*%
%TO.N,Net-(D30-A)*%
X131400000Y-109600000D03*
%TD*%
%TO.P,SW32,1,1*%
%TO.N,/right/COL3*%
X136400000Y-145800000D03*
%TO.P,SW32,2,2*%
%TO.N,Net-(D32-A)*%
X131400000Y-143600000D03*
%TD*%
%TO.P,SW13,1,1*%
%TO.N,/right/COL0*%
X190400000Y-133900000D03*
%TO.P,SW13,2,2*%
%TO.N,Net-(D13-A)*%
X185400000Y-131700000D03*
%TD*%
%TO.P,SW26,1,1*%
%TO.N,/right/COL2*%
X154400000Y-113500000D03*
%TO.P,SW26,2,2*%
%TO.N,Net-(D26-A)*%
X149400000Y-111300000D03*
%TD*%
%TO.P,SW54,1,1*%
%TO.N,/left/COL5*%
X327006126Y-159379473D03*
%TO.P,SW54,2,2*%
%TO.N,Net-(D54-A)*%
X323775999Y-154974217D03*
%TD*%
%TO.P,SW36,1,1*%
%TO.N,/left/COL4*%
X286201000Y-147499500D03*
%TO.P,SW36,2,2*%
%TO.N,Net-(D36-A)*%
X281201000Y-145299500D03*
%TD*%
%TO.P,SW2,1,1*%
%TO.N,/right/COL0*%
X190400000Y-99900000D03*
%TO.P,SW2,2,2*%
%TO.N,Net-(D2-A)*%
X185400000Y-97700000D03*
%TD*%
%TO.P,SW3,1,1*%
%TO.N,/left/COL1*%
X232201000Y-99899500D03*
%TO.P,SW3,2,2*%
%TO.N,Net-(D3-A)*%
X227201000Y-97699500D03*
%TD*%
%TO.P,SW28,1,1*%
%TO.N,/right/COL2*%
X154400000Y-147500000D03*
%TO.P,SW28,2,2*%
%TO.N,Net-(D28-A)*%
X149400000Y-145300000D03*
%TD*%
%TO.P,SW7,1,1*%
%TO.N,/right/COL0*%
X190400000Y-116900000D03*
%TO.P,SW7,2,2*%
%TO.N,Net-(D7-A)*%
X185400000Y-114700000D03*
%TD*%
%TO.P,SW52,1,1*%
%TO.N,/left/COL3*%
X295189141Y-167899500D03*
%TO.P,SW52,2,2*%
%TO.N,Net-(D52-A)*%
X290189141Y-165699500D03*
%TD*%
%TO.P,SW10,1,1*%
%TO.N,/left/COL0*%
X214201000Y-150899500D03*
%TO.P,SW10,2,2*%
%TO.N,Net-(D10-A)*%
X209201000Y-148699500D03*
%TD*%
%TO.P,SW14,1,1*%
%TO.N,/right/COL0*%
X190400000Y-150900000D03*
%TO.P,SW14,2,2*%
%TO.N,Net-(D14-A)*%
X185400000Y-148700000D03*
%TD*%
%TO.P,SW20,1,1*%
%TO.N,/left/COL2*%
X250201000Y-147499500D03*
%TO.P,SW20,2,2*%
%TO.N,Net-(D20-A)*%
X245201000Y-145299500D03*
%TD*%
%TO.P,SW23,1,1*%
%TO.N,/left/COL3*%
X268201000Y-128799500D03*
%TO.P,SW23,2,2*%
%TO.N,Net-(D23-A)*%
X263201000Y-126599500D03*
%TD*%
D12*
%TO.N,/left/ROW0*%
X270846000Y-107049500D03*
X252846000Y-105449500D03*
X308046000Y-137649500D03*
X254046000Y-105449500D03*
X234846000Y-106949500D03*
X291852000Y-107049500D03*
X272046000Y-107049500D03*
X216150000Y-110349500D03*
X217401000Y-110349500D03*
X306846000Y-137649500D03*
X236046000Y-106949500D03*
X290652000Y-107049500D03*
%TO.N,/right/ROW0*%
X77151473Y-135300000D03*
X157045002Y-110400000D03*
X122245000Y-105300000D03*
X158245002Y-110400000D03*
X140245000Y-107000000D03*
X175548998Y-109600000D03*
X77200000Y-134100000D03*
X139045000Y-107000000D03*
X121045000Y-105300000D03*
X103948998Y-107000000D03*
X102748998Y-107000000D03*
X174348998Y-109600000D03*
%TO.N,/left/ROW1*%
X218046000Y-127349500D03*
X306846000Y-140149500D03*
X290046000Y-125749500D03*
X234846000Y-124149500D03*
X270846000Y-123949500D03*
X236046000Y-124149500D03*
X288846000Y-125749500D03*
X216846000Y-127349500D03*
X272046000Y-123949500D03*
X308046000Y-140149500D03*
X254046000Y-122449500D03*
X252846000Y-122449500D03*
%TO.N,/right/ROW1*%
X78000000Y-135300000D03*
X176245002Y-127400000D03*
X140245002Y-124000000D03*
X104245002Y-124000000D03*
X78000000Y-134100000D03*
X103045002Y-124000000D03*
X175045002Y-127400000D03*
X157045002Y-127400000D03*
X122245000Y-122300000D03*
X121045000Y-122300000D03*
X139045002Y-124000000D03*
X158245002Y-127400000D03*
%TO.N,/left/ROW2*%
X252846000Y-139349500D03*
X254046000Y-139349500D03*
X290046000Y-142749500D03*
X234846000Y-141049500D03*
X306846000Y-142749500D03*
X288846000Y-142749500D03*
X308046000Y-142749500D03*
X216846000Y-144349500D03*
X236046000Y-141049500D03*
X272046000Y-140949500D03*
X270846000Y-140949500D03*
X218046000Y-144349500D03*
%TO.N,/left/ROW3*%
X308046000Y-145249500D03*
X306846000Y-145249500D03*
%TO.N,/right/ROW2*%
X176245000Y-144400000D03*
X103045004Y-141000000D03*
X140245002Y-141000000D03*
X158245000Y-144400000D03*
X104245004Y-141000000D03*
X139045002Y-141000000D03*
X157045000Y-144400000D03*
X122245002Y-139300000D03*
X78259000Y-142800000D03*
X175045000Y-144400000D03*
X87689265Y-142810735D03*
X121045002Y-139300000D03*
%TO.N,/right/ROW3*%
X118048500Y-154648500D03*
X117199970Y-153799970D03*
X87700000Y-159701000D03*
X146324265Y-158924265D03*
X85301000Y-155800000D03*
X108000000Y-158000000D03*
X127975750Y-155775750D03*
X145475735Y-158075735D03*
X128900030Y-156700030D03*
%TO.N,/left/ROW4*%
X312675265Y-159375235D03*
X311826735Y-160223765D03*
%TO.N,/right/ROW4*%
X86600000Y-159701000D03*
X86600000Y-158501000D03*
%TO.N,/left/COL0*%
X325201000Y-130049500D03*
%TO.N,/right/COL0*%
X86300000Y-130100000D03*
%TO.N,/left/COL1*%
X325001000Y-131349500D03*
%TO.N,/right/COL1*%
X86300000Y-132620000D03*
%TO.N,/left/COL2*%
X253501000Y-156899500D03*
X324701000Y-132649500D03*
X253501000Y-155699500D03*
%TO.N,/left/COL3*%
X324639087Y-139908278D03*
X277401000Y-158599500D03*
X277301000Y-157399500D03*
%TO.N,/right/COL2*%
X86400000Y-135200000D03*
%TO.N,/right/COL3*%
X86400000Y-137700000D03*
%TO.N,/left/COL4*%
X311629417Y-165377917D03*
X325032308Y-140604971D03*
X310780887Y-164529388D03*
X289501000Y-158599500D03*
X289501000Y-157399500D03*
%TO.N,/right/COL4*%
X86300000Y-140300000D03*
%TO.N,/right/COL5*%
X82600000Y-144100000D03*
%TD*%
D13*
%TO.N,/left/ROW0*%
X234846000Y-106949500D02*
X236046000Y-106949500D01*
X290652000Y-107049500D02*
X291852000Y-107049500D01*
X270846000Y-107049500D02*
X272046000Y-107049500D01*
X306846000Y-137649500D02*
X308046000Y-137649500D01*
X217401000Y-110349500D02*
X216150000Y-110349500D01*
X252846000Y-105449500D02*
X254046000Y-105449500D01*
%TO.N,/right/ROW0*%
X157045002Y-110400000D02*
X158245002Y-110400000D01*
X139045000Y-107000000D02*
X140245000Y-107000000D01*
X77151473Y-134148527D02*
X77200000Y-134100000D01*
X102748998Y-107000000D02*
X103948998Y-107000000D01*
X121045000Y-105300000D02*
X122245000Y-105300000D01*
X174348998Y-109600000D02*
X175548998Y-109600000D01*
X77151473Y-135300000D02*
X77151473Y-134148527D01*
%TO.N,/left/ROW1*%
X252846000Y-122449500D02*
X254046000Y-122449500D01*
X234846000Y-124149500D02*
X236046000Y-124149500D01*
X216846000Y-127349500D02*
X218046000Y-127349500D01*
X288846000Y-125749500D02*
X290046000Y-125749500D01*
X270846000Y-123949500D02*
X272046000Y-123949500D01*
X306846000Y-140149500D02*
X308046000Y-140149500D01*
%TO.N,/right/ROW1*%
X139045002Y-124000000D02*
X140245002Y-124000000D01*
X176245002Y-127400000D02*
X175045002Y-127400000D01*
X121045000Y-122300000D02*
X122245000Y-122300000D01*
X103045002Y-124000000D02*
X104245002Y-124000000D01*
X157045002Y-127400000D02*
X158245002Y-127400000D01*
X78000000Y-135300000D02*
X78000000Y-134100000D01*
%TO.N,/left/ROW2*%
X288846000Y-142749500D02*
X290046000Y-142749500D01*
X252846000Y-139349500D02*
X254046000Y-139349500D01*
X216846000Y-144349500D02*
X218046000Y-144349500D01*
X306846000Y-142749500D02*
X308046000Y-142749500D01*
X270846000Y-140949500D02*
X272046000Y-140949500D01*
X234846000Y-141049500D02*
X236046000Y-141049500D01*
%TO.N,/left/ROW3*%
X306846000Y-145249500D02*
X308046000Y-145249500D01*
%TO.N,/right/ROW2*%
X78259000Y-142800000D02*
X87678530Y-142800000D01*
X87678530Y-142800000D02*
X87689265Y-142810735D01*
X103045004Y-141000000D02*
X104245004Y-141000000D01*
X139045002Y-141000000D02*
X140245002Y-141000000D01*
X157045000Y-144400000D02*
X158245000Y-144400000D01*
X121045002Y-139300000D02*
X122245002Y-139300000D01*
X175045000Y-144400000D02*
X176245000Y-144400000D01*
%TO.N,/right/ROW3*%
X127975750Y-155775750D02*
X128900030Y-156700030D01*
X87700000Y-158199000D02*
X87700000Y-159701000D01*
X145475735Y-158075735D02*
X146324265Y-158924265D01*
X117199970Y-153799970D02*
X118048500Y-154648500D01*
X85301000Y-155800000D02*
X87700000Y-158199000D01*
%TO.N,/left/ROW4*%
X311826735Y-160223765D02*
X312675265Y-159375235D01*
%TO.N,/right/ROW4*%
X86600000Y-158501000D02*
X86600000Y-159701000D01*
%TO.N,/left/COL0*%
X249302552Y-101450500D02*
X243600552Y-95748500D01*
X307001000Y-130049500D02*
X278402000Y-101450500D01*
X278402000Y-101450500D02*
X249302552Y-101450500D01*
X325201000Y-130049500D02*
X307001000Y-130049500D01*
X218352000Y-95748500D02*
X214201000Y-99899500D01*
X243600552Y-95748500D02*
X218352000Y-95748500D01*
%TO.N,/right/COL0*%
X179497997Y-139998000D02*
X190399997Y-150900000D01*
X99591868Y-130299000D02*
X115841866Y-130299000D01*
X88201000Y-132001000D02*
X97889868Y-132001000D01*
X131200530Y-128549000D02*
X142649530Y-139998000D01*
X86300000Y-130100000D02*
X88201000Y-132001000D01*
X97889868Y-132001000D02*
X99591868Y-130299000D01*
X142649530Y-139998000D02*
X179497997Y-139998000D01*
X117591866Y-128549000D02*
X131200530Y-128549000D01*
X115841866Y-130299000D02*
X117591866Y-128549000D01*
%TO.N,/left/COL1*%
X251342869Y-120200500D02*
X232201000Y-101058631D01*
X294911131Y-120200500D02*
X251342869Y-120200500D01*
X306060131Y-131349500D02*
X294911131Y-120200500D01*
X232201000Y-101058631D02*
X232201000Y-99899500D01*
X325001000Y-131349500D02*
X306060131Y-131349500D01*
%TO.N,/right/COL1*%
X112350530Y-140399000D02*
X161898997Y-140399000D01*
X161898997Y-140399000D02*
X172399997Y-150900000D01*
X106699000Y-134747470D02*
X112350530Y-140399000D01*
X86300000Y-132620000D02*
X86320000Y-132600000D01*
X86320000Y-132600000D02*
X97990868Y-132600000D01*
X97990868Y-132600000D02*
X100138338Y-134747470D01*
X100138338Y-134747470D02*
X106699000Y-134747470D01*
%TO.N,/left/COL2*%
X324701000Y-132649500D02*
X310739141Y-132649500D01*
X253501000Y-155699500D02*
X253501000Y-156899500D01*
X310739141Y-132649500D02*
X277189141Y-166199500D01*
%TO.N,/left/COL3*%
X323180363Y-139908278D02*
X295189141Y-167899500D01*
X324639087Y-139908278D02*
X323180363Y-139908278D01*
X277301000Y-157399500D02*
X277301000Y-158499500D01*
X277301000Y-158499500D02*
X277401000Y-158599500D01*
%TO.N,/right/COL2*%
X124947998Y-163747001D02*
X127400997Y-166200000D01*
X113202530Y-147251000D02*
X124947998Y-158996468D01*
X86400000Y-135200000D02*
X98451000Y-147251000D01*
X124947998Y-158996468D02*
X124947998Y-163747001D01*
X98451000Y-147251000D02*
X113202530Y-147251000D01*
%TO.N,/right/COL3*%
X93449002Y-144749002D02*
X93449002Y-148148448D01*
X93449002Y-148148448D02*
X109401000Y-164100446D01*
X86400000Y-137700000D02*
X93449002Y-144749002D01*
X109401000Y-164100446D02*
X109401000Y-167900000D01*
%TO.N,/left/COL4*%
X310780887Y-164529388D02*
X311629417Y-165377917D01*
X325032308Y-153471395D02*
X325726999Y-154166086D01*
X324363140Y-168244889D02*
X318506125Y-174101904D01*
X325726999Y-157899466D02*
X324363140Y-159263325D01*
X325032308Y-140604971D02*
X325032308Y-153471395D01*
X325726999Y-154166086D02*
X325726999Y-157899466D01*
X289501000Y-157399500D02*
X289501000Y-158599500D01*
X324363140Y-159263325D02*
X324363140Y-168244889D01*
%TO.N,/right/COL4*%
X88300000Y-165555531D02*
X84754124Y-169101407D01*
X86300000Y-140300000D02*
X88300000Y-142300000D01*
X88300000Y-142300000D02*
X88300000Y-165555531D01*
%TO.N,/right/COL5*%
X76254127Y-150445873D02*
X76254127Y-154378972D01*
X82600000Y-144100000D02*
X76254127Y-150445873D01*
%TD*%
M02*
