%TF.GenerationSoftware,KiCad,Pcbnew,9.0.6*%
%TF.CreationDate,2025-12-05T23:49:31-05:00*%
%TF.ProjectId,VoyagerSplitKicad,566f7961-6765-4725-9370-6c69744b6963,rev?*%
%TF.SameCoordinates,Original*%
%TF.FileFunction,Profile,NP*%
%FSLAX46Y46*%
G04 Gerber Fmt 4.6, Leading zero omitted, Abs format (unit mm)*
G04 Created by KiCad (PCBNEW 9.0.6) date 2025-12-05 23:49:31*
%MOMM*%
%LPD*%
G01*
G04 APERTURE LIST*
%TA.AperFunction,Profile*%
%ADD10C,0.050000*%
%TD*%
G04 APERTURE END LIST*
D10*
X77998855Y-188407113D02*
X60107320Y-157503552D01*
X280100000Y-181849996D02*
X303484700Y-181849996D01*
X260500000Y-161449996D02*
G75*
G02*
X261299997Y-162253346I0J-800004D01*
G01*
X198300001Y-112000000D02*
X198300001Y-111900000D01*
X252399999Y-89200000D02*
G75*
G02*
X251600000Y-89999999I-799999J0D01*
G01*
X196300000Y-164050000D02*
X196300000Y-153000000D01*
X65700000Y-127100000D02*
X83800000Y-127100000D01*
X64900000Y-153430100D02*
G75*
G02*
X64496517Y-154124978I-800100J0D01*
G01*
X196299999Y-111900000D02*
G75*
G02*
X198300001Y-111899998I1000001J0D01*
G01*
X255899997Y-161449996D02*
X260500000Y-161449996D01*
X60402394Y-156408280D02*
X64496535Y-154125010D01*
X101800000Y-91700000D02*
X85400000Y-91700000D01*
X334189952Y-156404011D02*
X330110365Y-154128853D01*
X329699997Y-153430151D02*
X329699999Y-127897172D01*
X115300000Y-180950000D02*
G75*
G02*
X116100000Y-180150000I800000J0D01*
G01*
X142199998Y-89200000D02*
X142199998Y-89100000D01*
X237899997Y-164050000D02*
X237899997Y-162250000D01*
X198299998Y-127500000D02*
G75*
G02*
X196300002Y-127500000I-999998J-3D01*
G01*
X234399999Y-93450000D02*
G75*
G02*
X233600000Y-94249999I-799999J0D01*
G01*
X195500000Y-94250000D02*
X161000000Y-94250000D01*
X114500000Y-181850000D02*
X91115211Y-181850000D01*
X143000000Y-90000000D02*
G75*
G02*
X142200000Y-89200000I0J800000D01*
G01*
X156700000Y-164050000D02*
X156700000Y-162250000D01*
X199100000Y-164849996D02*
G75*
G02*
X198300004Y-164049995I0J799996D01*
G01*
X334189954Y-156404011D02*
G75*
G02*
X334492639Y-157503528I-389654J-698689D01*
G01*
X115300000Y-181050000D02*
G75*
G02*
X114500000Y-181850000I-800000J0D01*
G01*
X102599998Y-90900000D02*
G75*
G02*
X101800000Y-91699998I-799998J0D01*
G01*
X195500000Y-164850000D02*
X157500000Y-164850000D01*
X309200000Y-91699996D02*
G75*
G02*
X309999999Y-92497172I0J-800004D01*
G01*
X328900000Y-127099996D02*
G75*
G02*
X329699999Y-127897172I0J-800004D01*
G01*
X273200000Y-88299996D02*
G75*
G02*
X273999999Y-89102828I0J-800004D01*
G01*
X196300000Y-95050000D02*
X196300003Y-105400000D01*
X132500000Y-180150000D02*
X116100000Y-180150000D01*
X64900000Y-153430100D02*
X64899998Y-127900000D01*
X198299997Y-164049995D02*
X198299997Y-153000000D01*
X196300000Y-164050000D02*
G75*
G02*
X195500000Y-164850000I-800000J0D01*
G01*
X90713785Y-181958007D02*
G75*
G02*
X91115211Y-181850021I401415J-692093D01*
G01*
X196299999Y-111899996D02*
X196300001Y-127500000D01*
X79092567Y-188698312D02*
G75*
G02*
X77998864Y-188407108I-401367J692012D01*
G01*
X303889902Y-181960140D02*
X315510328Y-188699989D01*
X310800000Y-127099996D02*
G75*
G02*
X310000004Y-126299996I0J799996D01*
G01*
X234399999Y-93450000D02*
X234399999Y-90800000D01*
X237899997Y-162250000D02*
G75*
G02*
X238700000Y-161449997I800003J0D01*
G01*
X235200000Y-89999996D02*
X251600000Y-89999996D01*
X84599998Y-92500000D02*
G75*
G02*
X85400000Y-91699998I800002J0D01*
G01*
X198299997Y-95050000D02*
X198299997Y-105400000D01*
X292800000Y-91699996D02*
X309200000Y-91699996D01*
X237899997Y-164050000D02*
G75*
G02*
X237100000Y-164849997I-799997J0D01*
G01*
X90713785Y-181958005D02*
X79092567Y-188698312D01*
X159400000Y-90000000D02*
X143000000Y-90000000D01*
X198299997Y-95050000D02*
G75*
G02*
X199100000Y-94249997I800003J0D01*
G01*
X120599998Y-89100000D02*
G75*
G02*
X121400000Y-88299998I800002J0D01*
G01*
X196300001Y-134000000D02*
G75*
G02*
X198299997Y-134000000I999998J1D01*
G01*
X141400000Y-88300000D02*
X121400000Y-88300000D01*
X155900000Y-161450000D02*
X138700000Y-161450000D01*
X262100000Y-180149996D02*
G75*
G02*
X261300004Y-179349996I0J799996D01*
G01*
X60107320Y-157503552D02*
G75*
G02*
X60402394Y-156408279I692380J400852D01*
G01*
X133300000Y-162250000D02*
X133300000Y-179350000D01*
X262100000Y-180149996D02*
X278500000Y-180149996D01*
X196300000Y-153000000D02*
G75*
G02*
X198299998Y-153000000I999999J2D01*
G01*
X84599998Y-126300000D02*
G75*
G02*
X83800000Y-127099998I-799998J0D01*
G01*
X195500000Y-94250000D02*
G75*
G02*
X196300000Y-95050000I0J-800000D01*
G01*
X133300000Y-179350000D02*
G75*
G02*
X132500000Y-180150000I-800000J0D01*
G01*
X278500000Y-180149996D02*
G75*
G02*
X279299997Y-180953346I0J-800004D01*
G01*
X102599998Y-90800000D02*
G75*
G02*
X103400000Y-89999998I800002J0D01*
G01*
X84599998Y-126300000D02*
X84599998Y-92500000D01*
X316601133Y-188407124D02*
G75*
G02*
X315510328Y-188699989I-692333J400824D01*
G01*
X303484700Y-181849996D02*
G75*
G02*
X303889888Y-181960164I0J-800204D01*
G01*
X120599998Y-89100000D02*
X120599998Y-89200000D01*
X138700000Y-161450000D02*
X134100000Y-161450000D01*
X157500000Y-164850000D02*
G75*
G02*
X156700000Y-164050000I0J800000D01*
G01*
X291999999Y-90802828D02*
X291999999Y-90899996D01*
X291200000Y-89999996D02*
G75*
G02*
X291999999Y-90802828I0J-800004D01*
G01*
X292800000Y-91699996D02*
G75*
G02*
X292000004Y-90899996I0J799996D01*
G01*
X274800000Y-89999996D02*
G75*
G02*
X274000004Y-89199996I0J799996D01*
G01*
X199100000Y-164849996D02*
X237100000Y-164849996D01*
X102599998Y-90800000D02*
X102599998Y-90900000D01*
X159400000Y-90000000D02*
G75*
G02*
X160200000Y-90800000I0J-800000D01*
G01*
X309999999Y-126299996D02*
X309999999Y-92497172D01*
X280100000Y-181849996D02*
G75*
G02*
X279300004Y-181049996I0J799996D01*
G01*
X252399999Y-89100000D02*
G75*
G02*
X253200000Y-88299999I800001J0D01*
G01*
X141400000Y-88300000D02*
G75*
G02*
X142200000Y-89100000I0J-800000D01*
G01*
X198299996Y-134000000D02*
X198299996Y-146500002D01*
X238700000Y-161449996D02*
X255899997Y-161449996D01*
X64899998Y-127900000D02*
G75*
G02*
X65700000Y-127099998I800002J0D01*
G01*
X198299996Y-146500002D02*
G75*
G02*
X196300004Y-146500000I-999996J2D01*
G01*
X160199998Y-93450000D02*
X160199998Y-90800000D01*
X253200000Y-88299996D02*
X273200000Y-88299996D01*
X133300000Y-162250000D02*
G75*
G02*
X134100000Y-161450000I800000J0D01*
G01*
X279299997Y-180953346D02*
X279299997Y-181049996D01*
X198299998Y-105400000D02*
G75*
G02*
X196300000Y-105400000I-999999J3D01*
G01*
X328900000Y-127099996D02*
X310800000Y-127099996D01*
X316601133Y-188407124D02*
X334492676Y-157503550D01*
X330110365Y-154128853D02*
G75*
G02*
X329700043Y-153430151I389635J698653D01*
G01*
X119800000Y-90000000D02*
X103400000Y-90000000D01*
X252399999Y-89200000D02*
X252399999Y-89100000D01*
X115300000Y-180950000D02*
X115300000Y-181050000D01*
X199100000Y-94249997D02*
X233600000Y-94249996D01*
X261299997Y-162253346D02*
X261299997Y-179349996D01*
X198300001Y-112000000D02*
X198299998Y-127500000D01*
X196300001Y-134000000D02*
X196300001Y-146500000D01*
X120599998Y-89200000D02*
G75*
G02*
X119800000Y-89999998I-799998J0D01*
G01*
X274800000Y-89999996D02*
X291200000Y-89999996D01*
X161000000Y-94250000D02*
G75*
G02*
X160200000Y-93450000I0J800000D01*
G01*
X273999999Y-89102828D02*
X273999999Y-89199996D01*
X155900000Y-161450000D02*
G75*
G02*
X156700000Y-162250000I0J-800000D01*
G01*
X234399999Y-90800000D02*
G75*
G02*
X235200000Y-89999999I800001J0D01*
G01*
M02*
