%TF.GenerationSoftware,KiCad,Pcbnew,9.0.6*%
%TF.CreationDate,2025-12-04T21:19:31-05:00*%
%TF.ProjectId,VoyagerSplitKicad,566f7961-6765-4725-9370-6c69744b6963,rev?*%
%TF.SameCoordinates,Original*%
%TF.FileFunction,Legend,Top*%
%TF.FilePolarity,Positive*%
%FSLAX46Y46*%
G04 Gerber Fmt 4.6, Leading zero omitted, Abs format (unit mm)*
G04 Created by KiCad (PCBNEW 9.0.6) date 2025-12-04 21:19:31*
%MOMM*%
%LPD*%
G01*
G04 APERTURE LIST*
%ADD10C,0.150000*%
%ADD11C,0.106680*%
%ADD12C,0.100000*%
%ADD13C,0.127000*%
%ADD14C,0.504000*%
G04 APERTURE END LIST*
D10*
X326239095Y-148254319D02*
X326239095Y-147254319D01*
X326239095Y-147730509D02*
X326810523Y-147730509D01*
X326810523Y-148254319D02*
X326810523Y-147254319D01*
X327191476Y-147254319D02*
X327858142Y-147254319D01*
X327858142Y-147254319D02*
X327429571Y-148254319D01*
X302439095Y-162654319D02*
X302439095Y-161654319D01*
X302439095Y-162130509D02*
X303010523Y-162130509D01*
X303010523Y-162654319D02*
X303010523Y-161654319D01*
X304010523Y-162654319D02*
X303439095Y-162654319D01*
X303724809Y-162654319D02*
X303724809Y-161654319D01*
X303724809Y-161654319D02*
X303629571Y-161797176D01*
X303629571Y-161797176D02*
X303534333Y-161892414D01*
X303534333Y-161892414D02*
X303439095Y-161940033D01*
X289039095Y-106054319D02*
X289039095Y-105054319D01*
X289039095Y-105530509D02*
X289610523Y-105530509D01*
X289610523Y-106054319D02*
X289610523Y-105054319D01*
X290562904Y-105054319D02*
X290086714Y-105054319D01*
X290086714Y-105054319D02*
X290039095Y-105530509D01*
X290039095Y-105530509D02*
X290086714Y-105482890D01*
X290086714Y-105482890D02*
X290181952Y-105435271D01*
X290181952Y-105435271D02*
X290420047Y-105435271D01*
X290420047Y-105435271D02*
X290515285Y-105482890D01*
X290515285Y-105482890D02*
X290562904Y-105530509D01*
X290562904Y-105530509D02*
X290610523Y-105625747D01*
X290610523Y-105625747D02*
X290610523Y-105863842D01*
X290610523Y-105863842D02*
X290562904Y-105959080D01*
X290562904Y-105959080D02*
X290515285Y-106006700D01*
X290515285Y-106006700D02*
X290420047Y-106054319D01*
X290420047Y-106054319D02*
X290181952Y-106054319D01*
X290181952Y-106054319D02*
X290086714Y-106006700D01*
X290086714Y-106006700D02*
X290039095Y-105959080D01*
X66837095Y-148254819D02*
X66837095Y-147254819D01*
X66837095Y-147731009D02*
X67408523Y-147731009D01*
X67408523Y-148254819D02*
X67408523Y-147254819D01*
X68027571Y-147683390D02*
X67932333Y-147635771D01*
X67932333Y-147635771D02*
X67884714Y-147588152D01*
X67884714Y-147588152D02*
X67837095Y-147492914D01*
X67837095Y-147492914D02*
X67837095Y-147445295D01*
X67837095Y-147445295D02*
X67884714Y-147350057D01*
X67884714Y-147350057D02*
X67932333Y-147302438D01*
X67932333Y-147302438D02*
X68027571Y-147254819D01*
X68027571Y-147254819D02*
X68218047Y-147254819D01*
X68218047Y-147254819D02*
X68313285Y-147302438D01*
X68313285Y-147302438D02*
X68360904Y-147350057D01*
X68360904Y-147350057D02*
X68408523Y-147445295D01*
X68408523Y-147445295D02*
X68408523Y-147492914D01*
X68408523Y-147492914D02*
X68360904Y-147588152D01*
X68360904Y-147588152D02*
X68313285Y-147635771D01*
X68313285Y-147635771D02*
X68218047Y-147683390D01*
X68218047Y-147683390D02*
X68027571Y-147683390D01*
X68027571Y-147683390D02*
X67932333Y-147731009D01*
X67932333Y-147731009D02*
X67884714Y-147778628D01*
X67884714Y-147778628D02*
X67837095Y-147873866D01*
X67837095Y-147873866D02*
X67837095Y-148064342D01*
X67837095Y-148064342D02*
X67884714Y-148159580D01*
X67884714Y-148159580D02*
X67932333Y-148207200D01*
X67932333Y-148207200D02*
X68027571Y-148254819D01*
X68027571Y-148254819D02*
X68218047Y-148254819D01*
X68218047Y-148254819D02*
X68313285Y-148207200D01*
X68313285Y-148207200D02*
X68360904Y-148159580D01*
X68360904Y-148159580D02*
X68408523Y-148064342D01*
X68408523Y-148064342D02*
X68408523Y-147873866D01*
X68408523Y-147873866D02*
X68360904Y-147778628D01*
X68360904Y-147778628D02*
X68313285Y-147731009D01*
X68313285Y-147731009D02*
X68218047Y-147683390D01*
X217439095Y-109454319D02*
X217439095Y-108454319D01*
X217439095Y-108930509D02*
X218010523Y-108930509D01*
X218010523Y-109454319D02*
X218010523Y-108454319D01*
X218534333Y-109454319D02*
X218724809Y-109454319D01*
X218724809Y-109454319D02*
X218820047Y-109406700D01*
X218820047Y-109406700D02*
X218867666Y-109359080D01*
X218867666Y-109359080D02*
X218962904Y-109216223D01*
X218962904Y-109216223D02*
X219010523Y-109025747D01*
X219010523Y-109025747D02*
X219010523Y-108644795D01*
X219010523Y-108644795D02*
X218962904Y-108549557D01*
X218962904Y-108549557D02*
X218915285Y-108501938D01*
X218915285Y-108501938D02*
X218820047Y-108454319D01*
X218820047Y-108454319D02*
X218629571Y-108454319D01*
X218629571Y-108454319D02*
X218534333Y-108501938D01*
X218534333Y-108501938D02*
X218486714Y-108549557D01*
X218486714Y-108549557D02*
X218439095Y-108644795D01*
X218439095Y-108644795D02*
X218439095Y-108882890D01*
X218439095Y-108882890D02*
X218486714Y-108978128D01*
X218486714Y-108978128D02*
X218534333Y-109025747D01*
X218534333Y-109025747D02*
X218629571Y-109073366D01*
X218629571Y-109073366D02*
X218820047Y-109073366D01*
X218820047Y-109073366D02*
X218915285Y-109025747D01*
X218915285Y-109025747D02*
X218962904Y-108978128D01*
X218962904Y-108978128D02*
X219010523Y-108882890D01*
X267439095Y-156954319D02*
X267439095Y-155954319D01*
X267439095Y-156430509D02*
X268010523Y-156430509D01*
X268010523Y-156954319D02*
X268010523Y-155954319D01*
X268391476Y-155954319D02*
X269010523Y-155954319D01*
X269010523Y-155954319D02*
X268677190Y-156335271D01*
X268677190Y-156335271D02*
X268820047Y-156335271D01*
X268820047Y-156335271D02*
X268915285Y-156382890D01*
X268915285Y-156382890D02*
X268962904Y-156430509D01*
X268962904Y-156430509D02*
X269010523Y-156525747D01*
X269010523Y-156525747D02*
X269010523Y-156763842D01*
X269010523Y-156763842D02*
X268962904Y-156859080D01*
X268962904Y-156859080D02*
X268915285Y-156906700D01*
X268915285Y-156906700D02*
X268820047Y-156954319D01*
X268820047Y-156954319D02*
X268534333Y-156954319D01*
X268534333Y-156954319D02*
X268439095Y-156906700D01*
X268439095Y-156906700D02*
X268391476Y-156859080D01*
X175638095Y-109454817D02*
X175638095Y-108454817D01*
X175638095Y-108931007D02*
X176209523Y-108931007D01*
X176209523Y-109454817D02*
X176209523Y-108454817D01*
X177114285Y-108788150D02*
X177114285Y-109454817D01*
X176876190Y-108407198D02*
X176638095Y-109121483D01*
X176638095Y-109121483D02*
X177257142Y-109121483D01*
X125637093Y-156953819D02*
X125637093Y-155953819D01*
X125637093Y-156430009D02*
X126208521Y-156430009D01*
X126208521Y-156953819D02*
X126208521Y-155953819D01*
X127113283Y-155953819D02*
X126922807Y-155953819D01*
X126922807Y-155953819D02*
X126827569Y-156001438D01*
X126827569Y-156001438D02*
X126779950Y-156049057D01*
X126779950Y-156049057D02*
X126684712Y-156191914D01*
X126684712Y-156191914D02*
X126637093Y-156382390D01*
X126637093Y-156382390D02*
X126637093Y-156763342D01*
X126637093Y-156763342D02*
X126684712Y-156858580D01*
X126684712Y-156858580D02*
X126732331Y-156906200D01*
X126732331Y-156906200D02*
X126827569Y-156953819D01*
X126827569Y-156953819D02*
X127018045Y-156953819D01*
X127018045Y-156953819D02*
X127113283Y-156906200D01*
X127113283Y-156906200D02*
X127160902Y-156858580D01*
X127160902Y-156858580D02*
X127208521Y-156763342D01*
X127208521Y-156763342D02*
X127208521Y-156525247D01*
X127208521Y-156525247D02*
X127160902Y-156430009D01*
X127160902Y-156430009D02*
X127113283Y-156382390D01*
X127113283Y-156382390D02*
X127018045Y-156334771D01*
X127018045Y-156334771D02*
X126827569Y-156334771D01*
X126827569Y-156334771D02*
X126732331Y-156382390D01*
X126732331Y-156382390D02*
X126684712Y-156430009D01*
X126684712Y-156430009D02*
X126637093Y-156525247D01*
X90160905Y-162654819D02*
X90160905Y-161654819D01*
X90160905Y-162131009D02*
X90732333Y-162131009D01*
X90732333Y-162654819D02*
X90732333Y-161654819D01*
X91732333Y-162654819D02*
X91160905Y-162654819D01*
X91446619Y-162654819D02*
X91446619Y-161654819D01*
X91446619Y-161654819D02*
X91351381Y-161797676D01*
X91351381Y-161797676D02*
X91256143Y-161892914D01*
X91256143Y-161892914D02*
X91160905Y-161940533D01*
X92351381Y-161654819D02*
X92446619Y-161654819D01*
X92446619Y-161654819D02*
X92541857Y-161702438D01*
X92541857Y-161702438D02*
X92589476Y-161750057D01*
X92589476Y-161750057D02*
X92637095Y-161845295D01*
X92637095Y-161845295D02*
X92684714Y-162035771D01*
X92684714Y-162035771D02*
X92684714Y-162273866D01*
X92684714Y-162273866D02*
X92637095Y-162464342D01*
X92637095Y-162464342D02*
X92589476Y-162559580D01*
X92589476Y-162559580D02*
X92541857Y-162607200D01*
X92541857Y-162607200D02*
X92446619Y-162654819D01*
X92446619Y-162654819D02*
X92351381Y-162654819D01*
X92351381Y-162654819D02*
X92256143Y-162607200D01*
X92256143Y-162607200D02*
X92208524Y-162559580D01*
X92208524Y-162559580D02*
X92160905Y-162464342D01*
X92160905Y-162464342D02*
X92113286Y-162273866D01*
X92113286Y-162273866D02*
X92113286Y-162035771D01*
X92113286Y-162035771D02*
X92160905Y-161845295D01*
X92160905Y-161845295D02*
X92208524Y-161750057D01*
X92208524Y-161750057D02*
X92256143Y-161702438D01*
X92256143Y-161702438D02*
X92351381Y-161654819D01*
X104038093Y-106054819D02*
X104038093Y-105054819D01*
X104038093Y-105531009D02*
X104609521Y-105531009D01*
X104609521Y-106054819D02*
X104609521Y-105054819D01*
X105038093Y-105150057D02*
X105085712Y-105102438D01*
X105085712Y-105102438D02*
X105180950Y-105054819D01*
X105180950Y-105054819D02*
X105419045Y-105054819D01*
X105419045Y-105054819D02*
X105514283Y-105102438D01*
X105514283Y-105102438D02*
X105561902Y-105150057D01*
X105561902Y-105150057D02*
X105609521Y-105245295D01*
X105609521Y-105245295D02*
X105609521Y-105340533D01*
X105609521Y-105340533D02*
X105561902Y-105483390D01*
X105561902Y-105483390D02*
X104990474Y-106054819D01*
X104990474Y-106054819D02*
X105609521Y-106054819D01*
D11*
X328117950Y-127509191D02*
X328117950Y-128142498D01*
X328117950Y-128142498D02*
X328155204Y-128217004D01*
X328155204Y-128217004D02*
X328192457Y-128254258D01*
X328192457Y-128254258D02*
X328266964Y-128291511D01*
X328266964Y-128291511D02*
X328415977Y-128291511D01*
X328415977Y-128291511D02*
X328490484Y-128254258D01*
X328490484Y-128254258D02*
X328527737Y-128217004D01*
X328527737Y-128217004D02*
X328564990Y-128142498D01*
X328564990Y-128142498D02*
X328564990Y-127509191D01*
X329347310Y-128291511D02*
X328900270Y-128291511D01*
X329123790Y-128291511D02*
X329123790Y-127509191D01*
X329123790Y-127509191D02*
X329049283Y-127620951D01*
X329049283Y-127620951D02*
X328974777Y-127695458D01*
X328974777Y-127695458D02*
X328900270Y-127732711D01*
X84856450Y-126516391D02*
X84856450Y-127149698D01*
X84856450Y-127149698D02*
X84893704Y-127224204D01*
X84893704Y-127224204D02*
X84930957Y-127261458D01*
X84930957Y-127261458D02*
X85005464Y-127298711D01*
X85005464Y-127298711D02*
X85154477Y-127298711D01*
X85154477Y-127298711D02*
X85228984Y-127261458D01*
X85228984Y-127261458D02*
X85266237Y-127224204D01*
X85266237Y-127224204D02*
X85303490Y-127149698D01*
X85303490Y-127149698D02*
X85303490Y-126516391D01*
X85638770Y-126590898D02*
X85676023Y-126553644D01*
X85676023Y-126553644D02*
X85750530Y-126516391D01*
X85750530Y-126516391D02*
X85936797Y-126516391D01*
X85936797Y-126516391D02*
X86011303Y-126553644D01*
X86011303Y-126553644D02*
X86048557Y-126590898D01*
X86048557Y-126590898D02*
X86085810Y-126665404D01*
X86085810Y-126665404D02*
X86085810Y-126739911D01*
X86085810Y-126739911D02*
X86048557Y-126851671D01*
X86048557Y-126851671D02*
X85601517Y-127298711D01*
X85601517Y-127298711D02*
X86085810Y-127298711D01*
D12*
%TO.C,U1*%
X327621500Y-146174300D02*
X327621500Y-129029300D01*
X325716500Y-127124300D02*
X311746500Y-127124300D01*
D13*
X323235500Y-126114300D02*
X323235500Y-127124300D01*
X314740228Y-125614300D02*
X322735500Y-125614300D01*
X314236500Y-127124300D02*
X314240228Y-126114028D01*
D12*
X311746500Y-148079300D02*
X325716500Y-148079300D01*
X309841500Y-146174300D02*
X309841500Y-129029300D01*
X325716500Y-127124300D02*
G75*
G02*
X327621500Y-129029300I-50J-1905050D01*
G01*
X327621500Y-146174300D02*
G75*
G02*
X325716500Y-148079300I-1905000J0D01*
G01*
D13*
X322735500Y-125614300D02*
G75*
G02*
X323235500Y-126114300I-100J-500100D01*
G01*
X314240228Y-126114028D02*
G75*
G02*
X314740228Y-125614301I500018J-291D01*
G01*
D12*
X309841500Y-129025300D02*
G75*
G02*
X311746500Y-127120300I1905001J-1D01*
G01*
X311746500Y-148079300D02*
G75*
G02*
X309841500Y-146174300I1J1905001D01*
G01*
D14*
X311157500Y-128257300D02*
G75*
G02*
X310653500Y-128257300I-252000J0D01*
G01*
X310653500Y-128257300D02*
G75*
G02*
X311157500Y-128257300I252000J0D01*
G01*
X309883500Y-127540300D02*
G75*
G02*
X309379500Y-127540300I-252000J0D01*
G01*
X309379500Y-127540300D02*
G75*
G02*
X309883500Y-127540300I252000J0D01*
G01*
D12*
%TO.C,U2*%
X84995000Y-146213000D02*
X84995000Y-129068000D01*
X83090000Y-127163000D02*
X69120000Y-127163000D01*
D13*
X80609000Y-126153000D02*
X80609000Y-127163000D01*
X72113728Y-125653000D02*
X80109000Y-125653000D01*
X71610000Y-127163000D02*
X71613728Y-126152728D01*
D12*
X69120000Y-148118000D02*
X83090000Y-148118000D01*
X67215000Y-146213000D02*
X67215000Y-129068000D01*
X83090000Y-127163000D02*
G75*
G02*
X84995000Y-129068000I-50J-1905050D01*
G01*
X84995000Y-146213000D02*
G75*
G02*
X83090000Y-148118000I-1905000J0D01*
G01*
D13*
X80109000Y-125653000D02*
G75*
G02*
X80609000Y-126153000I-100J-500100D01*
G01*
X71613728Y-126152728D02*
G75*
G02*
X72113728Y-125653001I500018J-291D01*
G01*
D12*
X67215000Y-129064000D02*
G75*
G02*
X69120000Y-127159000I1905001J-1D01*
G01*
X69120000Y-148118000D02*
G75*
G02*
X67215000Y-146213000I1J1905001D01*
G01*
D14*
X68531000Y-128296000D02*
G75*
G02*
X68027000Y-128296000I-252000J0D01*
G01*
X68027000Y-128296000D02*
G75*
G02*
X68531000Y-128296000I252000J0D01*
G01*
X67257000Y-127579000D02*
G75*
G02*
X66753000Y-127579000I-252000J0D01*
G01*
X66753000Y-127579000D02*
G75*
G02*
X67257000Y-127579000I252000J0D01*
G01*
%TD*%
M02*
